<svg xmlns="http://www.w3.org/2000/svg" viewBox="0 0 1510.53 501.03"><defs><style>.cls-1{fill:#1a171b;}</style></defs><title>Element 17</title><g id="Ebene_2" data-name="Ebene 2"><g id="Ebene_1-2" data-name="Ebene 1"><path class="cls-1" d="M1464.72,358.25c4.88.66,9.75,1.35,14.55,2.47a64.51,64.51,0,0,1,7.08,2.08,45.62,45.62,0,0,1,6.71,3.06,37.3,37.3,0,0,1,6,4.26,36.23,36.23,0,0,1,5,5.42,35.09,35.09,0,0,1,2.07,3.07,33.93,33.93,0,0,1,1.64,3.31A31.89,31.89,0,0,1,1510,389a41.43,41.43,0,0,1-.2,14.73,53.78,53.78,0,0,1-1.78,7.18,42.18,42.18,0,0,1-3,6.76,31.88,31.88,0,0,1-4.49,5.91,26.74,26.74,0,0,1-5.9,4.52,36.19,36.19,0,0,1-14.23,4.06l.1-.73a35.91,35.91,0,0,1,7,3.21,18,18,0,0,1,5.46,5.45,23.91,23.91,0,0,1,3,7.13,50,50,0,0,1,1.2,7.56c.48,5.08.52,10.13.68,15.19.06,2.53.13,5.07.38,7.54.07.62.15,1.23.26,1.84a13,13,0,0,0,.42,1.77,27.26,27.26,0,0,1,.91,3.79v0a14.67,14.67,0,0,1,.33,4,13.66,13.66,0,0,1-1,4,13.15,13.15,0,0,1-5.31,6.11,14.33,14.33,0,0,1-3.77,1.57,17.28,17.28,0,0,1-2,.36c-.34,0-.68.08-1,.1l-1,0a19.12,19.12,0,0,1-4-.41,22.15,22.15,0,0,1-3.88-1.08,16.24,16.24,0,0,1-6.51-4.81,20.62,20.62,0,0,1-3.62-7.18,39.27,39.27,0,0,1-1.37-7.79c-.22-2.6-.31-5.21-.36-7.8l-.15-7.73c0-1.29-.13-2.55-.19-3.82s-.26-2.52-.53-3.74a15.69,15.69,0,0,0-2.72-6.69,11.8,11.8,0,0,0-5.91-3.9c-4.72-1.56-9.93-1.95-15-2.64l-15.37-1.91,1.06-.84L1423.14,474a31.15,31.15,0,0,1-2,8.38,14.92,14.92,0,0,1-5.56,6.79,14.48,14.48,0,0,1-8.47,2.24,21.57,21.57,0,0,1-8.42-2h-.06a14.91,14.91,0,0,1-4.82-4.09,14.23,14.23,0,0,1-2.53-5.77c-.84-4.14-.19-8.28.32-12.23l3.06-23.95,6.13-47.9,3-23.94c.49-4,1.12-8.08,3.19-11.61a13.68,13.68,0,0,1,4.12-4.41,14.33,14.33,0,0,1,5.62-2.21c4-.72,8.06,0,12,.45l12,1.5Zm0,0-24-2.88-12-1.45c-4-.46-8-1.13-12-.4a14.12,14.12,0,0,0-5.52,2.2,13.35,13.35,0,0,0-4,4.35c-2,3.48-2.63,7.55-3.1,11.51l-2.82,24-5.62,48-2.81,24c-.48,4-1,8-.21,11.78a12.88,12.88,0,0,0,2.33,5.16,13.13,13.13,0,0,0,4.35,3.61l0,0a20.12,20.12,0,0,0,7.84,1.76,13.08,13.08,0,0,0,7.5-2,13.29,13.29,0,0,0,4.89-6,29.57,29.57,0,0,0,1.86-7.91l4-33.35.12-.95,1,.12,15.39,1.85c5.12.65,10.31,1.06,15.44,2.75a13.8,13.8,0,0,1,6.78,4.56,17.47,17.47,0,0,1,3.06,7.52c.28,1.31.38,2.62.54,3.94s.19,2.62.18,3.91l.12,7.77c.12,5.13.2,10.31,1.6,15.13a18.81,18.81,0,0,0,3.27,6.58,14.45,14.45,0,0,0,5.8,4.32,19.82,19.82,0,0,0,3.56,1,17,17,0,0,0,3.69.42h.92l.91-.09a13.67,13.67,0,0,0,1.81-.3,13.16,13.16,0,0,0,3.37-1.36,11.58,11.58,0,0,0,4.74-5.35,12.18,12.18,0,0,0,.9-3.51,13,13,0,0,0-.27-3.66v-.05a26.52,26.52,0,0,0-.83-3.6,16.13,16.13,0,0,1-.43-1.91c-.11-.64-.19-1.29-.25-1.93-.23-2.57-.27-5.09-.31-7.62-.1-5.06-.09-10.13-.51-15.14s-1.22-10.07-3.85-14.29a17.16,17.16,0,0,0-5.14-5.25,34.69,34.69,0,0,0-6.77-3.2l-1.58-.59,1.68-.14a35.58,35.58,0,0,0,14-3.84,25.88,25.88,0,0,0,5.83-4.36,31.35,31.35,0,0,0,4.47-5.77,40.47,40.47,0,0,0,3.07-6.65,51.19,51.19,0,0,0,1.84-7.11,41.35,41.35,0,0,0,.25-14.63,31.8,31.8,0,0,0-2.1-7,36,36,0,0,0-1.62-3.3,35.36,35.36,0,0,0-2-3.06,36.43,36.43,0,0,0-5-5.41,37.27,37.27,0,0,0-6-4.28,46.44,46.44,0,0,0-6.68-3.08,66.71,66.71,0,0,0-7.07-2.1C1474.47,359.64,1469.59,358.93,1464.72,358.25Z"/><path class="cls-1" d="M1433.74,380.21l-1.8,18.21-.93,8.94-1,8.89-.64-.82c4.87.52,9.73,1.06,14.59,1.65l7.29.86c2.42.28,4.83.55,7.22.62a27.12,27.12,0,0,0,7-.6,17.64,17.64,0,0,0,3.32-1.08,16,16,0,0,0,3-1.63,15,15,0,0,0,4.51-5.13,19.85,19.85,0,0,0,2.11-6.64,19.47,19.47,0,0,0-.1-7,12.68,12.68,0,0,0-3.07-6.07,15.66,15.66,0,0,0-5.72-3.9,38,38,0,0,0-6.91-2c-2.38-.47-4.8-.82-7.21-1.15s-4.77-.69-7.17-1Zm0,0,14.51,1.41c2.46.24,4.93.46,7.4.74s4.88.54,7.32.95a38.84,38.84,0,0,1,7.24,1.84,17,17,0,0,1,6.4,4.13,14.45,14.45,0,0,1,3.55,6.84,21.19,21.19,0,0,1,.19,7.61,21.8,21.8,0,0,1-2.24,7.29,16.35,16.35,0,0,1-8.45,7.7,19.47,19.47,0,0,1-3.66,1.16,30,30,0,0,1-7.54.57c-2.5-.09-5-.4-7.38-.71l-7.28-.92q-7.29-.9-14.56-1.93l-.73-.1.1-.72,1.25-9.08,1.27-9Z"/><path class="cls-1" d="M77.66,252.65,34.4,260.47l.3-.32L33.16,273c-.27,2.14-.55,4.29-1,6.43a21.74,21.74,0,0,1-2.22,6.22,12.58,12.58,0,0,1-4.68,4.76,17.7,17.7,0,0,1-6.35,2,22,22,0,0,1-6.63-.2,16.16,16.16,0,0,1-6.21-2.48,12.74,12.74,0,0,1-4.37-5.14A12,12,0,0,1,1.06,283a9.25,9.25,0,0,1-.47-1.61,16.31,16.31,0,0,1-.53-3.31,31.53,31.53,0,0,1,.33-6.6c.32-2.17.69-4.27,1-6.4L5.66,239.6l8.53-51,2.14-12.76c.74-4.24,1.34-8.5,2.26-12.78a34.23,34.23,0,0,1,2-6.35,16.16,16.16,0,0,1,3.92-5.59,17.32,17.32,0,0,1,5.88-3.4c1.05-.42,2.13-.66,3.2-1s2.16-.47,3.25-.64a37.24,37.24,0,0,1,6.61-.51,19.54,19.54,0,0,1,6.64,1.26,15.56,15.56,0,0,1,5.61,3.87,29.71,29.71,0,0,1,3.89,5.41L72.23,178.7l12.65,22.56,12.57,22.6L110,246.46c1,1.89,2.12,3.74,3.13,5.68a31.24,31.24,0,0,1,2.44,6.09,18.06,18.06,0,0,1,.64,6.59,13.26,13.26,0,0,1-2.3,6.21,17.12,17.12,0,0,1-11,6.68,17.7,17.7,0,0,1-6.53.13A12.29,12.29,0,0,1,90.49,275a21.16,21.16,0,0,1-4.12-5,53.88,53.88,0,0,1-3.05-5.7Zm0,0,5.84,11.52a55.49,55.49,0,0,0,3.15,5.65,20.92,20.92,0,0,0,4.12,4.86,11.9,11.9,0,0,0,5.69,2.62,17.14,17.14,0,0,0,6.3-.24,16.36,16.36,0,0,0,10.44-6.53,12.27,12.27,0,0,0,2-5.81,17,17,0,0,0-.67-6.2,30.12,30.12,0,0,0-2.41-5.86c-1-1.88-2.12-3.74-3.17-5.62L96.2,224.56,83.41,202.08,70.69,179.56,58,157.07A27.94,27.94,0,0,0,54.31,152a13.55,13.55,0,0,0-5-3.4,17.68,17.68,0,0,0-6-1.11,35.88,35.88,0,0,0-6.26.51c-1,.16-2.06.4-3.09.62a27.07,27.07,0,0,0-3,.92,15.36,15.36,0,0,0-5.24,3c-3,2.7-4.34,6.81-5.27,10.91s-1.54,8.43-2.29,12.68L16.07,188.9l-8.69,51L3,265.38c-.68,4.26-1.73,8.48-1.47,12.64A15.08,15.08,0,0,0,2,281.09a8.7,8.7,0,0,0,.42,1.49A13.51,13.51,0,0,0,3,284a11.41,11.41,0,0,0,3.87,4.64c3.38,2.34,7.8,3,11.93,2.57a16.61,16.61,0,0,0,5.91-1.82,11.34,11.34,0,0,0,4.3-4.31c2.09-3.62,2.59-8,3.22-12.22L34,260.05l0-.28.27,0Z"/><path class="cls-1" d="M50.67,198.53c-1.47-3.29-2.93-6.58-4.34-9.9s-2.69-6.69-4-10l.4-.07c.1,4.7.26,9.41,0,14.14-.11,2.36-.37,4.72-.6,7.06l-.71,7q-.7,7-1.52,14c-.54,4.68-1.1,9.34-1.7,14l-1.13-1.07c2.42-.42,4.84-.81,7.27-1.19l7.27-1.14,14.56-2.19-.35.7-7.47-15.72C55.82,208.92,53.25,203.73,50.67,198.53Zm0,0c2.61,5.18,5.23,10.36,7.91,15.5l8.1,15.41.3.57-.66.12-14.45,2.8-7.23,1.36c-2.42.45-4.83.89-7.25,1.31l-1.27.22.14-1.29q.81-7,1.71-14t1.87-14l1-7c.33-2.34.68-4.64.9-7,.45-4.66.48-9.36.58-14.07l0-1.18.38,1.11q1.73,5.12,3.72,10.15C47.78,191.93,49.24,195.22,50.67,198.53Z"/><path class="cls-1" d="M334.78,222.19l27.16-.25,13.5-.13,6.73-.05a32.19,32.19,0,0,1,6.82.72,12.67,12.67,0,0,1,6.1,3.34,13.23,13.23,0,0,1,2.11,2.82,11.26,11.26,0,0,1,1.2,3.33,14.94,14.94,0,0,1-.25,7,11.62,11.62,0,0,1-3.72,5.95,13,13,0,0,1-6.43,2.82,44.24,44.24,0,0,1-6.86.35l-13.54.07-27.08.1-13.54,0c-1.13,0-2.25,0-3.39,0s-2.28-.08-3.43-.18a24.2,24.2,0,0,1-6.86-1.39,15.36,15.36,0,0,1-5.93-3.94,14.55,14.55,0,0,1-3.39-6.28,31.06,31.06,0,0,1-.87-6.91c-.07-1.14-.08-2.28-.07-3.4v-3.39l0-27.07.09-54.16,0-13.54a36.78,36.78,0,0,1,.46-6.9,14.44,14.44,0,0,1,2.9-6.5,14.84,14.84,0,0,1,5.64-4.34,17.79,17.79,0,0,1,6.91-1.41A17.26,17.26,0,0,1,326,110a14.7,14.7,0,0,1,5.7,4.21,15.63,15.63,0,0,1,3.16,6.3,28.31,28.31,0,0,1,.67,6.89l-.07,13.48-.16,27Zm0,0-.46-54L334.15,141l-.07-13.59a27.15,27.15,0,0,0-.7-6.54,14,14,0,0,0-2.92-5.67,12.9,12.9,0,0,0-5.11-3.71,15.48,15.48,0,0,0-6.31-1,16.45,16.45,0,0,0-6.26,1.29,13.29,13.29,0,0,0-5,3.86,12.74,12.74,0,0,0-2.53,5.74,35.65,35.65,0,0,0-.4,6.58l0,13.54.09,54.13-.05,27.07v3.38c0,1.14,0,2.25.05,3.36a29.35,29.35,0,0,0,.79,6.5,12.69,12.69,0,0,0,2.94,5.52A13.63,13.63,0,0,0,314,245a23.13,23.13,0,0,0,6.36,1.3c1.09.09,2.22.13,3.33.18s2.25,0,3.37,0l13.53,0,27.07.1,13.53.07a43,43,0,0,0,6.65-.27,11.73,11.73,0,0,0,5.83-2.47,10.49,10.49,0,0,0,3.39-5.32,14,14,0,0,0,.29-6.43,10.22,10.22,0,0,0-1.05-3,12.27,12.27,0,0,0-1.91-2.6,11.88,11.88,0,0,0-5.59-3.14,32.12,32.12,0,0,0-6.6-.8l-6.8-.06-13.58-.13Z"/><path class="cls-1" d="M469.49,234.6l-5.24,26.47c-.9,4.32-1.53,9-4.09,12.87a14.15,14.15,0,0,1-5,4.72,13.62,13.62,0,0,1-6.71,1.6,19.41,19.41,0,0,1-6.76-1.37,14.57,14.57,0,0,1-3-1.69c-.47-.34-1-.64-1.41-1s-.9-.75-1.29-1.18a13.35,13.35,0,0,1-3.33-6.11,20.37,20.37,0,0,1-.35-6.91,66.93,66.93,0,0,1,1.16-6.7l1.34-6.61,2.68-13.21c3.55-17.63,7.24-35.22,10.86-52.83l2.73-13.21,1.36-6.6c.47-2.2.87-4.4,1.43-6.63a29,29,0,0,1,1-3.32c.21-.56.44-1.08.71-1.64s.63-1,.94-1.53a15.05,15.05,0,0,1,5.24-4.85,16.24,16.24,0,0,1,6.87-1.85,31.33,31.33,0,0,1,6.93.49c8.89,1.77,17.62,3.68,26.44,5.51,4.4.93,8.78,1.81,13.2,2.8a81.56,81.56,0,0,1,13,4,47.13,47.13,0,0,1,11.77,7,40.64,40.64,0,0,1,8.81,10.52,39.6,39.6,0,0,1,4.7,12.88,48.8,48.8,0,0,1,.41,13.65,58.78,58.78,0,0,1-3,13.29,49.12,49.12,0,0,1-6.22,12.12,39.53,39.53,0,0,1-22,15.39,45.84,45.84,0,0,1-13.49,1.41,90.12,90.12,0,0,1-13.41-1.74c-4.43-.89-8.77-1.87-13.14-2.82Zm0,0L496,239.8a89.61,89.61,0,0,0,13.33,1.5,45.14,45.14,0,0,0,13.21-1.59,38.53,38.53,0,0,0,21.18-15.18,53.15,53.15,0,0,0,8.75-24.83c.87-8.79-.59-17.92-5.07-25.51a38.41,38.41,0,0,0-8.46-10,44.7,44.7,0,0,0-11.33-6.69c-8.2-3.38-17.14-4.7-25.92-6.61s-17.64-3.68-26.39-5.41a29,29,0,0,0-6.48-.48,14.2,14.2,0,0,0-6,1.59,12.86,12.86,0,0,0-4.56,4.21c-.28.44-.58.88-.84,1.33s-.44,1-.64,1.45a28.68,28.68,0,0,0-1,3.1c-.54,2.13-1,4.35-1.44,6.54l-1.38,6.6L450.11,183c-3.71,17.59-7.36,35.19-11.14,52.77L436.15,249l-1.4,6.59a63.5,63.5,0,0,0-1.2,6.57,18.83,18.83,0,0,0,.24,6.49,12.25,12.25,0,0,0,3,5.61c.36.41.79.74,1.18,1.11s.88.64,1.32,1a13.52,13.52,0,0,0,2.82,1.62,18.77,18.77,0,0,0,6.37,1.36,12.79,12.79,0,0,0,6.29-1.38,13.61,13.61,0,0,0,4.78-4.37,21.3,21.3,0,0,0,2.68-6c.6-2.14,1-4.35,1.52-6.56Z"/><path class="cls-1" d="M482.64,171.46,479,191.08l-3.67,19.22-.61-.93c4.58.86,9.14,1.83,13.72,2.75s9.1,2,13.64,2.13,9.08-.74,12.57-3.43a19.27,19.27,0,0,0,6.68-11.23,19.14,19.14,0,0,0-1.58-13,15.82,15.82,0,0,0-4.13-5.16,21.32,21.32,0,0,0-5.94-3.22c-4.29-1.57-9-2.4-13.39-3.51Zm0,0,13.71,2.48A102.72,102.72,0,0,1,510.13,177a22.8,22.8,0,0,1,6.41,3.25,17.44,17.44,0,0,1,4.71,5.54A20.87,20.87,0,0,1,523.13,200a21.16,21.16,0,0,1-7.25,12.38,17.44,17.44,0,0,1-6.62,3.18,24.86,24.86,0,0,1-7.22.63c-4.81-.2-9.39-1.36-13.94-2.31s-9.13-1.91-13.67-3l-.79-.18.17-.75,4.39-19.47Z"/><path class="cls-1" d="M532.41,366.28l49.19-4.44-.26.31-2.25-24.93c-.36-4.17-.8-8.29-1.08-12.49a25.59,25.59,0,0,1,.37-6.35,15.18,15.18,0,0,1,2.52-5.92l0,0a14.31,14.31,0,0,1,6.22-4.48,20.94,20.94,0,0,1,7.55-1.26,17.24,17.24,0,0,1,3.84.47,10.06,10.06,0,0,1,1.85.62,12.9,12.9,0,0,1,1.76.84,13.6,13.6,0,0,1,5.33,5.59,19.11,19.11,0,0,1,1.42,3.6,30.3,30.3,0,0,1,.78,3.74c.35,2.52.5,5,.74,7.48l1.31,14.91,5.18,59.63,1.28,14.91.63,7.46a37.59,37.59,0,0,1,0,7.65,16.17,16.17,0,0,1-2.67,7.37,13.86,13.86,0,0,1-6.13,5,15.84,15.84,0,0,1-3.8,1.08,22,22,0,0,1-3.9.28,17.46,17.46,0,0,1-3.89-.55l-1.88-.54c-.61-.26-1.24-.5-1.84-.79a13.59,13.59,0,0,1-5.65-5.54,22.33,22.33,0,0,1-2.35-7.41c-.4-2.54-.53-5-.76-7.51l-.64-7.45-2.56-29.82,1.08.91-49.21,4.11.86-1,3,36c.22,3,.57,6,.64,9.07a21.33,21.33,0,0,1-1.67,9.2A14.42,14.42,0,0,1,536.3,448a9.88,9.88,0,0,1-.76,1,7,7,0,0,1-.83.89,12.36,12.36,0,0,1-1.91,1.48l-1,.63c-.35.18-.73.32-1.09.48l-1.11.46-1.14.31-1.14.31c-.39.07-.78.11-1.16.17a21.54,21.54,0,0,1-4.68.28,14.76,14.76,0,0,1-8.82-3.27,15.73,15.73,0,0,1-5-8,45.47,45.47,0,0,1-1.29-9.08l-.73-9-2.93-36-2.93-36-1.46-18a29.24,29.24,0,0,1,.44-9.13,16,16,0,0,1,4.58-7.93,15.27,15.27,0,0,1,8.33-3.74,15.9,15.9,0,0,1,9,1.38,13.85,13.85,0,0,1,3.76,2.63,16.33,16.33,0,0,1,2.75,3.66,23.15,23.15,0,0,1,2.38,8.75Zm0,0-3.27-36a22.65,22.65,0,0,0-2.43-8.53,13.9,13.9,0,0,0-6.32-6,15.21,15.21,0,0,0-8.62-1.23,14.51,14.51,0,0,0-7.86,3.63,15.15,15.15,0,0,0-4.23,7.54,29,29,0,0,0-.34,8.83l1.58,18,3.16,36,3.16,36,.79,9a45.24,45.24,0,0,0,1.27,8.75,13.93,13.93,0,0,0,4.42,7.12,13,13,0,0,0,7.82,2.86,19.58,19.58,0,0,0,4.32-.27c.36-.05.72-.09,1.07-.16l1-.28,1-.28,1-.41a10.85,10.85,0,0,0,5.89-5.66,19.56,19.56,0,0,0,1.49-8.43c-.07-2.92-.43-5.94-.66-8.94l-3.08-36-.08-.94,1-.09,49.2-4.21,1-.08.08,1,2.5,29.83.62,7.45c.23,2.49.35,5,.73,7.38a20.55,20.55,0,0,0,2.12,6.79,11.8,11.8,0,0,0,4.86,4.79c.52.25,1.06.46,1.6.69l1.71.49a15,15,0,0,0,3.5.51,20.26,20.26,0,0,0,3.55-.25,13.91,13.91,0,0,0,3.38-.95,12,12,0,0,0,5.34-4.32,14.31,14.31,0,0,0,2.37-6.55,35.53,35.53,0,0,0,0-7.29l-.62-7.45-1.25-14.91-4.9-59.66-1.22-14.91c-.22-2.48-.36-5-.67-7.41a32.4,32.4,0,0,0-.72-3.58,19.48,19.48,0,0,0-1.3-3.36,12.25,12.25,0,0,0-4.82-5.11,12,12,0,0,0-1.61-.79,10.11,10.11,0,0,0-1.68-.58,15.79,15.79,0,0,0-3.57-.45,19.77,19.77,0,0,0-7.13,1.13,13.18,13.18,0,0,0-5.8,4.12l0,0a14.12,14.12,0,0,0-2.38,5.49,24.43,24.43,0,0,0-.39,6.11c.23,4.12.62,8.31.93,12.46l2,25,0,.28-.28,0Z"/><path class="cls-1" d="M704.93,162.56l-44,.38.36-.27-3.7,12.4c-.63,2.06-1.27,4.13-2.08,6.16A21.31,21.31,0,0,1,652.3,187a12.61,12.61,0,0,1-5.42,3.9,17.85,17.85,0,0,1-6.59.93,22.38,22.38,0,0,1-6.51-1.32,16.28,16.28,0,0,1-5.7-3.5,12.83,12.83,0,0,1-3.44-5.81,13.1,13.1,0,0,1-.36-1.65,8.55,8.55,0,0,1-.19-1.67,16.4,16.4,0,0,1,0-3.36,31.5,31.5,0,0,1,1.44-6.44c.69-2.08,1.41-4.09,2.11-6.14l8.49-24.42,17.06-48.84,4.26-12.2c1.45-4.06,2.77-8.16,4.4-12.22a34.41,34.41,0,0,1,3-5.92,16.23,16.23,0,0,1,4.81-4.85,17.37,17.37,0,0,1,6.37-2.35c1.1-.24,2.21-.29,3.32-.42s2.2-.09,3.3-.08a37.91,37.91,0,0,1,6.61.62,19.59,19.59,0,0,1,6.33,2.37,15.51,15.51,0,0,1,4.87,4.77,29.26,29.26,0,0,1,2.92,6l8.67,24.39,8.63,24.38,8.56,24.4L737.86,162c.7,2,1.45,4,2.13,6.12a31.73,31.73,0,0,1,1.37,6.43,17.91,17.91,0,0,1-.49,6.59,13.14,13.14,0,0,1-3.32,5.74,17.15,17.15,0,0,1-12,4.71,17.78,17.78,0,0,1-6.46-1,12.28,12.28,0,0,1-5.31-3.78,21.37,21.37,0,0,1-3.21-5.65,54.3,54.3,0,0,1-2-6.13Zm0,0,3.8,12.35a55.74,55.74,0,0,0,2.14,6.1,20.91,20.91,0,0,0,3.24,5.49,11.89,11.89,0,0,0,5.16,3.54,17,17,0,0,0,6.26.83,16.36,16.36,0,0,0,11.39-4.66,12.2,12.2,0,0,0,3-5.38,16.92,16.92,0,0,0,.39-6.23,30,30,0,0,0-1.38-6.18c-.67-2-1.45-4-2.17-6.07L728,138l-8.79-24.33-8.72-24.35L701.72,65a28.56,28.56,0,0,0-2.75-5.6,13.75,13.75,0,0,0-4.3-4.19A17.72,17.72,0,0,0,689,53.13a36.05,36.05,0,0,0-6.25-.57c-1.06,0-2.11,0-3.16.09a28.67,28.67,0,0,0-3.09.4,15.31,15.31,0,0,0-5.68,2.1c-3.42,2.15-5.43,6-7,9.86s-2.94,8-4.4,12.1L655,89.3l-17.21,48.78-8.64,24.38c-1.39,4.08-3.13,8.06-3.59,12.21a15.3,15.3,0,0,0-.06,3.1,8.74,8.74,0,0,0,.16,1.54,12.46,12.46,0,0,0,.31,1.5,11.49,11.49,0,0,0,3,5.23c2.93,2.88,7.18,4.27,11.32,4.55a16.65,16.65,0,0,0,6.13-.79,11.52,11.52,0,0,0,5-3.52c2.68-3.22,3.91-7.44,5.25-11.5l3.9-12.32.09-.27H661Z"/><path class="cls-1" d="M687.5,104.65c-.89-3.49-1.78-7-2.6-10.49s-1.53-7-2.26-10.58h.41c-.7,4.65-1.34,9.32-2.39,13.93-.51,2.31-1.17,4.59-1.79,6.85l-1.89,6.8q-1.89,6.81-3.88,13.57t-4,13.52l-.93-1.25c2.45,0,4.9,0,7.36.06l7.36.11,14.72.31-.47.63-4.7-16.76C690.81,115.77,689.16,110.21,687.5,104.65Zm0,0q2.54,8.32,5.16,16.62L698,137.83l.2.61h-.66l-14.72.31-7.36.11c-2.46,0-4.91.07-7.36.07h-1.3l.37-1.25c1.31-4.52,2.67-9,4-13.52s2.78-9,4.21-13.46l2.17-6.72c.72-2.24,1.46-4.46,2.06-6.72,1.23-4.51,2.06-9.14,2.95-13.76l.23-1.16.18,1.16q.84,5.34,2,10.63C685.77,97.66,686.64,101.15,687.5,104.65Z"/><path class="cls-1" d="M894,133.7a96.53,96.53,0,0,1,12.71,1A50.2,50.2,0,0,1,919,138.21a37.56,37.56,0,0,1,10.63,7,29.36,29.36,0,0,1,7.1,10.54A33.52,33.52,0,0,1,939,168.3,37.89,37.89,0,0,1,937,180.91a26,26,0,0,1-7.07,10.63,32.9,32.9,0,0,1-5.2,3.81,53.12,53.12,0,0,1-5.75,2.87l0-.75a56.51,56.51,0,0,1,9.52,6.05,34.14,34.14,0,0,1,7.6,8.43,31.7,31.7,0,0,1,4.17,10.57l.3,1.4c.07.46.11.94.17,1.41.09.95.26,1.89.28,2.84,0,1.9.11,3.8,0,5.69a40.77,40.77,0,0,1-2.2,11.17,36.59,36.59,0,0,1-5.5,10,42.07,42.07,0,0,1-8.14,8A38.15,38.15,0,0,1,915,268.29c-7.25,2.49-14.93,3.06-22.44,3-3.76,0-7.5-.13-11.24-.24l-11.22-.35L847.63,270c-3.75-.19-7.78-.72-11.18-2.9a14.45,14.45,0,0,1-2.35-1.86,18.76,18.76,0,0,1-1.91-2.25,15.52,15.52,0,0,1-2.43-5.37,39.64,39.64,0,0,1-.72-11.4l.42-11.21.84-22.43L832,167.71l.42-11.21a89.62,89.62,0,0,1,.8-11.21,18.13,18.13,0,0,1,1.72-5.37,13.22,13.22,0,0,1,3.62-4.31,14.35,14.35,0,0,1,5.05-2.48,25.62,25.62,0,0,1,5.57-.79c1.88-.09,3.75,0,5.62,0l5.61.19,11.21.37Zm0,0-22.43-.64-11.22-.32-5.61-.16c-1.87-.06-3.73-.11-5.6,0a25,25,0,0,0-5.51.82,14,14,0,0,0-4.94,2.45,13,13,0,0,0-3.52,4.23,17.74,17.74,0,0,0-1.62,5.29,90.27,90.27,0,0,0-.65,11.17l-.28,11.22-1.11,44.87L831,235l-.28,11.21a38.69,38.69,0,0,0,.72,10.91,14.07,14.07,0,0,0,2.19,4.78,17.18,17.18,0,0,0,1.73,2,12.27,12.27,0,0,0,2,1.6c3,1.9,6.66,2.41,10.31,2.57l22.42.65c7.47.17,15,.57,22.4.65s14.89-.48,21.84-2.84a35.91,35.91,0,0,0,9.74-4.94,40.07,40.07,0,0,0,7.82-7.63,34.85,34.85,0,0,0,5.39-9.51,39.61,39.61,0,0,0,2.25-10.74c.17-1.85.12-3.69.11-5.53,0-.92-.16-1.83-.24-2.74-.05-.46-.08-.92-.14-1.37l-.27-1.35a30.62,30.62,0,0,0-3.89-10.24,33.22,33.22,0,0,0-7.26-8.25,55.61,55.61,0,0,0-9.31-6.08l-.75-.41.79-.33a53.39,53.39,0,0,0,5.7-2.75,33.66,33.66,0,0,0,5.13-3.66,25.66,25.66,0,0,0,7-10.32,37.47,37.47,0,0,0,2.19-12.43,33,33,0,0,0-2.19-12.44,29,29,0,0,0-7-10.49,37.12,37.12,0,0,0-10.54-7,50.34,50.34,0,0,0-12.22-3.53A96.3,96.3,0,0,0,894,133.7Z"/><path class="cls-1" d="M863.24,158.13l-.06,14c0,4.62-.06,9.16-.11,13.7l-.67-.71q13.47.21,26.94.56a46.51,46.51,0,0,0,6.59-.19,17.61,17.61,0,0,0,6.09-1.73,9.64,9.64,0,0,0,4.26-4.26,15.83,15.83,0,0,0,1.44-6.1,15.36,15.36,0,0,0-1-6.17,10,10,0,0,0-4-4.6,18.16,18.16,0,0,0-6-2.25,40.78,40.78,0,0,0-6.57-.73C881.35,159.22,872.45,158.64,863.24,158.13Zm0,0c8.75,0,17.8,0,27,.15a42.73,42.73,0,0,1,6.83.57,19.27,19.27,0,0,1,6.6,2.31,11.83,11.83,0,0,1,4.79,5.32,16.59,16.59,0,0,1,1.23,7,17.54,17.54,0,0,1-1.61,6.92,11.63,11.63,0,0,1-5.08,5.14,19.31,19.31,0,0,1-6.8,1.91,48,48,0,0,1-6.87.17q-13.47-.48-26.92-1.11l-.71,0,0-.68c.23-4.69.46-9.38.75-14Z"/><path class="cls-1" d="M861.62,210l-.12,17.51c0,2.89-.07,5.74-.1,8.6l-.13,8.56-.7-.74c4.84.07,9.69.15,14.53.3,2.42,0,4.85.15,7.24.16s4.81,0,7.21-.17a30.21,30.21,0,0,0,7-1,19.49,19.49,0,0,0,6.21-2.93,13.4,13.4,0,0,0,4.28-5.16,17.93,17.93,0,0,0,1.55-6.66,15.24,15.24,0,0,0-1.06-6.76,13.28,13.28,0,0,0-3.81-5.58,16.59,16.59,0,0,0-6.07-3.22,35.44,35.44,0,0,0-7-1.29Zm0,0,14.43.08c2.43,0,4.88,0,7.34.06s4.88,0,7.33.21a36,36,0,0,1,7.32,1.13,18,18,0,0,1,6.75,3.37,15,15,0,0,1,4.35,6.23,17,17,0,0,1,1.26,7.47,19.91,19.91,0,0,1-1.66,7.4,15.45,15.45,0,0,1-4.84,5.94c-4.15,3.1-9.39,4.1-14.25,4.22-2.44.1-4.89.14-7.33.1s-4.85-.16-7.28-.24c-4.84-.15-9.68-.37-14.52-.6l-.73,0,0-.7.41-8.77c.15-2.92.27-5.84.44-8.72Z"/><path class="cls-1" d="M1026.4,206.47l2.67,27.57-.17-.14,35.49-3.44,8.87-.86,4.44-.43a33.59,33.59,0,0,1,4.5-.2,13.43,13.43,0,0,1,8.46,3.25,12.17,12.17,0,0,1,3.93,8.18,14.88,14.88,0,0,1-.3,4.6,11.53,11.53,0,0,1-2,4.2,12.3,12.3,0,0,1-3.48,3.07,13.94,13.94,0,0,1-4.33,1.61,38.82,38.82,0,0,1-4.48.61l-4.44.42-8.87.84-35.5,3.35.68-.81,3.25,34.51-.92-.76,30.81-2.85,15.4-1.42,7.7-.71a30.89,30.89,0,0,1,8,.18,12.07,12.07,0,0,1,3.88,1.48,11.66,11.66,0,0,1,3.11,2.78,14,14,0,0,1,3.11,7.53,13.38,13.38,0,0,1-1.71,8,12.52,12.52,0,0,1-6.24,5.31,27.35,27.35,0,0,1-7.84,1.46l-7.7.72-15.4,1.42-30.79,2.82-15.41,1.39a32.82,32.82,0,0,1-4,.14,16.43,16.43,0,0,1-2.06-.23c-.66-.18-1.34-.31-2-.54a12.23,12.23,0,0,1-6.51-5,18.93,18.93,0,0,1-2.6-7.65c-.35-2.64-.51-5.17-.76-7.75l-1.39-15.4L999,252.92l-2.78-30.81-1.39-15.4-.67-7.72a21.37,21.37,0,0,1,.67-8,11.38,11.38,0,0,1,4.94-6.43,19.37,19.37,0,0,1,7.64-2.34c1.28-.19,2.58-.34,3.86-.44l3.85-.34,7.71-.67,30.82-2.72,15.4-1.36,7.71-.68a32.12,32.12,0,0,1,7.84,0,13.67,13.67,0,0,1,2,.44,8.46,8.46,0,0,1,1.86.84,12.19,12.19,0,0,1,3.09,2.54,13.43,13.43,0,0,1,3.15,7.23,13.86,13.86,0,0,1-1,7.8,11.56,11.56,0,0,1-5.72,5.34,24.13,24.13,0,0,1-7.63,1.63l-7.68.66-15.38,1.31Zm0,0,30.73-3,15.42-1.5,7.72-.75a23.71,23.71,0,0,0,7.41-1.66,10.82,10.82,0,0,0,5.3-5.06,13,13,0,0,0,.82-7.34,12.45,12.45,0,0,0-3-6.7,11.13,11.13,0,0,0-2.88-2.32,8.77,8.77,0,0,0-1.66-.74,15.32,15.32,0,0,0-1.81-.4,31.65,31.65,0,0,0-7.59.09l-7.69.73-15.39,1.45L1023,182.21l-7.7.73-3.84.36c-1.3.1-2.55.26-3.82.45a17.92,17.92,0,0,0-7,2.18,9.77,9.77,0,0,0-4.23,5.58,19.87,19.87,0,0,0-.55,7.36l.71,7.69L998,222l2.84,30.8,2.85,30.79,1.42,15.4c.25,2.56.43,5.17.76,7.65a17,17,0,0,0,2.33,6.87,10.27,10.27,0,0,0,5.52,4.22,16.54,16.54,0,0,0,7.25.52l15.39-1.42,30.81-2.8,15.4-1.39,7.7-.69a26.39,26.39,0,0,0,7.31-1.32,10.69,10.69,0,0,0,5.33-4.52,11.53,11.53,0,0,0,1.47-6.88,12.14,12.14,0,0,0-2.7-6.55,9.71,9.71,0,0,0-5.92-3.61,29.84,29.84,0,0,0-7.46-.17l-7.7.7L1065.16,291l-30.8,2.78-.85.07-.07-.84-3-34.54-.07-.75.75-.06,35.51-3.13,8.88-.78,4.44-.4a38.87,38.87,0,0,0,4.35-.56,12.8,12.8,0,0,0,4-1.45,11.4,11.4,0,0,0,3.18-2.76,10.46,10.46,0,0,0,1.81-3.79,13.46,13.46,0,0,0,.31-4.25A11.08,11.08,0,0,0,1090,233a12.41,12.41,0,0,0-7.83-3.09,32.36,32.36,0,0,0-4.39.14l-4.44.38-8.88.76-35.52,3.05h-.16v-.15Z"/><path class="cls-1" d="M1337.79,199.62l-24-13.91.21-.05-17.9,30.83-4.48,7.71-2.24,3.85a32.58,32.58,0,0,1-2.46,3.78,13.46,13.46,0,0,1-7.57,5,12.19,12.19,0,0,1-8.94-1.57,14.73,14.73,0,0,1-3.56-2.94,11.65,11.65,0,0,1-2.25-4.06,12.48,12.48,0,0,1-.47-4.62,14.13,14.13,0,0,1,1.22-4.46,37.85,37.85,0,0,1,2.12-4l2.24-3.85,4.5-7.7,18-30.79.27,1-29.94-17.49,1.17-.3-15.66,26.68-7.83,13.35-3.91,6.67a31.52,31.52,0,0,1-4.78,6.36,12.22,12.22,0,0,1-3.48,2.29,11.91,11.91,0,0,1-4.06.91,14.07,14.07,0,0,1-7.94-1.87,13.37,13.37,0,0,1-5.49-6.05,12.56,12.56,0,0,1-.69-8.17,27.87,27.87,0,0,1,3.39-7.22l3.91-6.67L1225,169l15.67-26.67,7.86-13.33a32.3,32.3,0,0,1,2.21-3.31,14.32,14.32,0,0,1,1.39-1.54c.53-.44,1-.91,1.6-1.31a12.27,12.27,0,0,1,7.86-2.37,19,19,0,0,1,7.73,2.35c2.34,1.25,4.49,2.6,6.73,3.9l13.32,7.85L1316,150.29l26.64,15.7,13.33,7.85,6.66,4a21.42,21.42,0,0,1,6.08,5.18,11.41,11.41,0,0,1,2.34,7.77,19.47,19.47,0,0,1-2.55,7.57c-.6,1.15-1.23,2.3-1.9,3.39l-2,3.33-3.94,6.65L1345,238.31l-7.88,13.31-3.94,6.66a32.42,32.42,0,0,1-4.55,6.38,14.68,14.68,0,0,1-1.5,1.33,8.73,8.73,0,0,1-1.77,1,12.06,12.06,0,0,1-3.87,1,13.47,13.47,0,0,1-7.7-1.65A13.82,13.82,0,0,1,1308,261a11.57,11.57,0,0,1-1-7.77,24.27,24.27,0,0,1,3.12-7.14l4-6.63,7.9-13.25Zm0,0-15.51,26.7-7.77,13.4-3.89,6.71a23.41,23.41,0,0,0-3,7,10.85,10.85,0,0,0,1,7.26,13,13,0,0,0,5.48,4.95,12.51,12.51,0,0,0,7.2,1.47,11,11,0,0,0,3.56-1,7.85,7.85,0,0,0,1.57-.91,14.71,14.71,0,0,0,1.38-1.24,31.37,31.37,0,0,0,4.36-6.22l3.89-6.67,7.8-13.35L1359.49,211l3.9-6.67,1.94-3.34c.67-1.11,1.28-2.23,1.86-3.37a17.93,17.93,0,0,0,2.34-7,9.78,9.78,0,0,0-2.08-6.69,19.75,19.75,0,0,0-5.65-4.74l-6.66-3.91-13.34-7.82-26.68-15.65-26.67-15.65-13.34-7.83c-2.23-1.28-4.45-2.66-6.66-3.83a17,17,0,0,0-6.94-2.13,10.39,10.39,0,0,0-6.64,2,16.73,16.73,0,0,0-4.66,5.59l-7.82,13.33L1226.7,170l-7.85,13.32-3.93,6.66a26.32,26.32,0,0,0-3.19,6.71,10.6,10.6,0,0,0,.56,7,11.51,11.51,0,0,0,4.73,5.21,12.22,12.22,0,0,0,6.9,1.63,9.71,9.71,0,0,0,6.38-2.7,29.81,29.81,0,0,0,4.49-6l3.92-6.66,7.85-13.32,15.7-26.63.43-.74.73.44,29.84,17.65.65.39-.38.64-18.17,30.68-4.54,7.67-2.27,3.83a38,38,0,0,0-2.08,3.86,13,13,0,0,0-1.15,4.09,11.41,11.41,0,0,0,.39,4.2,10.53,10.53,0,0,0,2,3.68,13.43,13.43,0,0,0,3.27,2.73,11.1,11.1,0,0,0,8.18,1.5,12.46,12.46,0,0,0,7.08-4.56,31.77,31.77,0,0,0,2.44-3.65l2.28-3.83,4.56-7.66,18.24-30.63.08-.13.13.08Z"/><path class="cls-1" d="M1330.81,125.57c.24,2.93.38,6-.61,8.79a11.24,11.24,0,0,1-2.25,3.81,13.6,13.6,0,0,1-3.47,2.74,13.31,13.31,0,0,1-8.67,1.15,12.33,12.33,0,0,1-7.4-4.63,10.62,10.62,0,0,1-2-4,25,25,0,0,1-.73-4.38l-.75-8.85-1.51-17.68.22.19-60.8,5.32-30.41,2.67c-2.53.2-5,.5-7.67.53a19,19,0,0,1-4-.34,15.33,15.33,0,0,1-3.82-1.22,13.64,13.64,0,0,1-6-5.35,17.16,17.16,0,0,1-2.22-7.66,18.19,18.19,0,0,1,1.1-7.88,14.39,14.39,0,0,1,4.86-6.41,17.13,17.13,0,0,1,7.42-3c2.61-.44,5.14-.54,7.67-.78,10.14-.87,20.28-1.64,30.42-2.44,20.29-1.58,40.56-3.24,60.86-4.72l-.67.78-1.41-18.85-.35-4.72c-.12-1.56-.24-3.16-.21-4.77a20.6,20.6,0,0,1,.58-4.8,12.14,12.14,0,0,1,2.12-4.42,8.84,8.84,0,0,1,.81-.93L1303,33c.33-.25.69-.46,1-.68a5.66,5.66,0,0,1,1.09-.57c.38-.15.75-.34,1.13-.47l1.18-.32a16.13,16.13,0,0,1,2.39-.41,14.74,14.74,0,0,1,4.82.22,11.45,11.45,0,0,1,4.45,1.91,11,11,0,0,1,3.26,3.57,15.82,15.82,0,0,1,1.61,4.53c.31,1.57.49,3.14.66,4.71l.35,4.72,2.91,37.71Zm0,0-3.16-37.68-3.2-37.68L1324,45.5c-.19-1.56-.38-3.12-.71-4.64a15.21,15.21,0,0,0-1.59-4.33,10.44,10.44,0,0,0-3.1-3.31,10.73,10.73,0,0,0-4.2-1.73,13.49,13.49,0,0,0-4.57-.15,14.08,14.08,0,0,0-2.26.42l-1.11.31c-.35.13-.69.31-1,.45a4.94,4.94,0,0,0-1,.53c-.31.22-.64.41-.94.63l-.83.76a7.35,7.35,0,0,0-.72.85,11.37,11.37,0,0,0-1.89,4.08,20.42,20.42,0,0,0-.49,4.56c0,1.55.13,3.1.27,4.67l.42,4.71,1.65,18.84.06.71-.73.07c-20.26,1.81-40.54,3.45-60.81,5.16-10.14.84-20.28,1.72-30.42,2.49-2.53.22-5.09.33-7.51.73a15.07,15.07,0,0,0-6.63,2.58,12.52,12.52,0,0,0-4.27,5.57,16.53,16.53,0,0,0-1,7.1,15.5,15.5,0,0,0,1.94,6.87,11.87,11.87,0,0,0,5.2,4.69,13.56,13.56,0,0,0,3.42,1.11,17.39,17.39,0,0,0,3.63.34c2.47,0,5-.27,7.55-.44l30.43-2.27,60.87-4.55.2,0,0,.21,1.36,17.69L1306,129c.27,2.9.73,6,2.6,8.29a12.22,12.22,0,0,0,7.29,4.6,13.24,13.24,0,0,0,8.6-1.09,14.1,14.1,0,0,0,3.47-2.72,11.1,11.1,0,0,0,2.24-3.77C1331.16,131.54,1331,128.5,1330.81,125.57Z"/><path class="cls-1" d="M1175.71,0c2.93,0,6,0,8.72,1.21a11.18,11.18,0,0,1,3.65,2.49,14.31,14.31,0,0,1,2.5,3.66,13.32,13.32,0,0,1,.55,8.72,12.4,12.4,0,0,1-5.12,7.08,10.85,10.85,0,0,1-4.11,1.67,26.38,26.38,0,0,1-4.43.43l-8.88.14-17.74.3.21-.21,1.15,61,.58,30.52c0,2.54.16,5.07,0,7.69a18.91,18.91,0,0,1-.61,3.92,15.63,15.63,0,0,1-1.49,3.73A13.62,13.62,0,0,1,1145,138a17.25,17.25,0,0,1-7.79,1.69,18.33,18.33,0,0,1-7.79-1.64,14.35,14.35,0,0,1-6.06-5.28,17.15,17.15,0,0,1-2.45-7.61c-.26-2.64-.19-5.17-.25-7.71-.18-10.17-.25-20.34-.36-30.52-.19-20.34-.45-40.68-.54-61l.73.72-18.91.11-4.73,0c-1.57,0-3.17,0-4.77-.11a21.55,21.55,0,0,1-4.75-.91,12,12,0,0,1-4.26-2.41,9.14,9.14,0,0,1-.88-.88l-.76-1c-.22-.35-.4-.72-.6-1.08a5.29,5.29,0,0,1-.49-1.12c-.13-.39-.29-.77-.39-1.17l-.24-1.19a15,15,0,0,1-.25-2.41,14.72,14.72,0,0,1,.55-4.8,11.49,11.49,0,0,1,2.21-4.31,11.18,11.18,0,0,1,3.78-3,15.83,15.83,0,0,1,4.63-1.29,47.58,47.58,0,0,1,4.75-.33l4.73,0,37.82-.33Zm0,0-37.82.57-37.81.62-4.72.09c-1.57.07-3.14.16-4.68.38a15.14,15.14,0,0,0-4.42,1.3,10.41,10.41,0,0,0-3.52,2.86,10.72,10.72,0,0,0-2,4.07,13.48,13.48,0,0,0-.46,4.56,13.38,13.38,0,0,0,.26,2.28l.23,1.12c.11.37.26.71.38,1.07a4.8,4.8,0,0,0,.47,1c.18.32.35.66.56,1l.7.87a7.46,7.46,0,0,0,.8.79,11.26,11.26,0,0,0,3.93,2.16,20.2,20.2,0,0,0,4.52.8c1.55.11,3.1.08,4.68.05l4.73-.09,18.9-.36.72,0,0,.73c.42,20.34.67,40.69,1,61,.15,10.17.33,20.34.4,30.52,0,2.54,0,5.1.21,7.54a15.14,15.14,0,0,0,2.13,6.79,12.51,12.51,0,0,0,5.26,4.64,16.61,16.61,0,0,0,7,1.49,15.57,15.57,0,0,0,7-1.46,11.93,11.93,0,0,0,5-4.87,13.65,13.65,0,0,0,1.34-3.34,17,17,0,0,0,.58-3.59c.18-2.47.08-5,.09-7.56L1151,86.54l-.38-61v-.2h.21l17.74-.14,8.87-.1c2.92-.07,6-.32,8.45-2a12.2,12.2,0,0,0,5.09-7,13.27,13.27,0,0,0-.5-8.66A13.85,13.85,0,0,0,1188,3.76a11.14,11.14,0,0,0-3.61-2.5C1181.69.06,1178.65,0,1175.71,0Z"/></g></g></svg>