<svg xmlns="http://www.w3.org/2000/svg" viewBox="0 0 1456.07 1172.1"><defs><style>.cls-1{fill:#fff;}.cls-2{fill:none;stroke:#000;stroke-miterlimit:10;}</style></defs><title>Element 10</title><g id="Ebene_2" data-name="Ebene 2"><g id="Ebene_1-2" data-name="Ebene 1"><path class="cls-1" d="M189.43,700.23V998.91c0,95.21,235.14,172.39,525.19,172.39s525.19-77.18,525.19-172.39V700.23"/><path d="M189.53,700.23l.2,220.57.05,55.14,0,13.78c0,4.59-.09,9.21.19,13.75a65.31,65.31,0,0,0,2.68,13.41,77.11,77.11,0,0,0,5.44,12.56,102,102,0,0,0,16.57,21.78,167.59,167.59,0,0,0,20.87,17.86c14.83,10.81,31,19.71,47.57,27.55a510.25,510.25,0,0,0,51.07,20.56q26.06,8.93,52.76,15.84a1040.45,1040.45,0,0,0,108,21.84c36.33,5.5,72.9,9.33,109.55,11.89s73.4,3.76,110.14,3.74,73.49-1.3,110.13-3.91,73.21-6.5,109.52-12.06a1039.6,1039.6,0,0,0,107.92-21.91q26.64-7,52.71-15.87a508.33,508.33,0,0,0,51-20.57c16.57-7.82,32.71-16.69,47.52-27.47a168.27,168.27,0,0,0,20.82-17.79,102.29,102.29,0,0,0,16.52-21.68,75.89,75.89,0,0,0,5.41-12.49,64.23,64.23,0,0,0,2.67-13.31c.28-4.5.18-9.13.21-13.72l0-13.78.09-55.14.19-110.29.35-110.28h.2l.36,110.28.18,110.29.09,55.14,0,13.78c0,4.6.11,9.17-.16,13.84a66.28,66.28,0,0,1-2.7,13.68,78.09,78.09,0,0,1-5.49,12.79,103.68,103.68,0,0,1-16.72,22.1,169.24,169.24,0,0,1-21,18c-14.9,10.92-31.1,19.89-47.73,27.81a510.6,510.6,0,0,1-51.22,20.65q-26.11,9-52.86,15.91a1042,1042,0,0,1-108.13,21.94c-36.37,5.5-73,9.33-109.68,11.89s-73.48,3.75-110.26,3.72-73.55-1.29-110.24-3.89-73.29-6.5-109.65-12.06a1041.2,1041.2,0,0,1-108.07-22q-26.68-7-52.82-15.94a507.19,507.19,0,0,1-51.15-20.67c-16.61-7.89-32.8-16.84-47.67-27.72a168.51,168.51,0,0,1-21-18,103.32,103.32,0,0,1-16.66-22,77.23,77.23,0,0,1-5.48-12.71,65.44,65.44,0,0,1-2.68-13.58c-.28-4.63-.16-9.21-.18-13.81V975.94l0-55.14.2-220.57Z"/><path d="M570.55,806.31A94.67,94.67,0,0,1,567.62,830a79.18,79.18,0,0,1-9.29,22,58.37,58.37,0,0,1-16.24,17.47,39.5,39.5,0,0,1-45.5.3A57.84,57.84,0,0,1,480,852.36a80,80,0,0,1-9.52-22.14,93.47,93.47,0,0,1,0-47.82A80.3,80.3,0,0,1,480,760.26a57.9,57.9,0,0,1,16.64-17.4,39.52,39.52,0,0,1,45.5.31,58.24,58.24,0,0,1,16.24,17.47,79.18,79.18,0,0,1,9.29,22A94.67,94.67,0,0,1,570.55,806.31Zm0,0a94.32,94.32,0,0,0-3.07-23.65,79.44,79.44,0,0,0-9.4-21.87,56.94,56.94,0,0,0-16.34-17.09,38.48,38.48,0,0,0-44.39.31,57.46,57.46,0,0,0-16,17.16,78.67,78.67,0,0,0-9.17,21.7,96.18,96.18,0,0,0,0,46.88,78.37,78.37,0,0,0,9.17,21.7,57.12,57.12,0,0,0,16,17.17,38.53,38.53,0,0,0,44.39.31,56.73,56.73,0,0,0,16.34-17.1,79.31,79.31,0,0,0,9.4-21.87A94.32,94.32,0,0,0,570.55,806.31Z"/><path d="M960.33,806.31A94.68,94.68,0,0,1,957.39,830a79.18,79.18,0,0,1-9.29,22,58.37,58.37,0,0,1-16.24,17.47,39.5,39.5,0,0,1-45.5.3,57.84,57.84,0,0,1-16.63-17.39,80.33,80.33,0,0,1-9.52-22.14,93.47,93.47,0,0,1,0-47.82,80,80,0,0,1,9.52-22.14,57.75,57.75,0,0,1,16.63-17.4,39.52,39.52,0,0,1,45.5.31,58.24,58.24,0,0,1,16.24,17.47,79.18,79.18,0,0,1,9.29,22A94.68,94.68,0,0,1,960.33,806.31Zm0,0a94.79,94.79,0,0,0-3.08-23.65,79.42,79.42,0,0,0-9.39-21.87,57,57,0,0,0-16.35-17.09,38.47,38.47,0,0,0-44.38.31,57.2,57.2,0,0,0-16,17.16,78.7,78.7,0,0,0-9.18,21.7,96.18,96.18,0,0,0,0,46.88,78.67,78.67,0,0,0,9.17,21.7,57.25,57.25,0,0,0,16,17.17,38.53,38.53,0,0,0,44.39.31,56.89,56.89,0,0,0,16.35-17.1A79,79,0,0,0,957.25,830,94.33,94.33,0,0,0,960.33,806.31Z"/><path d="M842.77,1047.48a180.6,180.6,0,0,0,14.77-20.64,129.14,129.14,0,0,0,11.26-22.72c2.88-7.93,4.89-16.33,4.54-24.81A37.53,37.53,0,0,0,870.8,967a30.71,30.71,0,0,0-2.88-5.62,25,25,0,0,0-4.14-4.75,30.18,30.18,0,0,0-11-6,55.06,55.06,0,0,0-12.43-2.23c-8.44-.6-16.9.09-25.32.92-16.87,1.6-33.69,3.53-50.56,5.18s-33.79,2.93-50.77,3.09-33.93-.86-50.82-2.33-33.72-3.38-50.59-4.91c-8.43-.8-16.84-1.65-25.24-1.43a67.87,67.87,0,0,0-12.43,1.37,35.42,35.42,0,0,0-11.47,4.44,23.91,23.91,0,0,0-8.36,8.71,34.34,34.34,0,0,0-3.9,11.65c-1.24,8.21.16,16.66,2.64,24.63a115.77,115.77,0,0,0,10.36,22.93,176.88,176.88,0,0,0,14.21,20.88c2.57,3.35,5.44,6.44,8.19,9.64.34.39.68.8,1,1.19l1.1,1.13,2.21,2.26,2.2,2.27,1.11,1.13,1.16,1.07,4.65,4.29,1.17,1.07,1.21,1,2.44,2,2.45,2,1.22,1,1.27.94,5.09,3.76,1.27.94,1.32.87,2.65,1.73,2.64,1.74,1.33.87,1.36.8,5.47,3.18c.9.55,1.84,1,2.78,1.51l2.82,1.45c3.71,2,7.61,3.64,11.46,5.38,1.93.86,3.93,1.54,5.89,2.32s3.93,1.54,6,2.14l6,1.94c2,.6,4.08,1.09,6.12,1.65l3.06.8c1,.24,2.07.43,3.1.65l6.21,1.27,6.27.93c1,.14,2.09.32,3.13.44l3.16.28c2.11.18,4.21.42,6.32.53l6.33.21c2.12.12,4.23,0,6.34,0l3.17-.08c1.06,0,2.12,0,3.17-.16l6.32-.52,1.58-.13,1.57-.22,3.14-.44c4.21-.48,8.34-1.41,12.49-2.21,2.08-.43,4.11-1,6.16-1.52l3.08-.8c1-.25,2-.62,3-.92l6.05-1.92c2-.7,4-1.48,5.95-2.22l3-1.12c1-.41,1.94-.85,2.91-1.27l5.81-2.56,5.66-2.87,2.83-1.44,2.75-1.58,5.5-3.18,5.32-3.46c.88-.59,1.79-1.14,2.65-1.75l2.57-1.87c1.7-1.25,3.43-2.48,5.12-3.76l4.92-4c.81-.68,1.65-1.33,2.45-2l2.34-2.13c1.56-1.44,3.15-2.84,4.69-4.29l4.45-4.53c.74-.76,1.49-1.51,2.22-2.27l2.1-2.39Zm0,0-4.19,4.78-2.09,2.39c-.72.78-1.48,1.52-2.21,2.28l-4.45,4.54c-1.53,1.46-3.11,2.87-4.67,4.31l-2.34,2.15c-.79.7-1.63,1.35-2.44,2l-4.92,4c-1.68,1.28-3.4,2.51-5.11,3.77l-2.56,1.88c-.86.61-1.77,1.17-2.65,1.76l-5.32,3.48-5.49,3.2-2.75,1.59-2.83,1.45-5.66,2.89-5.81,2.58c-1,.43-1.93.87-2.91,1.28l-3,1.13c-2,.75-3.95,1.53-5.95,2.24l-6.05,1.94c-1,.31-2,.68-3,.93l-3.08.81c-2,.51-4.09,1.12-6.16,1.56-4.16.83-8.29,1.79-12.5,2.31l-3.15.46-1.58.24-1.58.14-6.34.57c-1.05.12-2.11.15-3.17.18l-3.18.1c-2.12.06-4.24.19-6.36.08l-6.37-.16c-2.12-.1-4.23-.33-6.35-.48l-3.17-.27c-1-.11-2.1-.28-3.15-.42l-6.31-.88-6.25-1.23c-1-.21-2.09-.4-3.12-.63l-3.09-.79c-2.05-.54-4.12-1-6.16-1.61l-6.08-1.9c-2-.6-4-1.38-6-2.12s-4-1.44-5.94-2.29c-3.89-1.72-7.83-3.33-11.58-5.33l-2.85-1.43c-1-.47-1.9-1-2.81-1.5l-5.53-3.17-1.38-.8-1.34-.86-2.68-1.73-2.68-1.73-1.33-.87-1.29-.94-5.17-3.75-1.28-.94-1.24-1-2.48-2-2.47-2-1.24-1-1.18-1.07-4.73-4.29-1.18-1.07-1.12-1.14-2.24-2.27-2.24-2.27-1.13-1.13c-.36-.39-.7-.8-1.06-1.19-2.8-3.2-5.7-6.33-8.3-9.69a180.18,180.18,0,0,1-14.42-21.06,116.77,116.77,0,0,1-10.58-23.26c-2.55-8.14-4.05-16.85-2.78-25.47a36,36,0,0,1,4.1-12.33,25.66,25.66,0,0,1,9-9.44,37.6,37.6,0,0,1,12.12-4.67A70.89,70.89,0,0,1,587,947c8.56-.2,17,.69,25.47,1.52,16.87,1.58,33.71,3.51,50.56,5s33.75,2.72,50.67,2.67,33.81-1.21,50.68-2.72,33.71-3.33,50.59-4.81c8.43-.77,16.93-1.4,25.41-.73a54.9,54.9,0,0,1,12.51,2.33,30.92,30.92,0,0,1,11.11,6.1,25.89,25.89,0,0,1,4.17,4.82,30.93,30.93,0,0,1,2.9,5.67,37.87,37.87,0,0,1,2.51,12.44c.33,8.51-1.7,16.92-4.61,24.86a130.42,130.42,0,0,1-11.33,22.71A182.31,182.31,0,0,1,842.77,1047.48Z"/><path class="cls-1" d="M245.55,731.33l26.64,25.73,13.67,34.18v24.09l13.5,26,20.19,26v-150h17.31l38.69,48,8,25.91,31.05-7.91,14.95,24,41.56-90,55.33-41,14.07,20,47,12.11v22.91l26,10.73s8,38.25,11,39.76,19,16.84,19,16.84l29.34-21.33,40.66,17.33,14.91,2,27.09-31.33,39.34,12,131.32-92.67,30.68,23.76,34.66-31.76,36,39.33,34-24,111.34,50.07,46.66-65.75,13.65,1.74a62.22,62.22,0,0,0,6.61-27.43c0-95.21-235.13-172.39-525.19-172.39S189.43,555.41,189.43,650.62c0,11.9,3.68,23.52,10.67,34.74"/><path d="M246.25,730.61l26.63,25.74.15.15.08.19,13.66,34.19.06.18v24.27l-.11-.45,13.49,26-.1-.15,20.19,26-1.69.58.06-150v-.89h18.61l.27.32,38.67,48,.11.13.05.15,8,25.92-1-.57,31.06-7.9.59-.16.33.52,14.94,24-1.46.09,41.59-90,.09-.18.16-.12,55.34-41,.64-.47.45.65,14.06,20-.43-.3,47,12.12.57.14v23.5l-.46-.69,26,10.74.36.15.08.38q1.72,8.16,3.65,16.29c1.29,5.41,2.62,10.81,4.21,16.12.4,1.32.82,2.64,1.3,3.92.24.64.49,1.27.77,1.86a6.68,6.68,0,0,0,.46.81,1.76,1.76,0,0,0,.21.26l.36.21a35.32,35.32,0,0,1,3.39,2.62c1.07.91,2.12,1.83,3.16,2.76,4.17,3.72,8.23,7.54,12.27,11.39l-.91-.06,29.34-21.33.32-.23.36.16L713.82,794l-.17,0,14.9,2-.6.23,27.11-31.32.28-.33.41.13,39.33,12-.56.09,131.36-92.62.35-.25.34.27L957.24,708l-.74,0,34.68-31.74.41-.38.38.41,36,39.35-.71-.08,34-24,.25-.17.27.12,111.31,50.1-.58.16,46.69-65.73.15-.22.27,0,13.65,1.74-.46.25a64.92,64.92,0,0,0,5.85-18.14,57.55,57.55,0,0,0-.14-19,65.38,65.38,0,0,0-6.07-18.07,89.51,89.51,0,0,0-10.45-16c-8-10-17.77-18.47-28.08-26.05a265.47,265.47,0,0,0-32.67-20.22c-22.68-12-46.59-21.56-70.89-29.77s-49.11-14.95-74.12-20.73c-50-11.53-100.9-19.19-152-24.21s-102.46-7.26-153.8-7.15a1539.11,1539.11,0,0,0-153.77,7.87c-51.07,5.3-101.91,13.25-151.86,25.19A761.75,761.75,0,0,0,330.89,533c-24.21,8.52-48,18.46-70.39,31a239.66,239.66,0,0,0-32,21.29,157.16,157.16,0,0,0-14.28,12.89A108.64,108.64,0,0,0,202,613.07a77.27,77.27,0,0,0-8.83,17,59.94,59.94,0,0,0-3.66,18.81,59.34,59.34,0,0,0,2.58,19,73.13,73.13,0,0,0,8,17.43,73.16,73.16,0,0,1-8-17.43,59.36,59.36,0,0,1-2.6-19,60.33,60.33,0,0,1,3.65-18.83A77.73,77.73,0,0,1,201.92,613a108.73,108.73,0,0,1,12.22-14.86,154.46,154.46,0,0,1,14.28-12.91,239,239,0,0,1,32-21.33c22.4-12.59,46.18-22.55,70.38-31.09a765.1,765.1,0,0,1,73.93-21.55c49.95-12,100.8-20,151.87-25.3s102.45-7.82,153.81-8,102.73,2.08,153.85,7,102,12.62,152.09,24.12c25,5.77,49.85,12.53,74.2,20.7s48.28,17.76,71,29.76a268.1,268.1,0,0,1,32.78,20.26c10.35,7.61,20.13,16.15,28.24,26.18a90.15,90.15,0,0,1,10.57,16.17,66.4,66.4,0,0,1,6.16,18.3,58.48,58.48,0,0,1,.15,19.31,65.79,65.79,0,0,1-5.91,18.39l-.14.29-.31,0-13.65-1.73.42-.19-46.64,65.77-.23.32-.36-.17-111.35-50,.52-.05-34,24-.38.28-.32-.35-36-39.32.79,0-34.65,31.77-.36.33-.38-.3-30.68-23.74h.69L795.26,777.85,795,778l-.3-.1-39.34-12,.69-.2L729,797.1l-.23.28-.37,0-14.91-2-.09,0-.08,0L672.61,778l.69-.08L644,799.23l-.48.35-.43-.41c-4-3.83-8.09-7.64-12.23-11.34-1-.92-2.08-1.84-3.14-2.73a34.41,34.41,0,0,0-3.21-2.5,3.5,3.5,0,0,1-.53-.33,2.75,2.75,0,0,1-.47-.53,7.36,7.36,0,0,1-.57-1c-.32-.66-.58-1.32-.83-2-.5-1.32-.92-2.66-1.33-4-1.62-5.37-3-10.78-4.25-16.21s-2.51-10.86-3.66-16.32l.43.53-26-10.73-.46-.18V708.42l.57.73-47-12.1L540,697l-.16-.23-14.07-20,1.09.18-55.33,41,.25-.3-41.51,90-.65,1.4-.81-1.31-15-24,.92.37-31.05,7.93-.78.2-.24-.78-8-25.91.16.29-38.72-48,.69.33H319.55l.89-.89.06,150v2.75l-1.69-2.17-20.2-26-.06-.07,0-.07-13.5-26-.11-.21V791.24l.07.37-13.69-34.19.23.35-26.64-25.72Z"/><path d="M714.34,587.56c.15,12.44.2,24.88.22,37.32l0,37.31-.27,37.32L714,718.17l-.32,18.65-.17-18.66-.06-18.65,0-37.32.27-37.32C713.93,612.44,714.08,600,714.34,587.56Z"/><polygon points="644.53 596.18 636.47 774.75 643.54 596.14 644.53 596.18"/><polygon points="655.39 568.5 654.68 590.84 653.88 613.16 652.1 657.82 650.1 702.46 649.01 724.77 647.82 747.09 648.52 724.75 649.33 702.42 651.1 657.77 653.11 613.13 654.2 590.82 655.39 568.5"/><polygon points="560.61 576.11 557 636.44 559.61 576.06 560.61 576.11"/><polygon points="814.71 545.29 815.86 566.65 816.91 588.01 818.84 630.74 820.53 673.48 821.3 694.86 821.96 716.24 820.81 694.88 819.76 673.52 817.84 630.78 816.14 588.04 815.38 566.67 814.71 545.29"/><polygon points="851.79 579.99 854.91 665.48 850.79 580.03 851.79 579.99"/><path d="M776.66,615.06c.51,7.11.91,14.23,1.29,21.35l1,21.36.79,21.38.32,10.69c.06,3.56.17,7.12.2,10.69-.26-3.56-.46-7.12-.69-10.67l-.6-10.68-1-21.36-.78-21.38C777,629.32,776.76,622.19,776.66,615.06Z"/><path d="M1182.83,700.16a113.68,113.68,0,0,0,13.53-14.31A73.89,73.89,0,0,0,1206.43,669a53.54,53.54,0,0,0,4.26-19.1,52.44,52.44,0,0,0-3.18-19.29,70.79,70.79,0,0,0-9.32-17.26,106.53,106.53,0,0,0-13-14.7,185.75,185.75,0,0,0-31.58-23.47,328.15,328.15,0,0,0-35-18.09c-12-5.37-24.26-10.17-36.65-14.55a730,730,0,0,0-75.78-21.83c-51.24-12-103.41-19.66-155.78-24.52a1502.66,1502.66,0,0,0-157.63-6,1444.75,1444.75,0,0,0-157.37,10.57C509.24,504,483.24,508,457.42,513S406,523.87,380.71,531.13s-50.2,15.69-74.2,26.38a325.5,325.5,0,0,0-35,18A184.09,184.09,0,0,0,240,598.93a105.83,105.83,0,0,0-13,14.64,70.06,70.06,0,0,0-9.29,17.16,51.74,51.74,0,0,0-3.16,19.16,53.36,53.36,0,0,0,4.2,19,73.18,73.18,0,0,0,10,16.82,96.75,96.75,0,0,0,6.41,7.45c2.25,2.39,4.61,4.68,7.05,6.88a194.71,194.71,0,0,0,32,22.9l-.1.17a194.25,194.25,0,0,1-32.29-22.66c-2.47-2.18-4.86-4.46-7.14-6.84a98.15,98.15,0,0,1-6.53-7.44,74,74,0,0,1-10.25-16.93,53.9,53.9,0,0,1-4.37-19.31,52.74,52.74,0,0,1,3.13-19.56A71.53,71.53,0,0,1,226,612.87,106.46,106.46,0,0,1,239.12,598a185.67,185.67,0,0,1,31.66-23.7A325.82,325.82,0,0,1,305.84,556c24.05-10.84,49-19.45,74.32-26.81s51-13.21,76.89-18.2,51.91-9,78.05-12.21a1446.33,1446.33,0,0,1,157.59-10.21,1505.35,1505.35,0,0,1,157.77,6.31c52.41,5,104.61,12.77,155.89,24.84a729.17,729.17,0,0,1,75.81,22c12.41,4.41,24.67,9.25,36.68,14.66a328.56,328.56,0,0,1,35,18.22,185.84,185.84,0,0,1,31.61,23.61,106.33,106.33,0,0,1,13.07,14.81,70.91,70.91,0,0,1,9.34,17.38A53,53,0,0,1,1211,649.9a53.79,53.79,0,0,1-4.33,19.2,73.85,73.85,0,0,1-10.16,16.9A112.8,112.8,0,0,1,1183,700.31Z"/><path class="cls-1" d="M1083.23,678.46c30.24-5.32,50.81-15.79,50.81-27.84,0-17.44-43.06-31.57-96.19-31.57s-96.18,14.13-96.18,31.57,43.06,31.57,96.18,31.57"/><path d="M1083.22,678.37a165.49,165.49,0,0,0,23.11-5.79,94.81,94.81,0,0,0,11-4.47,47.47,47.47,0,0,0,10-6.31,22.57,22.57,0,0,0,4-4.31,12.2,12.2,0,0,0,2.21-5.31,10.42,10.42,0,0,0-.74-5.65,16.51,16.51,0,0,0-3.21-4.82,38,38,0,0,0-9.48-6.94,78.89,78.89,0,0,0-10.86-4.76,151,151,0,0,0-23-6.08,234,234,0,0,0-23.59-3.16,290.48,290.48,0,0,0-47.56,0c-7.9.65-15.78,1.68-23.57,3.11a158,158,0,0,0-23,5.91,87.24,87.24,0,0,0-10.89,4.51,44.61,44.61,0,0,0-9.72,6.38,20.83,20.83,0,0,0-3.65,4.33,10.77,10.77,0,0,0-1.66,5.15c-.2,3.64,1.83,7.11,4.57,9.73a39.35,39.35,0,0,0,9.48,6.68,83.86,83.86,0,0,0,10.82,4.71,160.52,160.52,0,0,0,22.91,6.14c7.78,1.55,15.66,2.6,23.56,3.37s15.85,1.2,23.8,1.33v.2q-11.92.16-23.87-.62c-8-.61-15.88-1.51-23.74-2.91q-5.91-1-11.73-2.48c-3.87-1-7.73-2.07-11.51-3.4a87.64,87.64,0,0,1-11.1-4.69,41.35,41.35,0,0,1-10-6.91,18.82,18.82,0,0,1-3.76-5,12.46,12.46,0,0,1-1.39-6.25,12.8,12.8,0,0,1,1.94-6.08,23.12,23.12,0,0,1,4-4.77,46.33,46.33,0,0,1,10.16-6.68A87.83,87.83,0,0,1,968,627.89a160.23,160.23,0,0,1,23.27-5.8c7.87-1.38,15.81-2.35,23.76-2.94a291.3,291.3,0,0,1,47.81.33,236.17,236.17,0,0,1,23.68,3.32,152.82,152.82,0,0,1,23.1,6.27,79.33,79.33,0,0,1,10.94,4.91,38.83,38.83,0,0,1,9.63,7.18,17.21,17.21,0,0,1,3.32,5.09,11.1,11.1,0,0,1,.75,6,13.1,13.1,0,0,1-2.37,5.58,23.64,23.64,0,0,1-4.13,4.4,48,48,0,0,1-10.18,6.3,94.82,94.82,0,0,1-11.12,4.4,165,165,0,0,1-23.2,5.6Z"/><path class="cls-1" d="M346.18,622.75c-30.33,5.31-51,15.8-51,27.87,0,17.44,43.06,31.57,96.18,31.57s96.18-14.13,96.18-31.57"/><path d="M346.2,622.85c-5.64,1-11.24,2.26-16.75,3.83a109.11,109.11,0,0,0-16.12,5.82,59.79,59.79,0,0,0-7.5,4.1,31.78,31.78,0,0,0-6.49,5.44,13.79,13.79,0,0,0-3.61,7.38,9.37,9.37,0,0,0,0,2.05,10,10,0,0,0,.37,2,5.62,5.62,0,0,0,.35,1,6.59,6.59,0,0,0,.4.95,14,14,0,0,0,1.06,1.79,25.08,25.08,0,0,0,6,5.87,48.22,48.22,0,0,0,7.3,4.33,99.13,99.13,0,0,0,16,6,197.72,197.72,0,0,0,33.64,6.31,281.63,281.63,0,0,0,34.24,1.42q8.56-.13,17.12-.77c5.69-.4,11.38-1,17-1.76a173.15,173.15,0,0,0,33.33-7.52,70.82,70.82,0,0,0,15.39-7.26,28.5,28.5,0,0,0,6.41-5.53,13.09,13.09,0,0,0,3.14-7.71h.2a13.53,13.53,0,0,1-2.9,8.06,29.74,29.74,0,0,1-6.33,5.94A71.71,71.71,0,0,1,463,672.43a137,137,0,0,1-16.56,5c-5.61,1.33-11.27,2.38-17,3.23s-11.42,1.43-17.16,1.85-11.5.62-17.25.68a283.1,283.1,0,0,1-34.44-1.81,199,199,0,0,1-33.83-6.65,100.4,100.4,0,0,1-16.11-6.26,49,49,0,0,1-7.43-4.5,26,26,0,0,1-6.17-6.18,16.4,16.4,0,0,1-1.11-1.91,10.11,10.11,0,0,1-.42-1,8.33,8.33,0,0,1-.37-1.06,11.78,11.78,0,0,1-.38-2.2,10.48,10.48,0,0,1,0-2.24,14.58,14.58,0,0,1,3.9-7.8,32.06,32.06,0,0,1,6.71-5.49,59.36,59.36,0,0,1,7.63-4.06,110.63,110.63,0,0,1,16.26-5.67c5.55-1.5,11.17-2.68,16.82-3.64Z"/><path d="M1223.32,917.22l-.4-49.23-.3-49.24c-.11-16.41-.34-32.82-.2-49.24s.32-32.82.9-49.23h.2c.57,16.41.71,32.82.9,49.23s-.1,32.83-.2,49.24l-.3,49.24-.4,49.23Z"/><polygon class="cls-1" points="27.84 184.75 27.84 242.43 137.24 234.47 139.23 194.69 87.51 139 115.36 135.03 119.34 97.23 93.48 53.48 27.84 184.75"/><path d="M27.85,184.75l.41,57.68-.44-.41,54.67-4.24,54.68-4.16-.79.81,1.94-39.78.24.66L86.79,139.67l-1.29-1.38,1.87-.27,27.85-3.94-.81.84,4-37.78.12.55L92.78,53.89l1.42,0L61.15,119.29Zm0,0,32.33-65.81L92.76,53.12l.66-1.34.76,1.29,25.93,43.71.15.25,0,.3-3.93,37.79-.07.74-.74.11-27.84,4,.59-1.65,51.65,55.74.27.29,0,.38-2,39.77,0,.77-.76.05-54.71,3.79-54.71,3.72-.45,0v-.44Z"/><polygon class="cls-1" points="0 453.25 59.67 419.44 97.46 479.11 95.47 614.36 0 453.25"/><path d="M0,453.26,59.4,419l.45-.26.28.44,38.05,59.5.14.22v.25l-.89,67.63L97,580.56l-.55,33.81-.05,3.31-1.68-2.85L70.79,574.37,47.08,533.9Zm0,0,48.39,80.46,24,40.07,23.86,40.09-1.73.47L95,580.53l.52-33.81,1.1-67.62.14.47L59.21,419.73l.73.19Z"/><polygon class="cls-1" points="1344.53 73.37 1338.56 37.57 1384.3 21.66 1394.25 65.41 1344.53 73.37"/><path d="M1344.52,73.37l-3.32-17.69c-1.15-5.94-2.2-12-3.29-18l-.1-.54.53-.2,11.39-4.11c3.79-1.39,7.61-2.7,11.41-4l22.84-8,1-.36.25,1.07c1.71,7.28,3.28,14.59,4.92,21.89l4.88,21.9.2.88-.88.13-25.11,3.66Zm0,0,25-4.49,24.61-4.29-.69,1-5.06-21.86c-1.67-7.29-3.42-14.56-5-21.87l1.27.71-22.9,7.86c-3.82,1.3-7.63,2.65-11.46,3.91l-11.48,3.84.43-.73c.9,5.91,1.83,11.8,2.67,17.8Z"/><line class="cls-2" x1="802.89" y1="578.12" x2="810.13" y2="749.06"/><polygon class="cls-1" points="1060.11 27.62 1080 21.66 1097.9 27.62 1127.73 13.7 1131.71 27.62 1101.87 113.15 1060.11 27.62"/><path d="M1060.11,27.62l19.8-6.26.09,0,.09,0,18,5.75-.4,0L1127.39,13l.85-.4.26.91,4,13.9.08.26-.09.27-14.81,42.8-15,42.73-.72,2-.93-1.92c-3.47-7.19-7-14.37-10.41-21.58L1080.39,70.4Zm0,0,21.48,42.75,10.61,21.2c3.55,7.05,7,14.12,10.47,21.19l-1.64.09,14.83-42.79,15-42.72,0,.52L1127,13.92l1.11.5-30,13.69-.2.09-.19-.07L1079.9,22h.19Z"/><path class="cls-1" d="M1204.52,607.27c.07-1.18.11-2.37.11-3.58a65.76,65.76,0,0,0-.67-9.41,69.11,69.11,0,0,0,11.34-13.07c10.78-15.82,14.74-33.29,8.84-39s-19.41,2.46-30.18,18.28c-1.18,1.73-2.26,3.48-3.28,5.23-5.16-5.09-11.41-8.08-18.15-8.08a23,23,0,0,0-6.15.85c0-.28,0-.56,0-.85,0-18.44-18.31-33.38-40.9-33.38a46.82,46.82,0,0,0-25.24,7.13c-4-6.78-12.07-11.42-21.38-11.42a27.17,27.17,0,0,0-6.82.87C1070,509.59,1057.75,501,1043,501a35.11,35.11,0,0,0-16.22,3.85c-5-10.77-12.63-17.68-21.24-17.68a17.48,17.48,0,0,0-9.78,3.15c1.41-21.62-3-38.46-12.94-43.49-16.17-8.16-40.88,18-55.18,58.38A183.08,183.08,0,0,0,920.73,530a52.16,52.16,0,0,0-18.8-3.46c-19.7,0-36.63,10.73-44.09,26.09a24.44,24.44,0,0,0-14.78-5.09c-7.38,0-14.09,3.45-19.07,9.07a53,53,0,0,0-3.09-5.5c-15-23.43-43.14-27.84-62.75-9.87-8.45,7.74-13.94,18.38-16.25,29.86a102.08,102.08,0,0,0-33-5.3c-19.8,0-37.7,5.29-50.53,13.81-3.92-25.71-33.06-45.68-68.45-45.68a88.59,88.59,0,0,0-27.67,4.34c-10.58-8.66-25.22-14-41.39-14a69.69,69.69,0,0,0-23.61,4.06A145.51,145.51,0,0,0,489,511.93c-15.63-26.6-35.69-42-44.82-34.32-7.2,6-5.43,24.58,3.3,45.19a49.44,49.44,0,0,0-55.54,8.84c-10.4-21.16-27.83-35-47.6-35-24.9,0-46.11,22-54.19,52.87a43.54,43.54,0,0,0-15.78-2.87c-12.16,0-22.75,4.68-28.19,11.58a141.55,141.55,0,0,0-7.22-14c-16.13-27.45-37.43-42.8-47.58-34.29s-5.32,37.66,10.8,65.11c11.57,19.69,25.8,33.15,36.67,36"/><path d="M1204.52,607.27l.09-3.25c0-1.09,0-2.17-.06-3.26-.1-2.16-.31-4.33-.62-6.47v0h0a75.1,75.1,0,0,0,15.81-20.56,69.72,69.72,0,0,0,5.06-12,35,35,0,0,0,1.83-12.78,11,11,0,0,0-2.06-6,6,6,0,0,0-2.5-1.88,7.36,7.36,0,0,0-3.12-.49,15.5,15.5,0,0,0-6.12,1.83,32.15,32.15,0,0,0-5.42,3.54,59.34,59.34,0,0,0-9.16,9.18c-1.37,1.68-2.66,3.43-3.88,5.21s-2.3,3.68-3.45,5.52l-.19.31-.26-.25A28,28,0,0,0,1179.4,559a22.44,22.44,0,0,0-12.92-.22l-.45.13v-.48a29.23,29.23,0,0,0-1.73-10.39,33.16,33.16,0,0,0-5.38-9.07,39.5,39.5,0,0,0-8-7,46.71,46.71,0,0,0-9.52-4.67,50.39,50.39,0,0,0-21-2.35,45.67,45.67,0,0,0-19.91,6.82l-.46.29-.29-.47a21.28,21.28,0,0,0-5.19-5.84,23.61,23.61,0,0,0-6.87-3.77,26.93,26.93,0,0,0-15.53-.65l-.6.15-.12-.6a20.25,20.25,0,0,0-2.37-6.19,22.5,22.5,0,0,0-4.21-5.17,30.32,30.32,0,0,0-11.65-6.5,37.4,37.4,0,0,0-13.35-1.35,34,34,0,0,0-12.87,3.67l-.61.32-.29-.62a43.39,43.39,0,0,0-5-8.33,26.26,26.26,0,0,0-7.09-6.46,16.58,16.58,0,0,0-9-2.46,17.06,17.06,0,0,0-8.89,3l-1.17.78.07-1.42c.17-3.32.32-6.65.2-10,0-1.66-.15-3.32-.23-5s-.29-3.31-.56-4.94a51.66,51.66,0,0,0-2.21-9.64,29.5,29.5,0,0,0-4.45-8.66,14.71,14.71,0,0,0-7.65-5.44,13,13,0,0,0-4.7-.46,19.26,19.26,0,0,0-2.37.32c-.77.23-1.56.37-2.32.68a31.29,31.29,0,0,0-8.52,4.73,59.07,59.07,0,0,0-7.31,6.67A101.23,101.23,0,0,0,943,474.46a150.12,150.12,0,0,0-9.27,17.68,182.33,182.33,0,0,0-12.13,38l-.21,1-1-.37a51.54,51.54,0,0,0-17.58-3.38,52.59,52.59,0,0,0-17.68,2.78,49.6,49.6,0,0,0-8.17,3.69c-1.33.69-2.55,1.57-3.81,2.37-.61.43-1.2.9-1.8,1.34l-.9.68-.84.73a44.55,44.55,0,0,0-6.22,6.44,45.42,45.42,0,0,0-4.76,7.57l-.5,1-.86-.65a24.64,24.64,0,0,0-8.08-4,22.59,22.59,0,0,0-9-.68,23.61,23.61,0,0,0-8.55,2.85,27.92,27.92,0,0,0-7,5.74l-.9,1-.61-1.21a45.5,45.5,0,0,0-3.51-6.06l-2-2.85a11,11,0,0,0-1.09-1.36l-1.15-1.31-1.15-1.32a16,16,0,0,0-1.25-1.22c-.86-.78-1.68-1.6-2.56-2.36l-2.78-2.11-.7-.52-.74-.45-1.49-.9-1.5-.89-1.57-.74-1.58-.73-.79-.37-.82-.27-3.3-1.1-3.39-.73a38.55,38.55,0,0,0-13.8.19c-9.11,1.87-17.25,7.27-23.29,14.32a55.88,55.88,0,0,0-11.83,25l-.22,1.09-1-.36a103.49,103.49,0,0,0-42.34-4.79,100.78,100.78,0,0,0-21,4.15,79.19,79.19,0,0,0-19.31,9l-1.27.84-.25-1.51a43.71,43.71,0,0,0-1.72-6.94,47.6,47.6,0,0,0-2.91-6.53,53,53,0,0,0-3.95-6,55.48,55.48,0,0,0-4.79-5.37,68.16,68.16,0,0,0-24.48-15,86.55,86.55,0,0,0-28.43-5.06,87.88,87.88,0,0,0-28.57,4.25l-.48.16-.4-.32a59.05,59.05,0,0,0-14.46-8.61,61.78,61.78,0,0,0-8-2.76,66.48,66.48,0,0,0-8.28-1.72c-1.39-.23-2.8-.33-4.2-.49s-2.82-.2-4.23-.2a66.33,66.33,0,0,0-8.46.29,68,68,0,0,0-16.49,3.67l-.8.29-.33-.79A143.81,143.81,0,0,0,481,501.23a107.91,107.91,0,0,0-10.08-12.08,56.5,56.5,0,0,0-12.13-9.77,21.42,21.42,0,0,0-7.08-2.7,8.44,8.44,0,0,0-6.83,1.52,11.52,11.52,0,0,0-3.57,6.31,30.46,30.46,0,0,0-.69,7.65,67.78,67.78,0,0,0,2.49,15.44,116.81,116.81,0,0,0,5.18,14.87l.87,2.06-2-1a48.66,48.66,0,0,0-14-4.29,49.27,49.27,0,0,0-14.65.08,48.22,48.22,0,0,0-14,4.45,49.94,49.94,0,0,0-12,8.39l-.75.7-.46-.92c-5.2-10.62-12.69-20.32-22.51-27a45.39,45.39,0,0,0-16.16-6.87l-1.08-.24-1.1-.14-2.19-.29c-.73-.08-1.46-.08-2.2-.12a18,18,0,0,0-2.2-.05c-1.47.1-2.95.11-4.41.28s-2.91.45-4.35.75A45.72,45.72,0,0,0,319,505.56a61.59,61.59,0,0,0-12.81,12.22,79.37,79.37,0,0,0-9.38,15.1,104.08,104.08,0,0,0-6.12,16.74l-.16.61-.59-.23a41.61,41.61,0,0,0-11.4-2.66,45.92,45.92,0,0,0-11.71.43,38.8,38.8,0,0,0-11.14,3.57,27.39,27.39,0,0,0-9.13,7.15l-.51.63-.33-.74a138.74,138.74,0,0,0-12.18-22,102,102,0,0,0-16.33-19A49.57,49.57,0,0,0,207,510.28a24.52,24.52,0,0,0-5.83-2.11,12.55,12.55,0,0,0-6.09.09,9.74,9.74,0,0,0-5,3.39,15.32,15.32,0,0,0-2.69,5.53,36.24,36.24,0,0,0-.9,12.42A90.63,90.63,0,0,0,192.3,554a135.88,135.88,0,0,0,11,22.62,120.14,120.14,0,0,0,7,10.48,107.83,107.83,0,0,0,8.05,9.68,73.26,73.26,0,0,0,9.35,8.43A35.62,35.62,0,0,0,238.84,611a35.74,35.74,0,0,1-11.15-5.76,74.23,74.23,0,0,1-9.41-8.39,110,110,0,0,1-8.11-9.66,125.28,125.28,0,0,1-7.07-10.46A137.69,137.69,0,0,1,192,554.12a91.73,91.73,0,0,1-6-24.48,37.25,37.25,0,0,1,.86-12.62,15.92,15.92,0,0,1,2.77-5.74,10.4,10.4,0,0,1,5.26-3.61,13,13,0,0,1,6.39-.14,25,25,0,0,1,6,2.14,49.83,49.83,0,0,1,10.42,7.19,102.5,102.5,0,0,1,16.57,19.08,140.54,140.54,0,0,1,12.37,22l-.84-.11a28.34,28.34,0,0,1,9.43-7.45,39.72,39.72,0,0,1,11.43-3.69,46.76,46.76,0,0,1,12-.48,42.89,42.89,0,0,1,11.71,2.7l-.75.38a105.4,105.4,0,0,1,6.15-17A80,80,0,0,1,305.22,517a62.9,62.9,0,0,1,13-12.51,47,47,0,0,1,16.48-7.46c1.49-.32,3-.52,4.49-.79s3-.2,4.55-.3a19.28,19.28,0,0,1,2.28,0c.75,0,1.52,0,2.27.12l2.26.3,1.13.14,1.12.25a46.53,46.53,0,0,1,16.68,7c10.11,6.78,17.76,16.67,23.09,27.46l-1.21-.22a51.58,51.58,0,0,1,12.39-8.68,49.67,49.67,0,0,1,14.41-4.63A50.1,50.1,0,0,1,447.83,522l-1.14,1.09a119.1,119.1,0,0,1-5.27-15.08,69.29,69.29,0,0,1-2.56-15.84,31.31,31.31,0,0,1,.73-8.11,13.15,13.15,0,0,1,4.15-7.25,8.9,8.9,0,0,1,3.93-1.84,12.15,12.15,0,0,1,4.25-.05,23.3,23.3,0,0,1,7.68,2.9,58.47,58.47,0,0,1,12.53,10.06,110.05,110.05,0,0,1,10.26,12.27,146,146,0,0,1,15.71,27.75l-1.14-.49a69.78,69.78,0,0,1,16.92-3.78,67.94,67.94,0,0,1,8.68-.31c1.45,0,2.89.13,4.34.21s2.88.26,4.31.5a65.24,65.24,0,0,1,8.51,1.76,62.76,62.76,0,0,1,8.22,2.82,60.9,60.9,0,0,1,14.92,8.88l-.88-.17A89.8,89.8,0,0,1,591.16,533a88.55,88.55,0,0,1,29.05,5.15,69.89,69.89,0,0,1,25.19,15.39,57,57,0,0,1,5,5.56,53.82,53.82,0,0,1,4.12,6.24,48.71,48.71,0,0,1,3.06,6.84,45.57,45.57,0,0,1,1.81,7.28l-1.52-.67a80.69,80.69,0,0,1,19.8-9.31,101.67,101.67,0,0,1,21.43-4.23,105.23,105.23,0,0,1,43.14,4.93l-1.27.73A57.82,57.82,0,0,1,753.21,545c6.28-7.32,14.79-13,24.38-14.94a40.38,40.38,0,0,1,14.5-.19l3.57.77,3.45,1.16.87.29.82.38,1.66.77,1.64.77,1.56.94,1.56.94.78.47.73.55,2.89,2.2c.92.79,1.78,1.64,2.67,2.46.43.43.91.81,1.3,1.27l1.19,1.36,1.19,1.37A11.63,11.63,0,0,1,819.1,547l2.11,3a47.48,47.48,0,0,1,3.61,6.26l-1.52-.2a29.57,29.57,0,0,1,7.51-6.12A25.29,25.29,0,0,1,840,546.8a24.39,24.39,0,0,1,9.69.74,26.49,26.49,0,0,1,8.67,4.35l-1.36.33a47.42,47.42,0,0,1,5-7.89,45.49,45.49,0,0,1,6.47-6.69l.89-.76.93-.71c.62-.46,1.23-.94,1.87-1.39,1.31-.83,2.57-1.74,4-2.45a50.46,50.46,0,0,1,8.48-3.82,54.37,54.37,0,0,1,18.28-2.86,53.33,53.33,0,0,1,18.18,3.51l-1.17.64a183.82,183.82,0,0,1,12.28-38.36,151.15,151.15,0,0,1,9.39-17.86,101.48,101.48,0,0,1,12.15-16.16,60.29,60.29,0,0,1,7.53-6.83,33,33,0,0,1,9-4.95c.8-.32,1.67-.48,2.5-.72a20.55,20.55,0,0,1,2.6-.34,14.47,14.47,0,0,1,5.23.53,16.27,16.27,0,0,1,8.43,6,31.12,31.12,0,0,1,4.66,9.12,53.83,53.83,0,0,1,2.25,9.91c.27,1.67.38,3.36.55,5s.22,3.37.23,5.06c.1,3.37,0,6.73-.23,10.09l-1.1-.63a18.43,18.43,0,0,1,9.62-3.24,18,18,0,0,1,9.79,2.68,27.49,27.49,0,0,1,7.44,6.81,45,45,0,0,1,5.16,8.6l-.9-.31a35.24,35.24,0,0,1,13.37-3.77,38.67,38.67,0,0,1,13.82,1.43,31.47,31.47,0,0,1,12.1,6.81,23.69,23.69,0,0,1,4.42,5.44,21.76,21.76,0,0,1,2.49,6.58l-.71-.46a27.61,27.61,0,0,1,8.15-.84,26.92,26.92,0,0,1,8,1.56,25,25,0,0,1,7.18,4,22.56,22.56,0,0,1,5.43,6.16l-.75-.18a46.57,46.57,0,0,1,20.38-6.92,51.61,51.61,0,0,1,5.42-.25l2.71.12c.45,0,.9,0,1.35.07l1.34.17,2.69.34,2.66.57,1.32.28,1.3.4c.86.26,1.73.5,2.59.79a47.31,47.31,0,0,1,9.69,4.81,40.14,40.14,0,0,1,8.1,7.18,33.55,33.55,0,0,1,5.47,9.33,29.64,29.64,0,0,1,1.73,10.67l-.44-.34a22.48,22.48,0,0,1,6.68-.84,23,23,0,0,1,6.63,1.12,28.73,28.73,0,0,1,11.29,7.08l-.45.06c1.16-1.84,2.3-3.7,3.49-5.53s2.55-3.55,3.94-5.23a59.87,59.87,0,0,1,9.27-9.22,33.84,33.84,0,0,1,5.51-3.55,15.77,15.77,0,0,1,6.29-1.84,7.68,7.68,0,0,1,3.28.53,6.52,6.52,0,0,1,2.64,2,11.41,11.41,0,0,1,2.1,6.18,35.71,35.71,0,0,1-1.9,12.89,69.82,69.82,0,0,1-5.14,12A75.42,75.42,0,0,1,1204,594.31v0q.45,3.22.59,6.48c0,1.09.07,2.17.05,3.26Z"/><polygon class="cls-1" points="188.95 65.41 284.42 1.76 284.42 33.59 208.84 89.28 188.95 65.41"/><path d="M189,65.41l47.16-32.19c7.92-5.38,15.83-10.8,23.83-16.15L283.9,1l1.46-1V1.77l0,15.91v16.4l-.39.29L247.13,62.11l-38,27.53-.35.26-.27-.33Zm0,0L209.19,89l-.62-.08,37.56-28.16,37.71-27.94-.39.78,0-15.91.05-15.91,1.46.78L261.17,18.29c-7.92,5.26-15.92,10.43-23.91,15.66Z"/><path d="M545.57,556.15a656.77,656.77,0,0,1-10.28,109.12,813.81,813.81,0,0,0,9.28-109.12Z"/><path d="M888.14,576.15a813.81,813.81,0,0,0,9.28,109.12,655.7,655.7,0,0,1-10.28-109.12Z"/><path class="cls-1" d="M530.66,352.82c44.92,129.83-.33,194.6-26.38,219.22-12.72,12-4.43,33.62,13.08,33.83h.48c10,0,18.78-3.72,24-9.39a23.85,23.85,0,0,0,38-6.59A22.35,22.35,0,0,0,598,599.68c8,0,15.09-4.56,19.26-11.49a35.43,35.43,0,0,0,13.55,6.68c14.34,3.59,28.54-1.94,34.92-12.66,4.14,10.52,11.24,17.47,19.31,17.47,7.51,0,14.19-6,18.42-15.33,3.81,9,13.44,15.33,24.74,15.33a28,28,0,0,0,18.9-7.13c6.69,3.58,16.11,5.81,26.56,5.81,11.55,0,21.85-2.73,28.59-7,6,5,15.93,8.31,27.17,8.31,14.73,0,27.22-5.64,31.53-13.44,4.1,3.48,10.32,5.7,17.28,5.7a31.52,31.52,0,0,0,6.84-.74,33,33,0,0,0,22.14,8.48h.57c18.91-.32,29.23-22.17,17.83-37.26C903.12,532.58,861.17,460.23,886,358.79"/><path d="M530.66,352.82c8.33,24.16,14.93,49,17.79,74.52a236.18,236.18,0,0,1,1.4,38.35l-.3,4.8-.16,2.4-.24,2.39-.5,4.78c-.19,1.59-.45,3.18-.67,4.76-.4,3.19-1.06,6.33-1.63,9.48-.29,1.58-.7,3.13-1,4.7s-.69,3.13-1.13,4.67a155.34,155.34,0,0,1-14.09,35.74,137.76,137.76,0,0,1-22.92,30.84c-1.14,1.12-2.34,2.26-3.39,3.36a20.71,20.71,0,0,0-2.68,3.74,18.56,18.56,0,0,0-2.2,8.84,19.2,19.2,0,0,0,8.23,15.69,18.2,18.2,0,0,0,8.55,3.06,30.07,30.07,0,0,0,4.65,0,38.13,38.13,0,0,0,4.65-.59,30,30,0,0,0,16.27-8.46l.61-.64.63.61a22.87,22.87,0,0,0,9.23,5.46,22.88,22.88,0,0,0,15.87-.87,24.18,24.18,0,0,0,4.67-2.71,24.58,24.58,0,0,0,3.91-3.72,25.39,25.39,0,0,0,2.94-4.52l.68-1.32.85,1.19a23,23,0,0,0,8,7.07,20,20,0,0,0,10.35,2.3,20.38,20.38,0,0,0,10.09-3.3,23.88,23.88,0,0,0,7.4-7.73l.55-.9.82.66a34.37,34.37,0,0,0,11.81,6.11,40.65,40.65,0,0,0,6.56,1.27,34.57,34.57,0,0,0,6.67,0c1.12-.06,2.2-.31,3.3-.47.55-.12,1.09-.26,1.63-.39a12.7,12.7,0,0,0,1.6-.46,30,30,0,0,0,6.09-2.66,29.26,29.26,0,0,0,5.29-4,28,28,0,0,0,4.11-5.16l1-1.63.72,1.77a35.4,35.4,0,0,0,6.6,11c2.85,3.1,6.6,5.53,10.74,5.82a13.54,13.54,0,0,0,6-.92,17.64,17.64,0,0,0,5.25-3.35,32,32,0,0,0,7.3-10.43l.94-2,.88,2.06a23.76,23.76,0,0,0,7.63,9.52,26.81,26.81,0,0,0,11.32,4.79,28.21,28.21,0,0,0,12.33-.55,26.43,26.43,0,0,0,10.8-5.88l.5-.45.6.31a48.47,48.47,0,0,0,13.23,4.51,68.77,68.77,0,0,0,14,1.2,65.72,65.72,0,0,0,14-1.67,43.31,43.31,0,0,0,13-5.14l.57-.35.51.42A35.23,35.23,0,0,0,817,597.32a53.65,53.65,0,0,0,15.78,1.36,50.81,50.81,0,0,0,7.87-1.06,41.31,41.31,0,0,0,7.56-2.32,31.56,31.56,0,0,0,6.84-3.82,18.83,18.83,0,0,0,5.17-5.66l.52-.92.8.68a21.89,21.89,0,0,0,5.19,3.19,27.28,27.28,0,0,0,5.89,1.79,30.64,30.64,0,0,0,12.29-.19l.43-.1.33.29a32.45,32.45,0,0,0,15.65,7.76,30.53,30.53,0,0,0,8.79.39,21.62,21.62,0,0,0,8.27-2.67,22.66,22.66,0,0,0,8.42-30.56c-1.44-2.52-3.46-4.86-5.15-7.37s-3.46-5-5.12-7.53q-5-7.62-9.32-15.62a239.58,239.58,0,0,1-15-33.12,235.94,235.94,0,0,1-9.73-35,241.68,241.68,0,0,1-4.17-36.07,255.46,255.46,0,0,1,7.67-72,255.32,255.32,0,0,0-7.1,71.95,241,241,0,0,0,4.45,35.92c1.25,5.91,2.61,11.8,4.3,17.59s3.52,11.55,5.59,17.21a238.13,238.13,0,0,0,15,32.9q4.38,7.93,9.34,15.5c1.66,2.52,3.35,5,5.12,7.46s3.68,4.74,5.26,7.47a23.84,23.84,0,0,1,2.23,18.09,24.1,24.1,0,0,1-11.09,14.52,24.89,24.89,0,0,1-4.29,1.9,23.11,23.11,0,0,1-4.58,1,31.64,31.64,0,0,1-9.27-.37,33.87,33.87,0,0,1-16.49-8.1l.75.2a32.6,32.6,0,0,1-13,.22,28.63,28.63,0,0,1-6.26-1.9,23.09,23.09,0,0,1-5.62-3.45l1.32-.24a20.7,20.7,0,0,1-5.63,6.21,33.16,33.16,0,0,1-7.22,4.06,43.67,43.67,0,0,1-7.87,2.43,53.13,53.13,0,0,1-8.13,1.1,55.32,55.32,0,0,1-16.32-1.38,37,37,0,0,1-14.88-7l1.08.08a45.29,45.29,0,0,1-13.51,5.39,67.08,67.08,0,0,1-14.38,1.74,69.19,69.19,0,0,1-14.43-1.22,49.65,49.65,0,0,1-13.78-4.67l1.1-.13a28.27,28.27,0,0,1-11.58,6.32,30.05,30.05,0,0,1-13.17.61,28.69,28.69,0,0,1-12.17-5.13,25.71,25.71,0,0,1-8.28-10.32l1.82,0a33.39,33.39,0,0,1-7.78,11.09,19.4,19.4,0,0,1-5.85,3.71,15.43,15.43,0,0,1-6.93,1,15.84,15.84,0,0,1-6.65-2.11,22.57,22.57,0,0,1-5.35-4.35,37.3,37.3,0,0,1-7-11.58l1.73.14a29.74,29.74,0,0,1-4.43,5.56,31.4,31.4,0,0,1-5.68,4.25,32,32,0,0,1-6.47,2.82,17.21,17.21,0,0,1-1.7.48l-1.72.41c-1.16.17-2.32.43-3.49.5a38.61,38.61,0,0,1-7.05,0,42.53,42.53,0,0,1-6.9-1.36,36.23,36.23,0,0,1-12.44-6.46l1.38-.24a25.71,25.71,0,0,1-8,8.31,22.17,22.17,0,0,1-11,3.57A21.78,21.78,0,0,1,587.83,598a25,25,0,0,1-8.65-7.63l1.53-.12a27.31,27.31,0,0,1-3.17,4.87,26.63,26.63,0,0,1-4.22,4,26.23,26.23,0,0,1-5,2.91,25.69,25.69,0,0,1-5.57,1.66A25.1,25.1,0,0,1,551.2,603a24.62,24.62,0,0,1-9.91-5.89l1.23,0a31.8,31.8,0,0,1-17.22,9,41.88,41.88,0,0,1-4.86.6,32.35,32.35,0,0,1-4.92,0,19.77,19.77,0,0,1-9.31-3.37,20.78,20.78,0,0,1-8.84-17,20,20,0,0,1,2.42-9.57,22.63,22.63,0,0,1,2.91-4c1.17-1.21,2.3-2.27,3.44-3.39A135.87,135.87,0,0,0,529,538.79a154.18,154.18,0,0,0,14.13-35.4c.45-1.53.78-3.09,1.15-4.64s.76-3.1,1-4.66c.58-3.14,1.25-6.26,1.66-9.42.23-1.58.5-3.15.69-4.73l.52-4.76.27-2.37.17-2.39.34-4.77a235,235,0,0,0-1.1-38.25C545.2,402,538.8,377,530.66,352.82Z"/><polygon class="cls-1" points="157.95 582.03 205.69 566.12 277.29 601.92 323.03 560.15 390.66 603.91 303.14 705.34 267.34 671.53 231.54 677.5 157.95 582.03"/><path d="M158,582l47.63-16.22.13,0,.12.06,35.9,17.7,35.86,17.78-.76.1,45.62-41.9.49-.45.56.36,67.68,43.68.92.6-.72.83-43.75,50.72-43.82,50.67-.6.7-.67-.64L266.81,672.1l.66.2-35.82,5.84-.39.06-.24-.3Zm0,0,74.11,95.07-.63-.25,35.78-6.09.38-.07.29.27,35.87,33.74-1.27.07L346.17,654l43.76-50.72.21,1.43-67.58-43.83,1.05-.09-45.86,41.63-.35.32-.42-.21-35.74-18-35.7-18.1.25,0Z"/><polygon class="cls-1" points="1192.48 573.02 1278.01 541.2 1385.41 396.01 1435.13 394.02 1455.02 485.51 1397.34 577 1345.63 584.96 1313.81 608.82 1274.03 622.75 1250.16 602.86 1182.54 614.79 1192.48 573.02"/><path d="M1192.48,573l85.37-32.24-.2.16,53.48-72.76,53.57-72.7.25-.34h.42l49.73-2,.77,0,.17.76,20,91.48.08.39-.21.35-57.77,91.43-.21.35-.4.06-51.72,7.9.37-.15-31.89,23.78-.09.06-.1,0-39.82,13.81-.33.12-.26-.22-23.82-20,.43.11L1182.57,615l-.31,0,.07-.31Zm0,0-9.74,41.82-.24-.26,67.57-12.24.24,0,.19.15,23.92,19.83-.59-.11,39.74-14-.2.1,31.76-24,.16-.13.21,0,51.71-8-.62.41,57.6-91.55-.13.74-19.83-91.5.94.73-49.73,1.94.68-.36L1332.28,469l-53.92,72.43-.08.11-.12,0Z"/><path class="cls-1" d="M805.81,531.09c0-15.09-40.83-27.32-91.19-27.32S623.43,516,623.43,531.09c0,7.55,10.21,14.38,26.71,19.32"/><path d="M805.71,531.09a10.66,10.66,0,0,0-2.75-6.55,24.37,24.37,0,0,0-5.55-4.66,47.94,47.94,0,0,0-6.44-3.44c-1.09-.53-2.24-1-3.36-1.43s-2.28-.88-3.43-1.26a158.6,158.6,0,0,0-28.49-6.54,263.35,263.35,0,0,0-29.15-2.55c-9.75-.34-19.52-.19-29.25.41a247.5,247.5,0,0,0-29,3.5c-4.79.87-9.54,1.92-14.23,3.18a104.34,104.34,0,0,0-13.76,4.61,53.9,53.9,0,0,0-6.48,3.16,29.83,29.83,0,0,0-5.76,4.15,12.15,12.15,0,0,0-3.61,5.72,8.35,8.35,0,0,0,1.21,6.45,19,19,0,0,0,4.87,5.1,44.77,44.77,0,0,0,6.14,3.82,93.72,93.72,0,0,0,13.51,5.55l-.06.2a87.19,87.19,0,0,1-13.85-4.94,44.23,44.23,0,0,1-6.43-3.7,20.12,20.12,0,0,1-5.36-5.29,9.58,9.58,0,0,1-1.57-7.53,13.65,13.65,0,0,1,4-6.61,31.75,31.75,0,0,1,6-4.53,55.93,55.93,0,0,1,6.63-3.39c9.12-3.9,18.76-6.2,28.43-7.9a248.21,248.21,0,0,1,29.26-3.14q14.7-.76,29.4-.12a263,263,0,0,1,29.25,2.86,159.14,159.14,0,0,1,28.54,7c1.16.4,2.29.87,3.43,1.31s2.27.93,3.37,1.48a49.23,49.23,0,0,1,6.44,3.56,24.87,24.87,0,0,1,5.57,4.81,10.88,10.88,0,0,1,2.72,6.74Z"/><path class="cls-1" d="M623.43,810.23c0,15.08,40.83,27.32,91.19,27.32s91.19-12.24,91.19-27.32c0-7.55-10.2-14.38-26.71-19.32"/><path d="M623.53,810.23a10.74,10.74,0,0,0,2.75,6.55,24.64,24.64,0,0,0,5.56,4.66,47.23,47.23,0,0,0,6.43,3.44c1.1.53,2.25,1,3.37,1.43s2.27.87,3.43,1.26a158.5,158.5,0,0,0,28.48,6.54,263.56,263.56,0,0,0,29.15,2.55q14.64.51,29.26-.41a249.65,249.65,0,0,0,29-3.5c4.78-.87,9.54-1.92,14.22-3.18A103.36,103.36,0,0,0,789,825a53.18,53.18,0,0,0,6.48-3.16,29.88,29.88,0,0,0,5.76-4.16,12,12,0,0,0,3.61-5.72,8.38,8.38,0,0,0-1.2-6.44,19.16,19.16,0,0,0-4.87-5.1,45.49,45.49,0,0,0-6.15-3.82A94.44,94.44,0,0,0,779.07,791l.06-.19A87.26,87.26,0,0,1,793,795.74a45.13,45.13,0,0,1,6.42,3.71,20.26,20.26,0,0,1,5.37,5.28,9.7,9.7,0,0,1,1.57,7.54,13.72,13.72,0,0,1-4,6.61,32.4,32.4,0,0,1-6,4.53,54.52,54.52,0,0,1-6.64,3.38c-9.12,3.91-18.76,6.21-28.43,7.91a250.11,250.11,0,0,1-29.26,3.14c-9.79.51-19.61.56-29.4.11a263.23,263.23,0,0,1-29.25-2.85,159,159,0,0,1-28.53-7c-1.16-.4-2.29-.87-3.44-1.31s-2.27-.94-3.37-1.48a49.89,49.89,0,0,1-6.44-3.56,25.09,25.09,0,0,1-5.57-4.81,11,11,0,0,1-2.72-6.74Z"/><polygon class="cls-1" points="577.8 663.97 643.44 568.5 719.02 667.95 683.22 729.61 645.43 683.86 601.67 691.82 577.8 663.97"/><path d="M577.8,664l32.34-47.87,32.66-48,.6-.89.66.86L682,617.67l37.84,49.69.39.52-.33.56L684,730l-.62,1.08-.79-1L645,684.25l.58.22-21.9,3.87-21.91,3.79-.18,0-.12-.14Zm0,0,24.11,27.64-.3-.1,21.85-4.17,21.86-4.08.35-.07.23.28,38,45.59-1.41.11,35.7-61.71.07,1.08L680.5,618.78,642.82,569l1.26,0-33,47.43Z"/><path class="cls-1" d="M1182.43,210.6c-1.85,0-3.68.06-5.5.15a65.4,65.4,0,0,0,12.46-37.94c0-42.84-43.64-77.56-97.46-77.56-27.6,0-52.5,9.14-70.24,23.82-17.85-38-70-65.59-131.64-65.59A191.12,191.12,0,0,0,826.88,63.9C803.55,29.28,757.76,5.74,705.08,5.74c-59.91,0-110.92,30.45-130.1,73a230,230,0,0,0-49.9-5.38C458.51,73.37,402,100.83,381.83,139A121.63,121.63,0,0,0,344.09,133c-56,0-101.44,37-101.44,82.54,0,15.52,5.27,30,14.43,42.43a113.89,113.89,0,0,0-19.4-1.66c-64.26,0-116.35,53.43-116.35,119.34S173.42,495,237.68,495c53.85,0,99.15-37.52,112.41-88.46C371,440.4,410.36,463.2,455.47,463.2c43.86,0,82.28-21.56,103.59-53.86,29.05,34.8,79.58,57.84,137.07,57.84,69.43,0,128.71-33.6,152.25-80.94,24.44,22.72,61.21,37.18,102.33,37.18,51.93,0,96.92-23.06,118.91-56.7,12.76,54.31,58.42,94.49,112.81,94.49,64.26,0,116.35-56.1,116.35-125.3S1246.69,210.6,1182.43,210.6ZM732,250.93a154,154,0,0,0,34.76-13.62C787.12,254.41,816,266.56,849,270.7m209.82-13.38a117.66,117.66,0,0,0-16.49-16.22,228.47,228.47,0,0,0,33.37-3.83A128.19,128.19,0,0,0,1058.83,257.32Z"/><path d="M1182.43,210.6l-5.5.15h0a67,67,0,0,0,11.81-29.16,63,63,0,0,0-3.54-31.22,73.49,73.49,0,0,0-17.46-26.22,95.33,95.33,0,0,0-26-18,114,114,0,0,0-30.24-9.33,124.23,124.23,0,0,0-31.65-.94,117,117,0,0,0-30.78,7.31,101.71,101.71,0,0,0-27.32,15.9l-.09.08,0-.11a86.4,86.4,0,0,0-15.53-22.34A115.84,115.84,0,0,0,985,79.46c-15.34-9.89-32.56-16.63-50.28-20.79a196.71,196.71,0,0,0-27-4.27,205.74,205.74,0,0,0-27.31-.53A188.45,188.45,0,0,0,827,64.1l-.15.05-.09-.13a119.4,119.4,0,0,0-25.48-26.8,142,142,0,0,0-32-18.59A166.87,166.87,0,0,0,696.58,6.32,165.84,165.84,0,0,0,660,12.17a151.22,151.22,0,0,0-34.24,14.05,130.68,130.68,0,0,0-29.38,22.41A106,106,0,0,0,575.43,79l-.17.36-.39-.09A229,229,0,0,0,521.63,74a238.81,238.81,0,0,0-26.72,1.91,219.6,219.6,0,0,0-26.3,5.1,187.07,187.07,0,0,0-25.39,8.45,159.77,159.77,0,0,0-23.79,12.2,122.08,122.08,0,0,0-21,16.49,88.47,88.47,0,0,0-16,21.19l-.27.51-.56-.18a122.38,122.38,0,0,0-56.18-4.41c-18.71,2.86-36.87,10.17-51.7,22a94.57,94.57,0,0,0-10.38,9.63,84.91,84.91,0,0,0-8.6,11.22,70.82,70.82,0,0,0-10.25,26.14,66.89,66.89,0,0,0,1.1,28,72.67,72.67,0,0,0,4.85,13.24,79.42,79.42,0,0,0,7.33,12.07l1.27,1.74-2.12-.36a111.93,111.93,0,0,0-33.59-.7c-1.38.21-2.79.32-4.17.6l-4.14.76c-1.38.26-2.74.63-4.11.94l-2,.49-2,.58a108.43,108.43,0,0,0-15.81,5.8A116.78,116.78,0,0,0,141,311.08,120.08,120.08,0,0,0,122.29,375a124.31,124.31,0,0,0,1.07,16.81l.27,2.09.36,2.07c.26,1.39.46,2.78.75,4.15.62,2.74,1.2,5.49,2,8.19s1.66,5.36,2.52,8c1,2.61,1.94,5.27,3.13,7.82s2.38,5.08,3.63,7.6c.65,1.24,1.37,2.45,2,3.68.34.61.68,1.23,1,1.83l1.11,1.79a116.78,116.78,0,0,0,49.53,44.3A113.13,113.13,0,0,0,315.1,463.45a120.09,120.09,0,0,0,21.13-26.13,121.76,121.76,0,0,0,13-31l.56-2.09,1.13,1.84a117.21,117.21,0,0,0,44.23,41.2,126.64,126.64,0,0,0,58.72,15,128.09,128.09,0,0,0,59.09-13.47,118.11,118.11,0,0,0,45.45-39.91L559,408l.72.84a146.92,146.92,0,0,0,31,27.46c.72.48,1.42,1,2.16,1.45l2.23,1.35,4.45,2.69c3,1.72,6.11,3.28,9.17,4.92,3.16,1.44,6.28,3,9.47,4.33l4.83,1.94c1.61.64,3.21,1.32,4.87,1.85,26.16,9.4,54.29,12.92,82,11.25a204.71,204.71,0,0,0,41-6.85,185.29,185.29,0,0,0,38.61-15.49,154.08,154.08,0,0,0,33.59-24.44A123,123,0,0,0,847.93,386l.3-.6.49.46a138,138,0,0,0,53.54,30,168.13,168.13,0,0,0,61.24,6.63l3.86-.31c1.28-.11,2.57-.19,3.85-.4l7.67-1.07,7.6-1.48c1.28-.22,2.53-.55,3.78-.87l3.75-1A153.53,153.53,0,0,0,1023,406.5a130.47,130.47,0,0,0,25.87-16.91,108.09,108.09,0,0,0,20.58-23l.34-.53.15.61a127.67,127.67,0,0,0,31.27,58.59,116.88,116.88,0,0,0,26.21,20.85,108.84,108.84,0,0,0,97,6.53,118.13,118.13,0,0,0,51.32-42A130.91,130.91,0,0,0,1298.16,348a134.29,134.29,0,0,0-10.63-65.72,123.7,123.7,0,0,0-42-51.53,109.51,109.51,0,0,0-14.45-8.58,106.25,106.25,0,0,0-15.57-6.33l-4-1.23-4.08-1c-1.36-.37-2.74-.62-4.11-.88s-2.75-.58-4.14-.75A119.18,119.18,0,0,0,1182.43,210.6Zm0,0a117.69,117.69,0,0,1,16.76,1.31c1.39.16,2.76.5,4.14.74s2.76.51,4.11.88l4.09,1,4,1.23a107.9,107.9,0,0,1,15.58,6.32,109.62,109.62,0,0,1,14.46,8.58,123.79,123.79,0,0,1,42,51.53A134.39,134.39,0,0,1,1298.31,348a131.25,131.25,0,0,1-22.41,62.74c-12.75,18.47-30.62,33.51-51.39,42.15a109.42,109.42,0,0,1-66.07,5.82,110.92,110.92,0,0,1-31.25-12.28,117.5,117.5,0,0,1-26.33-20.87,128.24,128.24,0,0,1-31.5-58.74l.49.08a108.77,108.77,0,0,1-20.64,23.18,131,131,0,0,1-26,17,153.86,153.86,0,0,1-29,11l-3.77,1c-1.26.33-2.51.66-3.79.89l-7.63,1.5-7.71,1.08c-1.28.21-2.58.3-3.87.41l-3.88.33A169,169,0,0,1,902,416.72a138.74,138.74,0,0,1-54-30.11l.8-.15A124,124,0,0,1,824,420.06a155.18,155.18,0,0,1-33.79,24.68,186.21,186.21,0,0,1-38.84,15.66,205.68,205.68,0,0,1-41.3,7c-27.89,1.73-56.22-1.75-82.6-11.18-1.68-.52-3.29-1.21-4.91-1.85l-4.88-2c-3.22-1.36-6.37-2.9-9.56-4.35-3.09-1.64-6.21-3.22-9.26-4.95l-4.5-2.71L592.06,439c-.75-.46-1.45-1-2.18-1.46a148.58,148.58,0,0,1-31.45-27.71l1.32-.07a119.54,119.54,0,0,1-46.06,40.54A129.83,129.83,0,0,1,453.8,464a128.14,128.14,0,0,1-59.54-15.17,118.94,118.94,0,0,1-45-41.82l1.69-.25a123.47,123.47,0,0,1-13.15,31.5,122.2,122.2,0,0,1-21.44,26.56,115,115,0,0,1-127.5,20.27A118.73,118.73,0,0,1,138.57,440l-1.13-1.81c-.37-.62-.7-1.25-1.06-1.87-.68-1.25-1.41-2.48-2.07-3.74-1.27-2.56-2.58-5.09-3.68-7.73s-2.15-5.29-3.18-7.95-1.85-5.4-2.55-8.17-1.4-5.53-2-8.32c-.29-1.39-.5-2.81-.76-4.21l-.36-2.11-.27-2.12a123.34,123.34,0,0,1-1.08-17.07,121.91,121.91,0,0,1,19-64.85,118.61,118.61,0,0,1,50.89-44.38,110.64,110.64,0,0,1,16.06-5.88l2.06-.59,2.08-.49c1.39-.32,2.77-.69,4.17-1l4.22-.77c1.4-.28,2.82-.39,4.23-.6a113.34,113.34,0,0,1,34.1.73l-.84,1.38a80.49,80.49,0,0,1-7.48-12.36,73.52,73.52,0,0,1-5-13.57,68.58,68.58,0,0,1-1.1-28.73,72,72,0,0,1,10.52-26.74,85.56,85.56,0,0,1,8.8-11.43,96.09,96.09,0,0,1,10.58-9.79c15.11-11.95,33.53-19.32,52.47-22.18A123.87,123.87,0,0,1,382,138.3l-.83.34a89.63,89.63,0,0,1,16.31-21.49,123.48,123.48,0,0,1,21.22-16.63,160.4,160.4,0,0,1,24-12.25,189,189,0,0,1,25.57-8.46,220.33,220.33,0,0,1,26.45-5.07,236.55,236.55,0,0,1,26.86-1.87,229.42,229.42,0,0,1,53.47,5.41l-.56.27A107.37,107.37,0,0,1,595.71,48a131.51,131.51,0,0,1,29.63-22.5,152.11,152.11,0,0,1,34.45-14.06A169.18,169.18,0,0,1,678,7.49a172.2,172.2,0,0,1,18.54-1.87,167.41,167.41,0,0,1,72.88,12.5,141.89,141.89,0,0,1,32.11,18.71,119.88,119.88,0,0,1,25.53,27l-.25-.08a189.36,189.36,0,0,1,53.63-10.15,206.35,206.35,0,0,1,27.35.56,195.68,195.68,0,0,1,27,4.3c17.75,4.18,35,10.94,50.34,20.85a115.62,115.62,0,0,1,21.09,17.36A86.59,86.59,0,0,1,1021.78,119l-.15,0A101.81,101.81,0,0,1,1049,103.08a117.17,117.17,0,0,1,30.83-7.29,124,124,0,0,1,31.68,1,114.13,114.13,0,0,1,30.26,9.36,96.13,96.13,0,0,1,26,18,73.83,73.83,0,0,1,17.45,26.26,63.12,63.12,0,0,1,3.52,31.24,66.94,66.94,0,0,1-11.84,29.16h0Z"/><path d="M732,250.93c3-.91,6-1.87,8.89-2.91s5.83-2.18,8.7-3.36a160.59,160.59,0,0,0,16.76-8.1l.5-.28.46.38a135,135,0,0,0,18.39,12.59,161.57,161.57,0,0,0,20.11,9.67A189.07,189.07,0,0,0,827.07,266c3.61,1,7.25,1.83,10.9,2.64,1.83.37,3.66.77,5.5,1.1l5.54,1-5.6-.59c-1.86-.24-3.71-.53-5.57-.8-3.71-.58-7.41-1.27-11.07-2.12a160.37,160.37,0,0,1-21.6-6.55A143.78,143.78,0,0,1,784.75,251a121.91,121.91,0,0,1-18.5-13l1,.1A141.4,141.4,0,0,1,750,245.68c-2.93,1.09-5.92,2-8.92,2.92S735.09,250.27,732,250.93Z"/><path d="M1058.83,257.32q-2-2.1-4-4.16c-1.36-1.36-2.77-2.67-4.18-4-2.84-2.6-5.76-5.09-8.8-7.43l-1.74-1.34,2.23-.14q8.36-.5,16.68-1.46c2.77-.33,5.53-.66,8.29-1.08s5.52-.83,8.27-1.32l2.91-.52-2.13,2q-4.75,4.47-9.13,9.33c-1.45,1.63-2.89,3.27-4.29,4.95S1060.17,255.59,1058.83,257.32Zm0,0c1.11-1.89,2.31-3.72,3.56-5.53s2.55-3.58,3.92-5.3a115.54,115.54,0,0,1,8.79-9.85l.78,1.5c-2.76.56-5.52,1.09-8.31,1.51s-5.56.83-8.36,1.14c-5.59.63-11.21,1-16.83,1.14l.49-1.47a103.13,103.13,0,0,1,8.49,8c1.34,1.4,2.61,2.86,3.86,4.34S1057.68,255.76,1058.83,257.32Z"/><path d="M351.65,275.25a117.7,117.7,0,0,0,26.1-5.56l3.14-1.1,3.08-1.27c2.07-.79,4-1.82,6-2.8,1-.47,1.95-1,2.91-1.6s1.92-1.08,2.85-1.67l2.74-1.86c.45-.32.92-.61,1.36-.94l1.28-1A48,48,0,0,0,417,236.84c3.23-8.21,3.11-17.47.93-26.13a46,46,0,0,1,2.54,13.23,36.63,36.63,0,0,1-2,13.43l-.25.82-.34.78-.67,1.58-.68,1.57c-.25.52-.56,1-.83,1.5-.58,1-1.1,2-1.73,3l-2,2.79-.49.69-.57.65L409.81,252a27.45,27.45,0,0,1-2.33,2.49L405,256.84c-.86.74-1.76,1.43-2.65,2.15a73.67,73.67,0,0,1-24.12,12.18A95,95,0,0,1,351.65,275.25Z"/><path d="M651.33,143.31a99,99,0,0,1,17.61,20,86.61,86.61,0,0,1,6.36,11.81c1,2,1.68,4.15,2.48,6.24.38,1.06.66,2.15,1,3.22a30.53,30.53,0,0,1,.87,3.25l.75,3.29c.18,1.11.34,2.23.51,3.34l.24,1.67.11,1.69c.06,1.12.17,2.25.2,3.37a60.94,60.94,0,0,1-.29,6.76,54.47,54.47,0,0,1-1,6.7,60.57,60.57,0,0,1-11.76,24.15,77.35,77.35,0,0,1-20.27,17.64,85.62,85.62,0,0,1-12,6.1c-2,.9-4.18,1.63-6.29,2.38s-4.28,1.33-6.47,1.84a92.51,92.51,0,0,1-13.21,2.34,93.65,93.65,0,0,1-13.39.51c-2.24,0-4.46-.26-6.69-.43-1.1-.11-2.21-.27-3.32-.4l-1.66-.21-1.64-.28a104.86,104.86,0,0,1-13-3,109.09,109.09,0,0,0,26.33,3.35c2.22.05,4.43-.07,6.63-.16,1.11-.06,2.21-.18,3.31-.26l1.65-.15,1.64-.22a90.85,90.85,0,0,0,13-2.57A94.24,94.24,0,0,0,635.45,261a83.81,83.81,0,0,0,11.72-6.06,75.57,75.57,0,0,0,19.65-17.33,58.73,58.73,0,0,0,11.56-23.31,60.14,60.14,0,0,0,1.35-13c0-1.09-.11-2.18-.17-3.28l-.09-1.64-.22-1.63-.43-3.26-.66-3.23a31.14,31.14,0,0,0-.79-3.2c-.31-1.06-.57-2.13-.91-3.18-.75-2.07-1.39-4.18-2.31-6.19a88.41,88.41,0,0,0-6-11.78A103.64,103.64,0,0,0,651.33,143.31Z"/><polygon class="cls-1" points="1027.23 475.02 1067.01 296.02 1182.37 345.74 1240.05 319.89 1176.4 498.89 1142.59 508.83 1100.82 554.58 1076.95 546.63 1069 490.94 1045.13 494.91 1027.23 475.02"/><path d="M1027.23,475l19.44-89.49,19.63-89.67.19-.85.8.34,115.44,49.55H1182L1239.64,319l2.09-.94-.76,2.16-63.77,179-.15.41-.41.12-33.84,9.86.35-.21L1101.25,555l-.26.28-.36-.12-23.84-8-.31-.11,0-.31L1068.75,491l.29.21L1045.15,495h-.07l0-.05Zm0,0,18,19.8-.12,0,23.84-4.09.26-.05,0,.26,8.21,55.65-.35-.42L1101,554l-.61.16L1142,508.32l.14-.15.2-.06,33.79-10-.56.53,63.52-179,1.32,1.22-57.7,25.8-.37.17-.37-.16-115.28-49.91,1-.5-20.14,89.33Z"/><path d="M681.34,809.91c5.5-.21,11-.31,16.5-.39s11-.07,16.5-.11,11,0,16.5.11l8.25.14c2.75.09,5.5.13,8.25.25-2.75.11-5.5.16-8.25.24l-8.25.14c-5.5.08-11,.08-16.5.12s-11,0-16.5-.12S686.84,810.11,681.34,809.91Z"/><path d="M714.62,516.7c.21,2.68.36,5.37.47,8s.13,5.36.19,8-.07,5.37-.18,8.05l-.2,4c-.1,1.34-.16,2.68-.28,4-.11-1.34-.17-2.68-.28-4-.07-1.61-.11-2.41-.19-4-.12-2.68-.13-5.36-.18-8.05s.06-5.36.18-8S714.42,519.38,714.62,516.7Z"/><path d="M671.39,532.79c7.21-.2,14.41-.25,21.62-.29s14.41,0,21.61,0,14.41,0,21.62,0l10.8.08c3.61.06,7.21.1,10.81.21-3.6.12-7.2.15-10.81.22l-10.8.08c-7.21,0-14.41,0-21.62,0s-14.41,0-21.61,0S678.6,533,671.39,532.79Z"/></g></g></svg>