<svg xmlns="http://www.w3.org/2000/svg" viewBox="0 0 305.41 500.35"><title>Element 15</title><g id="Ebene_2" data-name="Ebene 2"><g id="Ebene_1-2" data-name="Ebene 1"><path d="M153.09,0a1.16,1.16,0,0,1,.27.33,2.4,2.4,0,0,1,.16.27c.09.18.17.37.25.57a8.25,8.25,0,0,1,.35,1.17c.18.8.4,1.56.62,2.34l1.35,4.65q1.36,4.65,2.79,9.28,2.87,9.26,6,18.41,6.32,18.31,13.85,36.17c10.06,23.79,22.05,46.72,34.83,69.16s26.19,44.54,39,67,25.1,45.21,36.38,68.5a173.09,173.09,0,0,1,12.69,36.72,157.2,157.2,0,0,1,3.67,38.69,152.26,152.26,0,0,1-13,56.65,143.9,143.9,0,0,1-9,17.27,154.16,154.16,0,0,1-24.39,30.31,149.86,149.86,0,0,1-31.17,23.31,155.75,155.75,0,0,1-36.11,14.56,152.88,152.88,0,0,1-169.29-68,151.76,151.76,0,0,1-16-35.62,153.39,153.39,0,0,1-6.3-38.52C-.77,327.09,5.29,301,16.46,277.47,27.78,254.15,40.08,231.41,52.93,209q9.65-16.83,19.51-33.51C79,164.3,85.61,153.22,92,142c12.84-22.39,24.87-45.26,35-69q7.67-17.79,14-36.08,3.19-9.15,6.08-18.39l2.8-9.28,1.39-4.64L152,2.29c.13-.39.23-.76.33-1.16a2.35,2.35,0,0,1,.24-.6,2.22,2.22,0,0,1,.19-.27A.76.76,0,0,1,153.09,0Zm0,.3c.06.06,0,.07-.08.16a1.14,1.14,0,0,0-.15.23,2.18,2.18,0,0,0-.21.52c-.08.38-.19.8-.31,1.18l-.66,2.33-1.33,4.66-2.67,9.31q-2.74,9.3-5.83,18.5-6.15,18.39-13.57,36.34c-9.87,23.92-21.74,47-34.39,69.52-6.32,11.29-12.86,22.44-19.36,33.6S61.54,199,55.18,210.24c-12.7,22.46-24.88,45.27-36,68.5S2.24,327.51,3.06,353.11a150.74,150.74,0,0,0,6.17,37.77A148.57,148.57,0,0,0,24.89,425.8a150.35,150.35,0,0,0,166.17,67.32,152.93,152.93,0,0,0,35.63-14.24A147.94,147.94,0,0,0,257.49,456a152.16,152.16,0,0,0,24.16-29.85,141.6,141.6,0,0,0,9-17,150.56,150.56,0,0,0,13-55.94,156,156,0,0,0-3.53-38.29,170.89,170.89,0,0,0-12.47-36.42c-11.16-23.27-23.34-46.07-36.07-68.54s-26-44.65-38.75-67.14-24.61-45.5-34.59-69.37q-7.48-17.88-13.73-36.25-3.12-9.18-5.95-18.45-1.41-4.63-2.76-9.29l-1.32-4.66c-.23-.77-.45-1.57-.62-2.35a10.86,10.86,0,0,0-.33-1.15c-.08-.18-.15-.36-.24-.53s-.1-.17-.14-.26A.26.26,0,0,1,153.05.3Z"/></g></g></svg>