<svg xmlns="http://www.w3.org/2000/svg" xmlns:xlink="http://www.w3.org/1999/xlink" viewBox="0 0 1144.21 628.21"><defs><style>.cls-1,.cls-2{fill:none;}.cls-2{stroke:#1a171b;stroke-width:0.4px;}.cls-3{fill:#fff;}.cls-4{fill:url(#Liniert_7);}</style><pattern id="Liniert_7" data-name="Liniert 7" width="72" height="72" patternUnits="userSpaceOnUse" viewBox="0 0 72 72"><rect class="cls-1" width="72" height="72"/><line class="cls-2" x1="131.61" y1="139.55" x2="57.92" y2="65.86"/><line class="cls-2" x1="137.71" y1="136.94" x2="64.03" y2="63.26"/><line class="cls-2" x1="74.79" y1="137.81" x2="1.48" y2="64.5"/><line class="cls-2" x1="77.43" y1="135.84" x2="4.11" y2="62.53"/><line class="cls-2" x1="87.68" y1="128.59" x2="14.36" y2="55.28"/><line class="cls-2" x1="83.83" y1="133.59" x2="10.51" y2="60.28"/><line class="cls-2" x1="94.44" y1="126" x2="21.13" y2="52.69"/><line class="cls-2" x1="99.09" y1="120.8" x2="25.78" y2="47.49"/><line class="cls-2" x1="104.32" y1="117.57" x2="31.01" y2="44.26"/><line class="cls-2" x1="78.24" y1="145.31" x2="4.92" y2="72"/><line class="cls-2" x1="59.61" y1="139.55" x2="-14.08" y2="65.86"/><line class="cls-2" x1="65.71" y1="136.94" x2="-7.97" y2="63.26"/><line class="cls-2" x1="74.98" y1="129.61" x2="1.29" y2="55.92"/><line class="cls-2" x1="84.01" y1="120.99" x2="10.33" y2="47.3"/><line class="cls-2" x1="93.3" y1="111.36" x2="19.62" y2="37.68"/><line class="cls-2" x1="82.84" y1="128.94" x2="8.81" y2="54.92"/><line class="cls-2" x1="94.79" y1="120.99" x2="20.77" y2="46.96"/><line class="cls-2" x1="2.79" y1="137.81" x2="-70.52" y2="64.5"/><line class="cls-2" x1="5.43" y1="135.84" x2="-67.89" y2="62.53"/><line class="cls-2" x1="15.68" y1="128.59" x2="-57.64" y2="55.28"/><line class="cls-2" x1="11.83" y1="133.59" x2="-61.49" y2="60.28"/><line class="cls-2" x1="22.44" y1="126" x2="-50.87" y2="52.69"/><line class="cls-2" x1="27.09" y1="120.8" x2="-46.22" y2="47.49"/><line class="cls-2" x1="32.32" y1="117.57" x2="-40.99" y2="44.26"/><line class="cls-2" x1="6.24" y1="145.31" x2="-67.08" y2="72"/><line class="cls-2" x1="2.98" y1="129.61" x2="-70.71" y2="55.92"/><line class="cls-2" x1="12.01" y1="120.99" x2="-61.67" y2="47.3"/><line class="cls-2" x1="21.3" y1="111.36" x2="-52.38" y2="37.68"/><line class="cls-2" x1="10.84" y1="128.94" x2="-63.19" y2="54.92"/><line class="cls-2" x1="22.79" y1="120.99" x2="-51.23" y2="46.96"/><line class="cls-2" x1="131.61" y1="67.55" x2="57.92" y2="-6.14"/><line class="cls-2" x1="137.71" y1="64.94" x2="64.03" y2="-8.74"/><line class="cls-2" x1="74.79" y1="65.81" x2="1.48" y2="-7.5"/><line class="cls-2" x1="77.43" y1="63.84" x2="4.11" y2="-9.47"/><line class="cls-2" x1="87.68" y1="56.59" x2="14.36" y2="-16.72"/><line class="cls-2" x1="83.83" y1="61.59" x2="10.51" y2="-11.72"/><line class="cls-2" x1="94.44" y1="54" x2="21.13" y2="-19.31"/><line class="cls-2" x1="99.09" y1="48.8" x2="25.78" y2="-24.51"/><line class="cls-2" x1="104.32" y1="45.57" x2="31.01" y2="-27.74"/><line class="cls-2" x1="78.24" y1="73.31" x2="4.92"/><line class="cls-2" x1="74.79" y1="78.23" x2="1.48" y2="4.92"/><line class="cls-2" x1="59.61" y1="67.55" x2="-14.08" y2="-6.14"/><line class="cls-2" x1="65.71" y1="64.94" x2="-7.97" y2="-8.74"/><line class="cls-2" x1="74.98" y1="57.61" x2="1.29" y2="-16.08"/><line class="cls-2" x1="84.01" y1="48.99" x2="10.33" y2="-24.7"/><line class="cls-2" x1="93.3" y1="39.36" x2="19.62" y2="-34.32"/><line class="cls-2" x1="82.84" y1="56.94" x2="8.81" y2="-17.08"/><line class="cls-2" x1="94.79" y1="48.99" x2="20.77" y2="-25.04"/><line class="cls-2" x1="2.79" y1="65.81" x2="-70.52" y2="-7.5"/><line class="cls-2" x1="5.43" y1="63.84" x2="-67.89" y2="-9.47"/><line class="cls-2" x1="15.68" y1="56.59" x2="-57.64" y2="-16.72"/><line class="cls-2" x1="11.83" y1="61.59" x2="-61.49" y2="-11.72"/><line class="cls-2" x1="22.44" y1="54" x2="-50.87" y2="-19.31"/><line class="cls-2" x1="27.09" y1="48.8" x2="-46.22" y2="-24.51"/><line class="cls-2" x1="32.32" y1="45.57" x2="-40.99" y2="-27.74"/><line class="cls-2" x1="6.24" y1="73.31" x2="-67.08"/><line class="cls-2" x1="2.79" y1="78.23" x2="-70.52" y2="4.92"/><line class="cls-2" x1="2.98" y1="57.61" x2="-70.71" y2="-16.08"/><line class="cls-2" x1="12.01" y1="48.99" x2="-61.67" y2="-24.7"/><line class="cls-2" x1="21.3" y1="39.36" x2="-52.38" y2="-34.32"/><line class="cls-2" x1="10.84" y1="56.94" x2="-63.19" y2="-17.08"/><line class="cls-2" x1="22.79" y1="48.99" x2="-51.23" y2="-25.04"/><line class="cls-2" x1="78.24" y1="1.31" x2="4.92" y2="-72"/><line class="cls-2" x1="74.79" y1="6.23" x2="1.48" y2="-67.08"/><line class="cls-2" x1="6.24" y1="1.31" x2="-67.08" y2="-72"/><line class="cls-2" x1="2.79" y1="6.23" x2="-70.52" y2="-67.08"/></pattern></defs><title>Element 12</title><g id="Ebene_2" data-name="Ebene 2"><g id="Ebene_1-2" data-name="Ebene 1"><path d="M596.71,25.57a26.14,26.14,0,0,1-6.83,17.76,23.21,23.21,0,0,1-8,5.68,23.7,23.7,0,0,1-9.72,1.89,25,25,0,0,1-9.58-2.19,26.22,26.22,0,0,1-15.46-23.14,24.7,24.7,0,0,1,7.06-18A25.47,25.47,0,0,1,562.34,2,24.76,24.76,0,0,1,581.86,2a23.74,23.74,0,0,1,8,5.74A26.12,26.12,0,0,1,596.71,25.57Zm-.2,0a22.51,22.51,0,0,0-2-9.27A23.55,23.55,0,0,0,589,8.71a24.94,24.94,0,0,0-16.86-6.58,24,24,0,0,0-16.65,6.78,24.41,24.41,0,0,0-7.3,16.66A23.15,23.15,0,0,0,555,42.66a23.64,23.64,0,0,0,17.09,6.57A25.79,25.79,0,0,0,589,42.45a24,24,0,0,0,5.52-7.61A22.37,22.37,0,0,0,596.51,25.57Z"/><path d="M685.71,347.57a23,23,0,0,1-2.05,10,33.2,33.2,0,0,1-5.66,8.6,52.68,52.68,0,0,1-7.59,7,70.86,70.86,0,0,1-8.62,5.63c-12,6.73-25.16,11-38.49,13.82-6.69,1.4-13.45,2.42-20.22,3.16-1.7.2-3.39.36-5.09.5s-3.4.29-5.1.39c-3.4.25-6.8.42-10.2.55a294.46,294.46,0,0,1-40.82-1.36,187.91,187.91,0,0,1-40-8.41,120,120,0,0,1-18.9-8.06,65.08,65.08,0,0,1-16.59-12.3,34.55,34.55,0,0,1-6.05-8.53,24.32,24.32,0,0,1-2.61-10.21A24.68,24.68,0,0,1,459.8,338a32.23,32.23,0,0,1,5.76-8.69c4.62-5.19,10.41-9.06,16.37-12.38a112.72,112.72,0,0,1,18.82-8,.1.1,0,0,1,.13.06.11.11,0,0,1-.06.13,118.32,118.32,0,0,0-18.39,8.67,61.75,61.75,0,0,0-15.7,12.54,30.56,30.56,0,0,0-5.32,8.34,22.59,22.59,0,0,0-1.79,9.54,23.37,23.37,0,0,0,2.49,9.38,32.7,32.7,0,0,0,5.74,8,55.53,55.53,0,0,0,7.56,6.54c.67.5,1.38.95,2.07,1.42s1.39.94,2.11,1.37l2.15,1.32,2.2,1.23a118.26,118.26,0,0,0,18.51,8.11,204.31,204.31,0,0,0,39.55,9.1c6.73.87,13.5,1.52,20.29,1.78s13.59.33,20.37,0c3.39-.17,6.78-.36,10.17-.68,1.69-.14,3.37-.34,5.06-.54s3.37-.39,5.05-.64c6.72-.92,13.4-2.14,20-3.67a184.86,184.86,0,0,0,19.53-5.51,115,115,0,0,0,18.58-8,82.38,82.38,0,0,0,8.57-5.35,50.41,50.41,0,0,0,7.6-6.61,34.3,34.3,0,0,0,5.82-8.18,23.39,23.39,0,0,0,2.47-9.72.11.11,0,0,1,.11-.1A.09.09,0,0,1,685.71,347.57Z"/><path d="M510.89,349.19c-.22-3.8,1.61-7.52,4.1-10.34a28.3,28.3,0,0,1,4.15-3.89,38,38,0,0,1,4.72-3.15,60.29,60.29,0,0,1,10.3-4.65,80,80,0,0,1,10.86-3,135.12,135.12,0,0,1,22.3-2.28,174.25,174.25,0,0,1,22.38.63,99.52,99.52,0,0,1,22,4.45,66.19,66.19,0,0,1,10.44,4.4,35.66,35.66,0,0,1,9.22,6.8,19.44,19.44,0,0,1,3.37,4.81,13.55,13.55,0,0,1,1.43,5.78,13.89,13.89,0,0,1-1.22,5.81,18.14,18.14,0,0,1-3.25,4.83,33.46,33.46,0,0,1-9.12,6.74,58,58,0,0,1-10.39,4.21.1.1,0,0,1-.13-.06.11.11,0,0,1,.06-.13,69.3,69.3,0,0,0,10-4.9,33.82,33.82,0,0,0,8.43-6.9,13.75,13.75,0,0,0,3.73-9.54,14.51,14.51,0,0,0-4.44-9.19,31.15,31.15,0,0,0-4-3.53,47.62,47.62,0,0,0-4.61-2.9,64.09,64.09,0,0,0-10-4.45,119.33,119.33,0,0,0-43.75-6.21,120.23,120.23,0,0,0-22,3.26,86.85,86.85,0,0,0-20.77,7.35,35.07,35.07,0,0,0-8.85,6.39,19.49,19.49,0,0,0-3.22,4.38,13.12,13.12,0,0,0-1.45,5.26.1.1,0,0,1-.1.1A.12.12,0,0,1,510.89,349.19Z"/><path d="M749.24,367.86a35.69,35.69,0,0,1-2,12.85c-.4,1-.78,2.05-1.19,3.07l-1.48,2.93a27.65,27.65,0,0,1-1.67,2.83,25.08,25.08,0,0,1-1.84,2.73l-2,2.62-2.17,2.46-1.1,1.22-1.17,1.14L732.27,402a87.56,87.56,0,0,1-10.35,8,154,154,0,0,1-23,12.09c-7.94,3.48-16,6.55-24.26,9.28A275.21,275.21,0,0,1,624,442.77c-8.6,1.12-17.24,1.78-25.89,2.25s-17.32.43-26,.15a.1.1,0,0,1-.09-.1.09.09,0,0,1,.09-.1c8.65-.38,17.27-.8,25.87-1.51,2.15-.15,4.3-.39,6.44-.57l3.22-.3,3.22-.37c2.14-.26,4.28-.45,6.42-.73l6.41-.83c8.54-1.19,17-2.54,25.5-4.24s16.83-3.75,25.13-6.11a178.22,178.22,0,0,0,24.31-8.82A138,138,0,0,0,721,408.61a118.88,118.88,0,0,0,10.1-7.92l2.32-2.21,1.16-1.11,1.08-1.18,2.17-2.35,2-2.5a46,46,0,0,0,6.44-11,26.23,26.23,0,0,0,1.07-3l.5-1.53c.14-.51.22-1,.34-1.56l.33-1.57.16-.79c0-.27.05-.54.08-.8l.32-3.22h0a.1.1,0,0,1,.11-.09A.09.09,0,0,1,749.24,367.86Z"/><path d="M353.19,313.24a119.4,119.4,0,0,1,19.38-17,175.92,175.92,0,0,1,22.14-13.3,255.08,255.08,0,0,1,23.63-10.46c8-3.1,16.25-5.72,24.52-8.11s16.65-4.35,25.08-6.09c4.21-.84,8.43-1.7,12.66-2.41s8.48-1.46,12.72-2.14q12.75-1.89,25.56-3.32c8.55-.87,17.11-1.64,25.7-2.17a501.17,501.17,0,0,1,51.57-.55c4.3.17,8.6.46,12.89.68s8.58.68,12.87,1,8.56.89,12.83,1.38,8.54,1.12,12.79,1.77A396.45,396.45,0,0,1,698,263.45,282.73,282.73,0,0,1,746.07,282a.1.1,0,0,1,0,.14.11.11,0,0,1-.13,0c-31.31-14.21-64.91-22.43-98.75-27.58a555.16,555.16,0,0,0-102.6-5.24c-8.57.41-17.14.92-25.67,1.78s-17.06,1.92-25.53,3.3A393,393,0,0,0,443.32,266,301.21,301.21,0,0,0,395.4,284.3c-15.32,7.56-30,16.85-42.06,29.08a.1.1,0,0,1-.14,0A.11.11,0,0,1,353.19,313.24Z"/><path d="M773.67,420c-13.64,10.09-28.86,17.91-44.58,24.27-7.87,3.17-15.89,5.94-24,8.44l-3,1-3.07.84-6.14,1.66c-4.08,1.17-8.24,2-12.36,3s-8.31,1.72-12.47,2.52c-2.08.39-4.16.81-6.25,1.17l-6.28,1-6.28,1c-2.09.32-4.2.53-6.3.81l-6.3.82-3.15.4-3.16.32-12.64,1.25-12.66,1c-8.46.43-16.91,1-25.38,1.11a487,487,0,0,1-50.82-1.27,436.57,436.57,0,0,1-50.4-6.74,351.7,351.7,0,0,1-49.16-13,245.46,245.46,0,0,1-46.1-21.29.1.1,0,0,1,0-.14.11.11,0,0,1,.14,0,269.3,269.3,0,0,0,46.5,20c4,1.32,8.06,2.49,12.09,3.75,4.08,1.09,8.15,2.22,12.23,3.27s8.21,2,12.32,2.92,8.26,1.77,12.41,2.55,8.3,1.52,12.47,2.2l12.52,1.87,12.57,1.59L529,467.36q25.24,2.13,50.64,2.05a430.55,430.55,0,0,0,50.63-2.94l3.15-.35,3.14-.43,6.28-.89c2.09-.32,4.19-.58,6.27-.95l6.24-1.12,6.24-1.12c2.07-.4,4.13-.87,6.2-1.3,4.13-.88,8.27-1.71,12.36-2.77,8.24-1.88,16.38-4.14,24.47-6.53s16.09-5.11,23.95-8.19a226.42,226.42,0,0,0,45-23,.1.1,0,0,1,.14,0A.09.09,0,0,1,773.67,420Z"/><path d="M577.11,524.17a965.68,965.68,0,0,1-109.39-5.64,789.25,789.25,0,0,1-107.87-19.24c-17.71-4.52-35.24-9.78-52.47-15.94A422.68,422.68,0,0,1,257,461.77c-16.28-8.35-32-18-46.17-29.63A155.3,155.3,0,0,1,191,413a107.08,107.08,0,0,1-15.29-22.89,79.62,79.62,0,0,1-5-12.89,69.67,69.67,0,0,1-2.56-13.58A70.47,70.47,0,0,1,171,336.31a88.77,88.77,0,0,1,12.13-24.66,131.82,131.82,0,0,1,18-20.76c3.31-3.16,6.8-6.13,10.33-9.05s7.2-5.65,11-8.26A259.72,259.72,0,0,1,245.65,259,385.48,385.48,0,0,1,295.3,235.8c17-6.62,34.45-12.22,52-17.15s35.39-9.1,53.32-12.64a882.19,882.19,0,0,1,108.62-14.2,1008.88,1008.88,0,0,1,109.57-1.65,908.64,908.64,0,0,1,109.08,10.71c36.08,5.85,71.86,14,106.62,25.44a455.39,455.39,0,0,1,51.05,20.13c8.28,3.89,16.44,8.06,24.39,12.62a263.26,263.26,0,0,1,23.16,14.8,194.29,194.29,0,0,1,21.18,17.57,130.66,130.66,0,0,1,17.77,21.06,88.89,88.89,0,0,1,11.75,25,71.14,71.14,0,0,1,2.26,27.5,77.83,77.83,0,0,1-8.1,26.36A108.77,108.77,0,0,1,962.38,414c-12.19,13.78-26.9,25-42.39,34.75a346.35,346.35,0,0,1-48.84,24.92A509.59,509.59,0,0,1,819.5,492c-35,10.47-71,17.7-107.12,22.78a.1.1,0,0,1-.11-.08.09.09,0,0,1,.09-.11,743.6,743.6,0,0,0,106.85-23.53,507.91,507.91,0,0,0,51.46-18.54,344.19,344.19,0,0,0,48.55-25c15.37-9.71,29.92-21,41.9-34.63a106.38,106.38,0,0,0,15.29-22.37,75.93,75.93,0,0,0,7.8-25.76A69.59,69.59,0,0,0,981.92,338a86.77,86.77,0,0,0-11.5-24.39,128.62,128.62,0,0,0-17.51-20.71,191.36,191.36,0,0,0-21-17.36,260,260,0,0,0-23-14.67c-7.9-4.52-16-8.67-24.26-12.53a469.48,469.48,0,0,0-50.81-20.06c-34.6-11.48-70.27-19.65-106.26-25.55-18-2.95-36.1-5.28-54.25-7.11s-36.36-3.11-54.59-3.92a1006.27,1006.27,0,0,0-109.43,1.2,878.77,878.77,0,0,0-108.55,13.89c-35.81,7-71.25,16.37-105.26,29.66a380.07,380.07,0,0,0-49.49,23.25A256.62,256.62,0,0,0,223,274.37c-3.73,2.62-7.31,5.43-10.86,8.28s-6.95,5.89-10.22,9.05a130.16,130.16,0,0,0-17.72,20.66,87.63,87.63,0,0,0-11.83,24.35,69,69,0,0,0-2.65,26.8,75.24,75.24,0,0,0,7.49,25.89,105,105,0,0,0,15.09,22.51,154.62,154.62,0,0,0,19.58,18.88c14.08,11.53,29.71,21.06,45.88,29.42a419.67,419.67,0,0,0,50.18,21.59c17.16,6.17,34.63,11.46,52.29,16a804.08,804.08,0,0,0,107.6,19.68A990.1,990.1,0,0,0,577.11,524a.09.09,0,0,1,.1.1A.1.1,0,0,1,577.11,524.17Z"/><path d="M730.16,190.45c4.18.55,8.36,1.1,12.53,1.74s8.33,1.26,12.49,1.95c8.31,1.43,16.62,2.89,24.88,4.59s16.49,3.52,24.7,5.47,16.35,4.16,24.48,6.43c16.21,4.67,32.21,10,48,15.82s31.49,12.08,46.81,19.16a381.39,381.39,0,0,1,44.58,24,263.45,263.45,0,0,1,40.31,30.7c12.36,11.55,23.41,24.67,31.69,39.49a114.8,114.8,0,0,1,9.93,23.34,102.51,102.51,0,0,1,2.82,12.37,108.5,108.5,0,0,1,1.19,12.6.1.1,0,0,1-.1.1.1.1,0,0,1-.1-.09c-1-16.85-6.66-33.11-15.1-47.55A146.57,146.57,0,0,0,1024.88,320a198.63,198.63,0,0,0-17.3-18.23,250.27,250.27,0,0,0-19.27-16.18c-6.67-5.1-13.57-9.9-20.64-14.44a431.28,431.28,0,0,0-44-24.56,459.79,459.79,0,0,0-46.58-19.5Q871.11,225,865.12,223c-4-1.29-8-2.57-12-3.79q-12.08-3.69-24.28-7c-16.24-4.4-32.59-8.44-49-12s-33-6.7-49.61-9.58a.1.1,0,0,1-.08-.12A.1.1,0,0,1,730.16,190.45Z"/><path d="M906,478a562,562,0,0,1-82.16,32.34,775.88,775.88,0,0,1-85.81,21.06,978.38,978.38,0,0,1-175.83,16.37,1008.11,1008.11,0,0,1-176-14.38c-14.51-2.5-29-5.4-43.33-8.6S314.26,518,300.09,514A602.21,602.21,0,0,1,217,484c-26.84-12.13-52.79-26.63-76-45-5.77-4.6-11.38-9.42-16.7-14.55a190.14,190.14,0,0,1-15-16.31c-9.34-11.45-17.19-24.3-22.1-38.34a95.34,95.34,0,0,1-4.8-44,107.7,107.7,0,0,1,14.91-41.68,163.87,163.87,0,0,1,28-34.32,258.92,258.92,0,0,1,34.72-27.5c6.13-4.13,12.41-8,18.8-11.71s12.88-7.22,19.46-10.56c13.14-6.72,26.63-12.71,40.33-18.18s27.63-10.34,41.68-14.8,28.26-8.41,42.55-12c57.22-14.24,115.88-22.21,174.7-25.13a.09.09,0,0,1,.1.09.11.11,0,0,1-.09.11q-44.1,2.61-87.82,9.09a853.7,853.7,0,0,0-86.53,17.25q-21.37,5.46-42.4,12.18c-14,4.52-27.85,9.47-41.48,15-27.22,11.05-53.74,24.05-78.15,40.39a256.17,256.17,0,0,0-34.41,27.31,164.7,164.7,0,0,0-27.71,33.87A105.94,105.94,0,0,0,84.38,326.1,93.58,93.58,0,0,0,89,369.17c4.79,13.82,12.52,26.49,21.7,37.87a189.3,189.3,0,0,0,14.8,16.23c5.26,5.11,10.8,9.93,16.52,14.53,23,18.35,48.75,32.94,75.46,45.18a601.92,601.92,0,0,0,82.84,30.25,779.05,779.05,0,0,0,86.07,19.52q21.76,3.69,43.69,6.35T474,543.37q44,3.28,88.21,2.78,44.14-.28,88.14-4.3t87.42-11.92a793.88,793.88,0,0,0,85.78-20.56c28.15-8.53,55.84-18.74,82.38-31.5a.1.1,0,0,1,.14,0A.1.1,0,0,1,906,478Z"/><path d="M1144.21,368.07a129.7,129.7,0,0,1-1.64,21.09,124.46,124.46,0,0,1-5.23,20.54,140.83,140.83,0,0,1-8.41,19.47,158.75,158.75,0,0,1-11,18.16l-3.07,4.33-3.23,4.21L1110,458l-1.7,2-3.4,4.08-3.54,4-1.77,2-1.84,1.92-3.67,3.83-3.79,3.71a291.83,291.83,0,0,1-32.61,27.06A400,400,0,0,1,1022,529.29c-3.09,1.71-6.16,3.45-9.27,5.12s-6.22,3.33-9.37,4.92c-6.28,3.22-12.6,6.35-19,9.34a728.7,728.7,0,0,1-78.63,31.18q-20.09,6.66-40.49,12.3c-6.8,1.91-13.63,3.67-20.46,5.43s-13.71,3.35-20.6,4.89q-20.66,4.65-41.48,8.46c-13.88,2.52-27.83,4.69-41.8,6.66s-28,3.63-42,5-28.11,2.48-42.19,3.4-28.18,1.43-42.27,1.84-28.21.4-42.31.31a.1.1,0,1,1,0-.2,1322.38,1322.38,0,0,0,168.51-12.42c27.89-4,55.65-8.84,83.16-14.92s54.78-13.23,81.62-21.83c13.41-4.3,26.74-8.91,39.86-14s26.1-10.63,38.82-16.71a444.07,444.07,0,0,0,72.65-42.85,308.35,308.35,0,0,0,32.37-27l3.79-3.67,3.66-3.78,1.83-1.9,1.78-1.94,3.53-3.91,3.39-4,1.7-2,1.61-2.08,3.23-4.16,3.07-4.28a156.55,156.55,0,0,0,19.66-37.1c.65-1.63,1.15-3.32,1.68-5s1.09-3.34,1.5-5.05.91-3.39,1.32-5.1l1.07-5.16a129.48,129.48,0,0,0,2.09-21,.1.1,0,0,1,.1-.1A.09.09,0,0,1,1144.21,368.07Z"/><path d="M476.39,112.48a1092.37,1092.37,0,0,1,145.05-4.62l18.14.87c6,.32,12.09.5,18.12,1l18.1,1.39,9.05.65c3,.25,6,.59,9,.88L712,114.45c6,.5,12,1.29,18,2l18,2.17c3,.31,6,.81,9,1.24l9,1.32c6,.9,12,1.72,18,2.7l17.87,3.17c12,2,23.76,4.67,35.61,7.15l4.44.94c1.48.31,2.95.71,4.42,1.05l8.82,2.17c5.87,1.46,11.77,2.84,17.63,4.37l17.48,4.94,8.74,2.48,8.65,2.78,17.29,5.56c5.72,2,11.4,4.1,17.09,6.18l8.53,3.12c2.82,1.09,5.61,2.28,8.42,3.42l16.8,6.91a562.19,562.19,0,0,1,64.42,33.44.11.11,0,0,1,0,.14.11.11,0,0,1-.14,0L1024.17,203l-4-2.19c-1.33-.72-2.7-1.35-4.05-2l-8.13-4-8.11-4-2-1-2.07-.92-4.15-1.84-16.56-7.36-16.83-6.72c-2.81-1.1-5.6-2.26-8.42-3.32l-8.54-3-17.08-6.06L907,154.92l-8.63-2.75-8.72-2.46-17.44-5c-5.84-1.55-11.71-3-17.57-4.46l-8.78-2.2c-1.47-.36-2.93-.77-4.41-1.08l-4.42-1-17.71-3.88-4.43-1-2.21-.49-2.23-.42-8.9-1.7-17.81-3.39c-6-1-11.94-1.93-17.9-2.91l-9-1.44c-3-.46-6-1-9-1.35l-18-2.32c-12-1.69-24-2.66-36.08-3.8-3-.27-6-.59-9-.82l-9-.58-18.1-1.09c-6-.44-12.08-.53-18.12-.76l-18.13-.61c-12.08-.34-24.17-.28-36.26-.54-12.08-.11-24.17.06-36.26.32q-36.25.83-72.46,3.39a.09.09,0,0,1-.11-.09A.1.1,0,0,1,476.39,112.48Z"/><path d="M0,358.07a118.57,118.57,0,0,1,2.56-26.68,132.33,132.33,0,0,1,8.25-25.56,164,164,0,0,1,13-23.57A191.26,191.26,0,0,1,40.21,261a246.16,246.16,0,0,1,19-18.92c3.33-3,6.75-5.88,10.2-8.71l5.22-4.21,5.3-4.11a450.18,450.18,0,0,1,44.67-29.58,508,508,0,0,1,47.74-24.4q24.48-11,49.84-19.78c8.45-2.94,16.92-5.78,25.47-8.39s17.14-5.07,25.76-7.43,17.3-4.46,26-6.53,17.44-3.88,26.19-5.66a.1.1,0,0,1,0,.19A1000.09,1000.09,0,0,0,222.9,153.23c-8.42,2.94-16.75,6.13-25.06,9.35s-16.55,6.62-24.7,10.21c-16.32,7.19-32.37,15-48,23.63-7.79,4.36-15.48,8.88-22.94,13.76s-14.81,10-21.86,15.42l-5.25,4.14c-1.72,1.42-3.47,2.81-5.16,4.26-3.39,2.9-6.73,5.85-10,8.9a254.62,254.62,0,0,0-18.55,19.2c-11.64,13.41-21.88,28.16-29.23,44.35a131.68,131.68,0,0,0-12,51.62.1.1,0,0,1-.1.1A.13.13,0,0,1,0,358.07Z"/><path class="cls-3" d="M609.88,348.07A110.36,110.36,0,0,1,587.54,306c-3-11.28-2.66-17.65-3.12-42.61-.41-22.36-.91-49.87-3.12-73.26-.83-8.83-2.27-21-5-35.59A20.86,20.86,0,0,1,580.25,138c5.15-6.69,10.83-15.62,10.83-22.49,0-12.56-8.49-22.73-19-22.73s-19,10.17-19,22.73c0,6.87,5.68,15.8,10.82,22.49a20.9,20.9,0,0,1,3.95,16.53c-2.72,14.63-4.16,26.76-5,35.59-2.21,23.39-2.71,50.9-3.12,73.26-.46,25-.09,31.33-3.12,42.61a110.36,110.36,0,0,1-22.34,42.09"/><path d="M609.8,348.13A112.72,112.72,0,0,1,591.43,319,104.31,104.31,0,0,1,586,302.54a85.6,85.6,0,0,1-2-17.23c-.2-5.75-.27-11.5-.38-17.24l-.38-17.23c-.29-11.49-.51-23-1-34.44s-1.14-22.93-2.36-34.34Q579,173.5,577.7,165c-.43-2.84-.91-5.67-1.41-8.49a38.06,38.06,0,0,1-.63-4.3,21.39,21.39,0,0,1,.15-4.38,21.16,21.16,0,0,1,2.93-8.18c.76-1.26,1.7-2.36,2.54-3.51s1.67-2.33,2.47-3.52a61.46,61.46,0,0,0,4.29-7.41,26.88,26.88,0,0,0,2.58-8.07,24.51,24.51,0,0,0-4.37-16,19.41,19.41,0,0,0-6.17-5.63,15.52,15.52,0,0,0-15.88.09,19.43,19.43,0,0,0-6,5.67A24.38,24.38,0,0,0,554,117.07a26.34,26.34,0,0,0,2.6,7.91,62,62,0,0,0,4.32,7.31c.8,1.17,1.63,2.33,2.48,3.47l1.29,1.71c.45.59.88,1.21,1.28,1.85a21.79,21.79,0,0,1,3,8.41,21.17,21.17,0,0,1,.15,4.5c0,.75-.14,1.49-.26,2.23l-.38,2.13q-.75,4.23-1.42,8.48-1.32,8.51-2.29,17c-1.27,11.39-2.09,22.83-2.64,34.3-1.07,22.94-1.37,45.9-2,68.9a87.11,87.11,0,0,1-2,17.23A102.89,102.89,0,0,1,552.78,319a113.59,113.59,0,0,1-18.35,29.14.1.1,0,0,1-.16-.13,115.07,115.07,0,0,0,17.58-29.4,102,102,0,0,0,5.08-16.34,89.42,89.42,0,0,0,1.7-17c.35-22.95.39-46,1.48-68.95.55-11.49,1.27-23,2.63-34.44q1-8.58,2.41-17.11.69-4.26,1.47-8.51l.39-2.12c.11-.67.2-1.35.25-2a19.87,19.87,0,0,0-2.82-11.82c-.36-.58-.75-1.15-1.16-1.7l-1.3-1.74c-.87-1.16-1.68-2.36-2.49-3.57a62.84,62.84,0,0,1-4.34-7.57,27.8,27.8,0,0,1-2.65-8.44,22.12,22.12,0,0,1,0-4.46c.1-.73.18-1.46.31-2.19s.31-1.44.49-2.16a24.92,24.92,0,0,1,3.74-8,20.71,20.71,0,0,1,6.51-5.95,16.55,16.55,0,0,1,17,.1,20.37,20.37,0,0,1,6.38,6,24.38,24.38,0,0,1,3.6,7.94,25.31,25.31,0,0,1,.76,8.67,27.41,27.41,0,0,1-2.67,8.28,66.26,66.26,0,0,1-4.37,7.47c-.81,1.19-1.65,2.37-2.5,3.53s-1.77,2.27-2.49,3.48a20.41,20.41,0,0,0-2.9,12.17,36.53,36.53,0,0,0,.65,4.22c.52,2.83,1,5.66,1.48,8.5q1.43,8.51,2.49,17.08c1.42,11.42,2.29,22.91,2.91,34.39s1,23,1.15,34.48l.26,17.24c.08,5.75.12,11.5.27,17.22a90.25,90.25,0,0,0,1.71,17,102.26,102.26,0,0,0,5.1,16.33,113.88,113.88,0,0,0,7.67,15.35A120.15,120.15,0,0,0,610,348a.11.11,0,0,1,0,.14A.1.1,0,0,1,609.8,348.13Z"/><path class="cls-4" d="M576,41.07h-7.76V19.65h5.26a.28.28,0,0,0,.19-.49l-5.45-5V10.07H576V30.32a1.16,1.16,0,0,1-1.16,1.16H570L576,37Z"/><path d="M576,41.07l-7.76.12h-.12v-.12c-.06-3.57-.09-7.14-.12-10.71l-.08-10.71v-.32h5.53c.09,0,0,0,0,0a0,0,0,0,0,0,.07l-.54-.49L568,14.4l-.12-.1V9.69h.37l7.76,0h.36v.36l-.05,13.44-.06,6.72a1.42,1.42,0,0,1-1.13,1.46c-.65,0-1.15,0-1.73,0l-3.36,0,.13-.33L576,37l0,0v0Zm0,0L575.93,37l0,0-6.06-5.42-.36-.33H570l3.36,0c.54,0,1.17,0,1.64,0a1,1,0,0,0,.73-1l-.06-6.72-.05-13.44.35.35-7.76,0,.38-.37v4.07l-.12-.27,4.89,4.54.3.28.15.15.08.07a.53.53,0,0,1,.13.16.63.63,0,0,1-.2.82.64.64,0,0,1-.39.1h-5.21l.33-.33-.08,10.71c0,3.57-.06,7.14-.12,10.71l-.13-.12Z"/></g></g></svg>