<svg id="Ebene_1" data-name="Ebene 1" xmlns="http://www.w3.org/2000/svg" viewBox="0 0 1503.24 390.26"><defs><style>.cls-1{fill:none;stroke:#1a171b;stroke-miterlimit:10;}</style></defs><title>Unbenannt-7</title><path class="cls-1" d="M1086.85,399.45a25.5,25.5,0,0,1,28.41-22.21l2.19-17.92a1056.34,1056.34,0,0,0-313.89,1.45l2,16.47a25.5,25.5,0,0,1,6.2,50.62h0l2.34,19.19a968.66,968.66,0,0,1,292.76-1.38l2.18-17.81A25.5,25.5,0,0,1,1086.85,399.45Z" transform="translate(-208.8 -346.5)"/><path class="cls-1" d="M834,399.45a25.5,25.5,0,0,0-28.41-22.21l-2-16.47a1072.66,1072.66,0,0,0-311.49,98.45l8.14,16.22A25.5,25.5,0,0,1,523.1,521l8,15.88a984.38,984.38,0,0,1,283-89.85l-2.34-19.19A25.5,25.5,0,0,0,834,399.45Z" transform="translate(-208.8 -346.5)"/><path class="cls-1" d="M1368.15,429a1032.4,1032.4,0,0,0-250.7-69.72l-2.19,17.92a25.5,25.5,0,0,0-6.2,50.62l-2.18,17.81a947.13,947.13,0,0,1,230.91,65q26.87,11.41,52.87,24.45l7.08-14.11a25.5,25.5,0,1,1,22.88-45.58h0l9.07-18.06Q1399.47,442.23,1368.15,429Z" transform="translate(-208.8 -346.5)"/><path class="cls-1" d="M523.1,521a25.5,25.5,0,0,0-22.89-45.58l-8.14-16.22A1061.6,1061.6,0,0,0,253.9,620.3c4.08-22.91,10.42-47,14.43-62.33,2.66-10-6-12.75-13.59-4.5-49.83,53.33-51.33,152-39,165.26s111.66,12.54,165.81-36.55c8.31-7.53,5.65-16.2-4.33-13.72-15.15,3.75-38.94,9.64-61.69,13.39a975.75,975.75,0,0,1,215.49-145Z" transform="translate(-208.8 -346.5)"/><path class="cls-1" d="M1642.22,735.7l.36.36.35-.36-.36-.35Z" transform="translate(-208.8 -346.5)"/><path class="cls-1" d="M1666.09,553.47c-7.62-8.25-16.24-5.47-13.59,4.5,4,15.29,10.33,39.32,14.41,62.19-71.59-64.59-151.08-119.62-237.22-162.78l-9.07,18.06h0A25.5,25.5,0,1,0,1397.74,521l-7.08,14.11c77.91,39,149.82,88.62,214.78,146.75-22.8-3.74-46.69-9.66-61.87-13.42-10-2.48-12.64,6.19-4.33,13.72,54.14,49.09,153.36,49.81,165.81,36.55S1715.93,606.8,1666.09,553.47Z" transform="translate(-208.8 -346.5)"/><path d="M415.9,541.75c-.64.24-1,.19-1.22-.15a5.67,5.67,0,0,0-.55-.89,7.15,7.15,0,0,0-1.25-1,1.93,1.93,0,0,0-1.77,0,1,1,0,0,1-.89-.15,2.78,2.78,0,0,0-2-.48,5.31,5.31,0,0,1-2.1-.19,1.81,1.81,0,0,1-1.37.3,3.12,3.12,0,0,0-1.36,0,5.18,5.18,0,0,0-.7,0c-.22,0-.46,0-.7,0H400c-.69,0-1.38,0-2.06.08a2,2,0,0,0-.7.11c-.23.07-.46.16-.7.26l-.74.14-.74.15a.13.13,0,0,1-.15,0,.11.11,0,0,0-.14,0,6.31,6.31,0,0,1-2.59,1.11l-2.65.44-1.14.22c-.47.1-1,.23-1.48.37l-1.47.41c-.47.12-.85.21-1.15.26-.59.14-.71.44-.36.88s.49.76.73,1.11a8.06,8.06,0,0,1,.67,1.1.63.63,0,0,1,.07.67q-.37.88-.66,1.77a4.08,4.08,0,0,1-1,1.62,1,1,0,0,0-.33.44,2.3,2.3,0,0,1-.26.52,5.34,5.34,0,0,1-.95,1.4,7.37,7.37,0,0,1-.45.74c-.29.73-.59,1.46-.88,2.17s-.59,1.44-.89,2.18l-.22.22q-.58.15-.66.51a2.22,2.22,0,0,1-.3.74c-.13.54-.28,1.06-.44,1.55s-.33,1-.51,1.48a.75.75,0,0,0-.19.25,1.33,1.33,0,0,1-.11.26,6.14,6.14,0,0,0-1.7,2.58,14.71,14.71,0,0,1-.92,2.4l-1.14,2.32c-.34.64-.69,1.27-1,1.88s-.72,1.24-1.11,1.88a.8.8,0,0,0-.15.44.82.82,0,0,1-.07.37c-.1.4-.21.79-.33,1.18a1.64,1.64,0,0,1-1,1c-.14,0-.22.1-.22.3-.44.93-.92,1.84-1.44,2.72a8,8,0,0,0-1,2.81,1,1,0,0,1-.3.7,4.32,4.32,0,0,0-.51.7,4.41,4.41,0,0,0-.26.59c-.07.19-.16.42-.26.66a2.66,2.66,0,0,0-.18.81,1,1,0,0,1-.63.74.34.34,0,0,0-.18.26,1.61,1.61,0,0,1-.12.33,4.06,4.06,0,0,1-.4,1,4.15,4.15,0,0,0-.41,1c-.1.34-.19.66-.29,1s-.2.61-.3,1c-.29.69-.59,1.39-.88,2.11s-.62,1.41-1,2.1a9.65,9.65,0,0,0-.59,1.69,9.76,9.76,0,0,1-.59,1.7c-.1.1-.18.2-.26.29a2.32,2.32,0,0,1-.26.3,1.54,1.54,0,0,0-.29.59.17.17,0,0,0,.15.18.92.92,0,0,0,.29,0c.54,0,1.17-.13,1.88-.26l2.18-.37,2.14-.33a12.39,12.39,0,0,1,1.77-.15,17.34,17.34,0,0,1,2.83.23c.91.14,1.86.27,2.84.36a6.08,6.08,0,0,1,2.22.67,19,19,0,0,1,1.91,1.18,2.57,2.57,0,0,1,.59.74c.17.29.34.59.53.88a.24.24,0,0,1,.14.22.29.29,0,0,1-.07.22,1.11,1.11,0,0,0-.18,1,7.91,7.91,0,0,0,.39.77,1.9,1.9,0,0,1,.26.89,5.32,5.32,0,0,0,.19,1,.47.47,0,0,1-.08.26,1.26,1.26,0,0,0-.14.26,1.39,1.39,0,0,1-.22.29.25.25,0,0,0-.08.3,4.3,4.3,0,0,1-.44,2.17q-.53,1.07-1,2.1a2.54,2.54,0,0,1-.74,1,2.1,2.1,0,0,1-.88.52c-.1-.2-.19-.38-.26-.56a.85.85,0,0,1,0-.55,3.13,3.13,0,0,1,.08-.7,3.72,3.72,0,0,1,.22-.7c.19-.44.38-.9.55-1.36s.36-.93.55-1.37a1.27,1.27,0,0,0,0-1.29,2.74,2.74,0,0,0-1.14-.85,2.18,2.18,0,0,0-.92-.11c-.37,0-.75,0-1.15,0a2.58,2.58,0,0,0-.51.07c-.2.05-.32.05-.37,0q-.22-.59-.63-.36a5.19,5.19,0,0,1-.92.36,2.58,2.58,0,0,1-1.4.08,16.8,16.8,0,0,0-2.47.18c-.81.13-1.64.29-2.47.48-1,.25-2.09.52-3.17.81s-2.14.57-3.17.81a2.83,2.83,0,0,1-.41.11l-.41.11a1.37,1.37,0,0,0-1.1,1,2.64,2.64,0,0,1-.22.67,5.75,5.75,0,0,1-.3.51,6.21,6.21,0,0,1-.81.22l-.74.15a1,1,0,0,1-.73-.15,1.09,1.09,0,0,1-.37-.44c-.1-.2-.22-.29-.37-.29a6.93,6.93,0,0,0-2.21.51c-.69.25-1.37.48-2,.7l-2,.7c-.24.1-.48.19-.7.26a5.93,5.93,0,0,0-.63.26c-1.13.69-2.26,1.36-3.39,2s-2.28,1.29-3.46,1.88a13.14,13.14,0,0,1-5,1.62,2.24,2.24,0,0,0-.66.15c-.64.34-1.06.19-1.26-.44-.09-.3-.17-.52-.22-.67a2.53,2.53,0,0,1-.81-2c.05-.76.13-1.53.22-2.32a3.93,3.93,0,0,1,1.22-2.32,8.46,8.46,0,0,1,2.25-1.51q2.43-1.26,4.94-2.47l4.94-2.4c.93-.39,1.84-.75,2.73-1.07s1.77-.65,2.65-1a2.94,2.94,0,0,1,.7-.19,6.31,6.31,0,0,0,.7-.11,1.76,1.76,0,0,0,1.55-1.33c.2-.93.37-1.85.52-2.76s.32-1.86.51-2.84l.89-2.66a5.88,5.88,0,0,0,.11-.81,2.67,2.67,0,0,1,.19-.81c.29-.83.6-1.68.92-2.54s.65-1.71,1-2.55c.54-1.37,1.07-2.74,1.59-4.09l1.58-4.17c.35-.78.69-1.57,1-2.35s.71-1.6,1.1-2.44c.3-.69.6-1.39.92-2.1s.6-1.41.85-2.1.76-1.56,1.11-2.32.69-1.52,1-2.25l1-2.33c.31-.76.67-1.53,1.06-2.32.5-1.13,1-2.27,1.52-3.43s1-2.29,1.51-3.43c.44-1,.87-2,1.29-3s.82-2,1.21-3c.15-.54,0-.72-.59-.52l-1.32.44a10.08,10.08,0,0,0-1.26.52c-.68.25-1.34.52-1.95.81s-1.24.57-1.88.81l-3.83,1.62a39.82,39.82,0,0,0-3.77,1.85,28.12,28.12,0,0,1-3.17,1.55c-1.08.44-2.14.91-3.17,1.4a2,2,0,0,0-.37.22c-.44.34-.84.67-1.21,1a13.45,13.45,0,0,1-1.22.93.82.82,0,0,1-.48.18,4,4,0,0,1-.55,0c-.2,0-.34-.25-.44-.59s-.29-.59-.41-.89a2.49,2.49,0,0,1-.18-1,5.68,5.68,0,0,1,0-1.43c.08-.47.16-1,.26-1.52a4.19,4.19,0,0,1,.26-.88c.12-.3.26-.59.4-.89a1.56,1.56,0,0,1,.37-.51,7.38,7.38,0,0,1,1.29-1,2.82,2.82,0,0,0,1.07-1.26.29.29,0,0,1,.3-.22l2.17-1.14,2.25-1.15c.79-.39,1.58-.79,2.36-1.21s1.57-.82,2.36-1.22q.74-.36,1.44-.63c.47-.17,1-.35,1.44-.55.83-.34,1.63-.69,2.39-1s1.56-.66,2.4-1,1.46-.47,2.18-.66,1.41-.42,2.1-.67c.44-.14.88-.28,1.32-.4s.91-.26,1.41-.41,1.26-.3,1.88-.48,1.24-.33,1.88-.48c.83-.19,1.67-.38,2.5-.55s1.67-.36,2.51-.55a11.44,11.44,0,0,0,1.4-.37,13.2,13.2,0,0,1,1.33-.37,9.14,9.14,0,0,1,1.44-.18,13,13,0,0,0,1.51-.19,11.68,11.68,0,0,0,1.22-.22,11.06,11.06,0,0,1,1.21-.22c.84-.1,1.7-.19,2.58-.26s1.75-.16,2.58-.26l4.21-.22a4.5,4.5,0,0,1,.66,0,6.5,6.5,0,0,0,.66,0,15.54,15.54,0,0,0,2,.14,9,9,0,0,1,1.91.22q1.26.23,2.4.48a8.1,8.1,0,0,1,2.17.85,8.77,8.77,0,0,1,2.22,1.88,5.74,5.74,0,0,1,1.18,2.62c.09.34.18.68.25,1s.16.66.26,1A.67.67,0,0,1,415.9,541.75Zm-59.51,54.71a.12.12,0,0,0,.11,0,.18.18,0,0,1,.11,0,1.08,1.08,0,0,1-.18-.44,1.24,1.24,0,0,0-.19-.45l-.22,0-.22,0a2.12,2.12,0,0,0-.11.48,1.22,1.22,0,0,1-.18.48.2.2,0,0,0,0,.11s0,.08,0,.18l-.22.88a.48.48,0,0,1-.12.3c-.07.1-.08.17,0,.22a.31.31,0,0,0,.44.07c.15,0,.3-.12.44-.36a2.88,2.88,0,0,0,.19-.74A2.5,2.5,0,0,1,356.39,596.46Zm.74-1.92-.37-.36a.93.93,0,0,0-.37-.23.68.68,0,0,0-.37.19c-.14.12-.22.21-.22.26a1.21,1.21,0,0,0,.37.73c.05,0,.17,0,.37-.14Zm2.36-6.71c.05-.49-.06-.73-.33-.73a1.51,1.51,0,0,1-.7-.15.58.58,0,0,0-.34.15c-.12.1-.23.19-.33.29a3.14,3.14,0,0,1,.41.52,1.57,1.57,0,0,0,.4.44q.15.07.45-.15A5.51,5.51,0,0,0,359.49,587.83Zm-.08-3.51s.09.08.11.08a.19.19,0,0,1,.12.07c-.05.21-.09.38-.12.53a5.06,5.06,0,0,1-.11.53,2.24,2.24,0,0,1,0,.34,1.48,1.48,0,0,0,0,.34s.1.08.3.08l.44-.69a3,3,0,0,1,.33-.65,3.38,3.38,0,0,0,.33-.66.6.6,0,0,0,.08-.29.66.66,0,0,1,.07-.3.64.64,0,0,1,.22-.44,4.83,4.83,0,0,0,.37-.88,3.38,3.38,0,0,0,.11-.48,1.08,1.08,0,0,1,.18-.48c.54-.79.62-1.43.23-1.92a4.36,4.36,0,0,0,1.06-1.25.67.67,0,0,0-.18-.81,5.65,5.65,0,0,0-.59.92c-.2.37-.57.45-1.11.26a3.94,3.94,0,0,0,.19.66,3.19,3.19,0,0,1,.15.59.94.94,0,0,1-.11.55,1.81,1.81,0,0,1-.67.56c.3.34.43.56.41.66s-.29.32-.78.66a2.38,2.38,0,0,0-.29.37,4.8,4.8,0,0,0-.3.52,1.24,1.24,0,0,1,.37-.08,3,3,0,0,0,.52-.07,5.76,5.76,0,0,0-.7.68C359.79,583.92,359.61,584.12,359.41,584.32Zm5.24-8.73a5.71,5.71,0,0,1-.52-.33,1.51,1.51,0,0,0-.36-.18s-.2.12-.45.37a3.31,3.31,0,0,0,.3.25,1.17,1.17,0,0,0,.37.19C364,575.94,364.26,575.84,364.65,575.59Zm23.82-40.19-.15.15h-.44a1.86,1.86,0,0,1-.41.22L387,536a3.45,3.45,0,0,1,.3.34c.1.12.19.23.29.33s.27.07.52-.08.38-.19.55-.29l.56-.3c-.1-.09-.21-.19-.34-.29A4.63,4.63,0,0,0,388.47,535.4Zm11.06-.73a2.55,2.55,0,0,0-2.14-.37,11,11,0,0,1-1.55.18l-1.55.11a.31.31,0,0,1-.18,0s-.09,0-.19,0c-.39.1-.78.18-1.18.26a6.74,6.74,0,0,0-1.18.33c-.09,0-.19.07-.29.22a.72.72,0,0,0-.15.37c-.05.1,0,.18.08.26a.48.48,0,0,0,.29.11,8.9,8.9,0,0,1,.92-.11,3.29,3.29,0,0,0,1-.26,1.86,1.86,0,0,1,1.55-.07,1.15,1.15,0,0,0,.7.07,2.42,2.42,0,0,0,.7-.3,1.48,1.48,0,0,1,1-.07A1.69,1.69,0,0,0,399.53,534.67Zm.51,0a4.59,4.59,0,0,1,.3.51c.1.2.27.22.52.08a1.26,1.26,0,0,1,.84-.33,6,6,0,0,1,.7.11c.25.05.48.08.7.11a2.46,2.46,0,0,0,.71,0,.63.63,0,0,0,.44-.26,1.77,1.77,0,0,1,.51-.4,2.28,2.28,0,0,1-.36-.3.43.43,0,0,0-.3-.15c-.69.1-1.36.21-2,.34S400.73,534.57,400,534.67Zm6.49.44q1,.58,1.29.48c.23-.07.53-.45.93-1.14a2.93,2.93,0,0,1-.45-.37.32.32,0,0,0-.44-.08,1.85,1.85,0,0,0-.66.45Zm2.66.88q1.32-.59.81-1.32c0-.1-.06-.14-.18-.11a.55.55,0,0,1-.34,0,.16.16,0,0,1,0,.11.14.14,0,0,0,0,.11l.37.37C409.63,535.36,409.43,535.65,409.19,536Z" transform="translate(-208.8 -346.5)"/><path d="M697.9,422.75c-.64.24-1,.19-1.22-.15a5.67,5.67,0,0,0-.55-.89,7.15,7.15,0,0,0-1.25-1,1.93,1.93,0,0,0-1.77,0,1,1,0,0,1-.89-.15,2.78,2.78,0,0,0-2-.48,5.31,5.31,0,0,1-2.1-.19,1.81,1.81,0,0,1-1.37.3,3.12,3.12,0,0,0-1.36,0,5.18,5.18,0,0,0-.7,0c-.22,0-.46,0-.7,0H682c-.69,0-1.38,0-2.06.08a2,2,0,0,0-.7.11c-.23.07-.46.16-.7.26l-.74.14-.74.15a.13.13,0,0,1-.15,0,.11.11,0,0,0-.14,0,6.31,6.31,0,0,1-2.59,1.11l-2.65.44-1.14.22c-.47.1-1,.23-1.48.37l-1.47.41c-.47.12-.85.21-1.15.26-.59.14-.71.44-.36.88s.49.76.73,1.11a8.06,8.06,0,0,1,.67,1.1.63.63,0,0,1,.07.67q-.37.88-.66,1.77a4.08,4.08,0,0,1-1,1.62,1,1,0,0,0-.33.44,2.3,2.3,0,0,1-.26.52,5.34,5.34,0,0,1-1,1.4,7.37,7.37,0,0,1-.45.74c-.29.73-.59,1.46-.88,2.17s-.59,1.44-.89,2.18l-.22.22q-.59.15-.66.51a2.22,2.22,0,0,1-.3.74c-.13.54-.28,1.06-.44,1.55s-.33,1-.51,1.47a.88.88,0,0,0-.19.26,1.33,1.33,0,0,1-.11.26,6.14,6.14,0,0,0-1.7,2.58,14.71,14.71,0,0,1-.92,2.4c-.37.76-.75,1.54-1.14,2.32s-.69,1.27-1,1.88-.72,1.24-1.11,1.88a.8.8,0,0,0-.15.44.82.82,0,0,1-.07.37c-.1.4-.21.79-.33,1.18a1.64,1.64,0,0,1-1,1c-.14,0-.22.1-.22.3-.44.93-.92,1.84-1.44,2.72a8,8,0,0,0-1,2.81,1,1,0,0,1-.3.7,4.32,4.32,0,0,0-.51.7,5.05,5.05,0,0,0-.26.59c-.07.19-.16.42-.26.66a2.66,2.66,0,0,0-.18.81,1,1,0,0,1-.63.74.34.34,0,0,0-.18.26,1.61,1.61,0,0,1-.12.33,4.06,4.06,0,0,1-.4,1,4.15,4.15,0,0,0-.41,1c-.1.34-.19.66-.29,1s-.2.61-.3.95c-.29.69-.59,1.39-.88,2.11s-.62,1.41-1,2.1a9.65,9.65,0,0,0-.59,1.69,9.76,9.76,0,0,1-.59,1.7c-.1.1-.18.2-.26.29a2.32,2.32,0,0,1-.26.3,1.54,1.54,0,0,0-.29.59.17.17,0,0,0,.15.18.92.92,0,0,0,.29,0c.54-.05,1.17-.13,1.88-.26l2.18-.37,2.14-.33a12.39,12.39,0,0,1,1.77-.15,17.34,17.34,0,0,1,2.83.23c.91.14,1.86.27,2.84.36a6.08,6.08,0,0,1,2.22.67,21.06,21.06,0,0,1,1.91,1.18,2.44,2.44,0,0,1,.59.74c.17.29.34.59.53.88a.24.24,0,0,1,.14.22.29.29,0,0,1-.07.22,1.11,1.11,0,0,0-.18,1,7.91,7.91,0,0,0,.39.77,1.9,1.9,0,0,1,.26.89,5.32,5.32,0,0,0,.19,1,.47.47,0,0,1-.08.26,1.26,1.26,0,0,0-.14.26,1.71,1.71,0,0,1-.22.29.25.25,0,0,0-.08.3,4.3,4.3,0,0,1-.44,2.17q-.52,1.06-1,2.1a2.54,2.54,0,0,1-.74,1,2.1,2.1,0,0,1-.88.52c-.1-.2-.19-.38-.26-.56a.85.85,0,0,1,0-.55,3.13,3.13,0,0,1,.08-.7,3.72,3.72,0,0,1,.22-.7c.19-.44.38-.9.55-1.36s.36-.93.55-1.37a1.27,1.27,0,0,0,0-1.29,2.74,2.74,0,0,0-1.14-.85,2.35,2.35,0,0,0-.92-.11c-.37,0-.75,0-1.15,0a2.58,2.58,0,0,0-.51.07c-.2.05-.32.05-.37,0-.15-.39-.36-.51-.63-.37a4,4,0,0,1-.92.37,2.58,2.58,0,0,1-1.4.08,16.8,16.8,0,0,0-2.47.18c-.81.12-1.64.28-2.47.48-1,.25-2.09.52-3.17.81s-2.14.57-3.17.81a2.83,2.83,0,0,1-.41.11l-.41.11a1.37,1.37,0,0,0-1.1,1,2.64,2.64,0,0,1-.22.67,4.59,4.59,0,0,1-.3.51,6.21,6.21,0,0,1-.81.22l-.74.15a1,1,0,0,1-.73-.15,1.09,1.09,0,0,1-.37-.44c-.1-.2-.22-.29-.37-.29a6.93,6.93,0,0,0-2.21.51c-.69.25-1.37.48-2,.7l-2,.7c-.24.1-.48.19-.7.26a5.93,5.93,0,0,0-.63.26c-1.13.69-2.26,1.36-3.39,2s-2.28,1.29-3.46,1.88a13.14,13.14,0,0,1-5,1.62,2.24,2.24,0,0,0-.66.15c-.64.34-1.06.19-1.26-.44-.09-.3-.17-.52-.22-.67a2.53,2.53,0,0,1-.81-2c.05-.76.13-1.53.22-2.32a3.93,3.93,0,0,1,1.22-2.32,8.46,8.46,0,0,1,2.25-1.51q2.43-1.26,4.94-2.47l4.94-2.4c.93-.39,1.84-.75,2.73-1.07s1.77-.65,2.65-1a2.94,2.94,0,0,1,.7-.19,6.31,6.31,0,0,0,.7-.11,1.76,1.76,0,0,0,1.55-1.33c.2-.93.37-1.85.52-2.76s.32-1.86.51-2.84l.89-2.66a5.88,5.88,0,0,0,.11-.81,2.67,2.67,0,0,1,.19-.81c.29-.83.6-1.68.92-2.54s.65-1.71,1-2.55c.54-1.37,1.07-2.74,1.59-4.09l1.58-4.16c.35-.79.69-1.58,1-2.36s.71-1.6,1.1-2.44c.3-.69.6-1.39.92-2.1s.6-1.41.85-2.1.76-1.56,1.11-2.32.69-1.52,1-2.25l1-2.33c.31-.76.67-1.53,1.06-2.32.5-1.13,1-2.27,1.52-3.43s1-2.29,1.51-3.43c.44-1,.87-2,1.29-3s.82-2,1.21-3c.15-.54,0-.71-.59-.52l-1.32.44a10.08,10.08,0,0,0-1.26.52c-.68.25-1.34.52-2,.81s-1.24.57-1.88.81l-3.83,1.62a39.82,39.82,0,0,0-3.77,1.85,28.12,28.12,0,0,1-3.17,1.55c-1.08.44-2.14.91-3.17,1.4a2,2,0,0,0-.37.22c-.44.34-.84.67-1.21,1a13.45,13.45,0,0,1-1.22.93.82.82,0,0,1-.48.18,4,4,0,0,1-.55,0c-.2,0-.34-.25-.44-.59s-.29-.59-.41-.89a2.49,2.49,0,0,1-.18-1,5.68,5.68,0,0,1,0-1.43c.08-.47.16-1,.26-1.52a4.19,4.19,0,0,1,.26-.88c.12-.3.26-.59.4-.89a1.56,1.56,0,0,1,.37-.51,7.38,7.38,0,0,1,1.29-1,2.82,2.82,0,0,0,1.07-1.26.29.29,0,0,1,.3-.22l2.17-1.14,2.25-1.15c.79-.39,1.58-.79,2.36-1.21s1.57-.82,2.36-1.22q.74-.36,1.44-.63c.47-.17,1-.35,1.44-.55.83-.34,1.63-.69,2.39-1s1.56-.66,2.4-1,1.46-.47,2.18-.66,1.41-.42,2.1-.67c.44-.14.88-.28,1.32-.4s.91-.26,1.41-.41,1.26-.3,1.88-.48,1.24-.33,1.88-.48c.83-.19,1.67-.38,2.5-.55s1.67-.36,2.51-.55a11.44,11.44,0,0,0,1.4-.37,13.2,13.2,0,0,1,1.33-.37,9.14,9.14,0,0,1,1.44-.18,13,13,0,0,0,1.51-.19,11.68,11.68,0,0,0,1.22-.22,11.06,11.06,0,0,1,1.21-.22c.84-.1,1.7-.19,2.58-.26s1.75-.16,2.58-.26l4.21-.22a4.5,4.5,0,0,1,.66,0,6.5,6.5,0,0,0,.66,0,15.54,15.54,0,0,0,2,.14,9,9,0,0,1,1.91.22q1.26.22,2.4.48a8.1,8.1,0,0,1,2.17.85,8.77,8.77,0,0,1,2.22,1.88,5.74,5.74,0,0,1,1.18,2.62c.09.34.18.68.25,1s.16.66.26,1A.67.67,0,0,1,697.9,422.75Zm-59.51,54.71a.12.12,0,0,0,.11,0,.18.18,0,0,1,.11,0,1.07,1.07,0,0,1-.18-.45,1.28,1.28,0,0,0-.19-.44l-.22,0-.22,0a2.12,2.12,0,0,0-.11.48,1.12,1.12,0,0,1-.18.47.21.21,0,0,0,0,.12s0,.08,0,.18l-.22.88a.48.48,0,0,1-.12.3c-.07.1-.08.17,0,.22a.31.31,0,0,0,.44.07c.15,0,.3-.12.44-.36a3,3,0,0,0,.19-.74A2.5,2.5,0,0,1,638.39,477.46Zm.74-1.92-.37-.36a.93.93,0,0,0-.37-.23.68.68,0,0,0-.37.19c-.14.12-.22.21-.22.26a1.21,1.21,0,0,0,.37.73c.05.05.17,0,.37-.14Zm2.36-6.71c0-.49-.06-.73-.33-.73a1.51,1.51,0,0,1-.7-.15.58.58,0,0,0-.34.15c-.12.1-.23.19-.33.29a3.14,3.14,0,0,1,.41.52,1.57,1.57,0,0,0,.4.44q.15.07.45-.15A5.51,5.51,0,0,0,641.49,468.83Zm-.08-3.51c.05.05.09.08.11.08a.19.19,0,0,1,.12.07c0,.21-.09.38-.12.53a5.06,5.06,0,0,1-.11.53,2.24,2.24,0,0,1,0,.34,1.48,1.48,0,0,0,0,.34c0,.05.1.08.3.08l.44-.69a3.38,3.38,0,0,1,.33-.66,3,3,0,0,0,.33-.65.6.6,0,0,0,.08-.29.66.66,0,0,1,.07-.3.64.64,0,0,1,.22-.44,4.83,4.83,0,0,0,.37-.88,3.38,3.38,0,0,0,.11-.48,1.08,1.08,0,0,1,.18-.48c.54-.79.62-1.43.23-1.92a4.36,4.36,0,0,0,1.06-1.25.67.67,0,0,0-.18-.81,5.65,5.65,0,0,0-.59.92c-.2.37-.57.45-1.11.26a3.94,3.94,0,0,0,.19.66,3.19,3.19,0,0,1,.15.59.94.94,0,0,1-.11.55,1.81,1.81,0,0,1-.67.56c.3.34.43.56.41.66s-.29.32-.78.66a2.38,2.38,0,0,0-.29.37,4.8,4.8,0,0,0-.3.52,1.24,1.24,0,0,1,.37-.08,3,3,0,0,0,.52-.07,5.76,5.76,0,0,0-.7.68C641.79,464.92,641.61,465.12,641.41,465.32Zm5.24-8.73a5.71,5.71,0,0,1-.52-.33,1.51,1.51,0,0,0-.36-.18s-.2.12-.45.37a3.31,3.31,0,0,0,.3.25,1.17,1.17,0,0,0,.37.19C646,456.94,646.26,456.84,646.65,456.59Zm23.82-40.19-.15.15h-.44a1.86,1.86,0,0,1-.41.22L669,417a3.45,3.45,0,0,1,.3.34c.1.12.19.23.29.33s.27.07.52-.08.38-.19.55-.29l.56-.3c-.1-.09-.21-.19-.34-.29A4.63,4.63,0,0,0,670.47,416.4Zm11.06-.73a2.55,2.55,0,0,0-2.14-.37,11,11,0,0,1-1.55.18l-1.55.11a.31.31,0,0,1-.18,0s-.09,0-.19,0c-.39.1-.78.18-1.18.26a6.74,6.74,0,0,0-1.18.33c-.09,0-.19.07-.29.22a.72.72,0,0,0-.15.37c0,.1,0,.18.08.26a.48.48,0,0,0,.29.11,8.9,8.9,0,0,1,.92-.11,3.29,3.29,0,0,0,1-.26,1.86,1.86,0,0,1,1.55-.07,1.15,1.15,0,0,0,.7.07,2.42,2.42,0,0,0,.7-.3,1.48,1.48,0,0,1,1-.07A1.69,1.69,0,0,0,681.53,415.67Zm.51,0a4.59,4.59,0,0,1,.3.51c.1.2.27.22.52.08a1.26,1.26,0,0,1,.84-.33,6,6,0,0,1,.7.11c.25,0,.48.08.7.11a2.46,2.46,0,0,0,.71,0,.63.63,0,0,0,.44-.26,1.77,1.77,0,0,1,.51-.4,2.28,2.28,0,0,1-.36-.3.43.43,0,0,0-.3-.15c-.69.1-1.36.21-2,.34S682.73,415.57,682,415.67Zm6.49.44q1,.58,1.29.48c.23-.07.53-.45.93-1.14a2.93,2.93,0,0,1-.45-.37.32.32,0,0,0-.44-.08,1.85,1.85,0,0,0-.66.45Zm2.66.88q1.32-.58.81-1.32c0-.1-.06-.14-.18-.11a.55.55,0,0,1-.34,0,.16.16,0,0,1,0,.11.14.14,0,0,0,0,.11l.37.37C691.63,416.36,691.43,416.65,691.19,417Z" transform="translate(-208.8 -346.5)"/><path d="M750.55,422.75c-.64.24-1,.19-1.22-.15a5.67,5.67,0,0,0-.55-.89,6.86,6.86,0,0,0-1.26-1,1.93,1.93,0,0,0-1.77,0,.94.94,0,0,1-.88-.15,2.78,2.78,0,0,0-2-.48,5.38,5.38,0,0,1-2.11-.19,1.78,1.78,0,0,1-1.36.3,3.12,3.12,0,0,0-1.36,0,5.18,5.18,0,0,0-.7,0c-.23,0-.46,0-.71,0h-2.06c-.69,0-1.38,0-2.06.08a2.11,2.11,0,0,0-.71.11c-.22.07-.45.16-.7.26l-.73.14-.74.15a.13.13,0,0,1-.15,0s-.1,0-.15,0a6.22,6.22,0,0,1-2.58,1.11l-2.65.44-1.14.22c-.47.1-1,.23-1.48.37l-1.47.41c-.47.12-.85.21-1.15.26-.59.14-.71.44-.37.88s.5.76.74,1.11A8.06,8.06,0,0,1,720,427a.63.63,0,0,1,.07.67q-.37.88-.66,1.77a4.2,4.2,0,0,1-1,1.62,1,1,0,0,0-.33.44,2.3,2.3,0,0,1-.26.52,5.16,5.16,0,0,1-1,1.4,5.61,5.61,0,0,1-.44.74c-.29.73-.59,1.46-.88,2.17s-.59,1.44-.89,2.18l-.22.22q-.58.15-.66.51a2.22,2.22,0,0,1-.3.74c-.13.54-.28,1.06-.44,1.55s-.33,1-.52,1.47a.81.81,0,0,0-.18.26,2.49,2.49,0,0,1-.11.26,6.14,6.14,0,0,0-1.7,2.58,14.71,14.71,0,0,1-.92,2.4c-.37.76-.75,1.54-1.14,2.32s-.69,1.27-1,1.88-.72,1.24-1.11,1.88a.8.8,0,0,0-.15.44.82.82,0,0,1-.07.37c-.1.4-.21.79-.33,1.18a1.66,1.66,0,0,1-1,1c-.15,0-.22.1-.22.3-.44.93-.92,1.84-1.44,2.72a7.81,7.81,0,0,0-1,2.81,1,1,0,0,1-.3.7,4.32,4.32,0,0,0-.51.7,5.05,5.05,0,0,0-.26.59c-.08.19-.16.42-.26.66a2.66,2.66,0,0,0-.18.81,1,1,0,0,1-.63.74.37.37,0,0,0-.19.26,1.17,1.17,0,0,1-.11.33,4.52,4.52,0,0,1-.4,1,4.15,4.15,0,0,0-.41,1c-.1.34-.19.66-.29,1s-.2.61-.3.95c-.29.69-.59,1.39-.88,2.11s-.62,1.41-1,2.1a9.65,9.65,0,0,0-.59,1.69,9.76,9.76,0,0,1-.59,1.7,3.22,3.22,0,0,0-.26.29,2.32,2.32,0,0,1-.26.3,1.54,1.54,0,0,0-.29.59.17.17,0,0,0,.15.18.92.92,0,0,0,.29,0c.54-.05,1.17-.13,1.88-.26l2.18-.37L701,480a12.63,12.63,0,0,1,1.77-.15,17.37,17.37,0,0,1,2.84.23c.91.14,1.86.27,2.84.36a6,6,0,0,1,2.21.67,18.61,18.61,0,0,1,1.91,1.18,2.32,2.32,0,0,1,.6.74c.17.29.34.59.53.88a.24.24,0,0,1,.14.22.34.34,0,0,1-.07.22,1.08,1.08,0,0,0-.18,1,7.91,7.91,0,0,0,.39.77,1.9,1.9,0,0,1,.26.89,5.32,5.32,0,0,0,.19,1,.47.47,0,0,1-.08.26,2,2,0,0,0-.15.26,1.31,1.31,0,0,1-.22.29.26.26,0,0,0-.07.3,4.3,4.3,0,0,1-.44,2.17q-.53,1.06-1,2.1a2.65,2.65,0,0,1-.74,1,2.1,2.1,0,0,1-.88.52c-.1-.2-.19-.38-.26-.56a.79.79,0,0,1,0-.55,3.14,3.14,0,0,1,.07-.7,4.74,4.74,0,0,1,.23-.7c.19-.44.38-.9.55-1.36s.36-.93.55-1.37a1.27,1.27,0,0,0,0-1.29,2.74,2.74,0,0,0-1.14-.85,2.38,2.38,0,0,0-.93-.11c-.36,0-.75,0-1.14,0a2.77,2.77,0,0,0-.52.07c-.19.05-.32.05-.36,0-.15-.39-.36-.51-.63-.37a4,4,0,0,1-.92.37,2.58,2.58,0,0,1-1.4.08,16.8,16.8,0,0,0-2.47.18c-.81.12-1.64.28-2.47.48-1,.25-2.09.52-3.17.81s-2.14.57-3.18.81a2.43,2.43,0,0,1-.4.11l-.41.11a1.37,1.37,0,0,0-1.1,1,3.1,3.1,0,0,1-.22.67,4.59,4.59,0,0,1-.3.51,6.21,6.21,0,0,1-.81.22l-.74.15a1,1,0,0,1-.73-.15,1,1,0,0,1-.37-.44c-.1-.2-.22-.29-.37-.29a6.93,6.93,0,0,0-2.21.51c-.69.25-1.37.48-2,.7s-1.34.46-2,.7c-.25.1-.48.19-.7.26a5.93,5.93,0,0,0-.63.26c-1.13.69-2.26,1.36-3.39,2s-2.29,1.29-3.46,1.88a13.19,13.19,0,0,1-5,1.62,2.24,2.24,0,0,0-.66.15c-.64.34-1.06.19-1.26-.44-.09-.3-.17-.52-.22-.67a2.53,2.53,0,0,1-.81-2c0-.76.12-1.53.22-2.32a3.93,3.93,0,0,1,1.22-2.32,8.46,8.46,0,0,1,2.25-1.51q2.43-1.26,4.94-2.47l4.94-2.4c.93-.39,1.84-.75,2.73-1.07s1.77-.65,2.65-1a2.94,2.94,0,0,1,.7-.19,6.31,6.31,0,0,0,.7-.11,1.77,1.77,0,0,0,1.55-1.33c.2-.93.37-1.85.52-2.76s.32-1.86.51-2.84l.89-2.66a8,8,0,0,0,.11-.81,2.66,2.66,0,0,1,.18-.81c.3-.83.61-1.68.93-2.54s.65-1.71,1-2.55c.54-1.37,1.07-2.74,1.59-4.09l1.58-4.16c.35-.79.69-1.58,1-2.36s.72-1.6,1.11-2.44c.3-.69.6-1.39.92-2.1s.6-1.41.85-2.1.76-1.56,1.11-2.32.68-1.52,1-2.25.67-1.56,1-2.33.68-1.53,1.07-2.32c.49-1.13,1-2.27,1.52-3.43l1.51-3.43c.44-1,.87-2,1.29-3l1.21-3c.15-.54,0-.71-.59-.52l-1.32.44a9.5,9.5,0,0,0-1.26.52q-1,.38-2,.81c-.62.3-1.24.57-1.88.81l-3.84,1.62a39.66,39.66,0,0,0-3.76,1.85,28.12,28.12,0,0,1-3.17,1.55c-1.08.44-2.14.91-3.17,1.4a1.71,1.71,0,0,0-.37.22c-.44.34-.85.67-1.21,1a13.45,13.45,0,0,1-1.22.93.82.82,0,0,1-.48.18,4.16,4.16,0,0,1-.55,0c-.2,0-.35-.25-.45-.59s-.28-.59-.4-.89a2.49,2.49,0,0,1-.19-1,6.18,6.18,0,0,1,0-1.43c.08-.47.16-1,.26-1.52a4.19,4.19,0,0,1,.26-.88c.12-.3.26-.59.4-.89a1.56,1.56,0,0,1,.37-.51,7.38,7.38,0,0,1,1.29-1,2.82,2.82,0,0,0,1.07-1.26.29.29,0,0,1,.3-.22l2.17-1.14,2.25-1.15c.79-.39,1.57-.79,2.36-1.21s1.57-.82,2.36-1.22q.74-.36,1.44-.63l1.44-.55c.83-.34,1.63-.69,2.39-1s1.56-.66,2.4-1,1.46-.47,2.17-.66,1.42-.42,2.11-.67c.44-.14.88-.28,1.32-.4s.91-.26,1.4-.41,1.27-.3,1.89-.48,1.24-.33,1.88-.48c.83-.19,1.67-.38,2.5-.55s1.67-.36,2.51-.55a11.44,11.44,0,0,0,1.4-.37,13.2,13.2,0,0,1,1.33-.37,9.14,9.14,0,0,1,1.44-.18,13,13,0,0,0,1.51-.19,11.06,11.06,0,0,0,1.21-.22,11.68,11.68,0,0,1,1.22-.22c.84-.1,1.7-.19,2.58-.26s1.75-.16,2.58-.26l4.21-.22a4.5,4.5,0,0,1,.66,0,6.5,6.5,0,0,0,.66,0,15.39,15.39,0,0,0,2,.14,9,9,0,0,1,1.92.22q1.26.22,2.4.48a8.23,8.23,0,0,1,2.17.85,8.77,8.77,0,0,1,2.22,1.88,5.74,5.74,0,0,1,1.18,2.62c.09.34.18.68.25,1s.16.66.26,1A.67.67,0,0,1,750.55,422.75ZM691,477.46a.12.12,0,0,0,.11,0,.16.16,0,0,1,.11,0,1.07,1.07,0,0,1-.18-.45,1.28,1.28,0,0,0-.19-.44l-.22,0-.22,0a2.12,2.12,0,0,0-.11.48,1.28,1.28,0,0,1-.18.47.21.21,0,0,0,0,.12s0,.08,0,.18l-.23.88a.47.47,0,0,1-.11.3c-.07.1-.08.17,0,.22a.31.31,0,0,0,.44.07c.15,0,.29-.12.44-.36a3,3,0,0,0,.19-.74A2.5,2.5,0,0,1,691,477.46Zm.74-1.92-.37-.36A.93.93,0,0,0,691,475a.68.68,0,0,0-.37.19c-.15.12-.22.21-.22.26a1.21,1.21,0,0,0,.37.73c0,.05.17,0,.37-.14Zm2.36-6.71c.05-.49-.07-.73-.33-.73a1.55,1.55,0,0,1-.71-.15.59.59,0,0,0-.33.15c-.12.1-.23.19-.33.29a3.14,3.14,0,0,1,.41.52,1.44,1.44,0,0,0,.4.44c.1,0,.25,0,.44-.15A4.46,4.46,0,0,0,694.14,468.83Zm-.08-3.51c.05.05.09.08.11.08s.06,0,.11.07c0,.21-.08.38-.11.53a5.06,5.06,0,0,1-.11.53,2.24,2.24,0,0,1,0,.34,1.48,1.48,0,0,0,0,.34c0,.05.1.08.29.08l.45-.69a2.9,2.9,0,0,1,.33-.66,3,3,0,0,0,.33-.65.59.59,0,0,0,.07-.29.67.67,0,0,1,.08-.3.64.64,0,0,1,.22-.44,4.83,4.83,0,0,0,.37-.88,3.38,3.38,0,0,0,.11-.48,1.08,1.08,0,0,1,.18-.48c.54-.79.62-1.43.22-1.92a4.44,4.44,0,0,0,1.07-1.25.68.68,0,0,0-.18-.81,5.65,5.65,0,0,0-.59.92c-.2.37-.57.45-1.11.26a3.94,3.94,0,0,0,.19.66,3.19,3.19,0,0,1,.15.59.88.88,0,0,1-.12.55,1.68,1.68,0,0,1-.66.56c.3.34.43.56.41.66s-.29.32-.78.66a1.9,1.9,0,0,0-.29.37,4.8,4.8,0,0,0-.3.52,1.24,1.24,0,0,1,.37-.08,3,3,0,0,0,.52-.07,5.76,5.76,0,0,0-.7.68C694.44,464.92,694.26,465.12,694.06,465.32Zm5.24-8.73a5.71,5.71,0,0,1-.52-.33,1.42,1.42,0,0,0-.37-.18s-.19.12-.44.37a3.31,3.31,0,0,0,.3.25,1.07,1.07,0,0,0,.37.19Q698.7,457,699.3,456.59Zm23.82-40.19-.15.15h-.44a1.86,1.86,0,0,1-.41.22l-.48.22a3.45,3.45,0,0,1,.3.34,3.11,3.11,0,0,0,.29.33c.1.1.27.07.52-.08s.38-.19.55-.29l.55-.3-.33-.29Zm11.06-.73a2.55,2.55,0,0,0-2.14-.37,11,11,0,0,1-1.55.18l-1.55.11a.31.31,0,0,1-.18,0s-.09,0-.19,0c-.39.1-.78.18-1.18.26a6.74,6.74,0,0,0-1.18.33c-.1,0-.19.07-.29.22a.72.72,0,0,0-.15.37c0,.1,0,.18.08.26a.48.48,0,0,0,.29.11,8.9,8.9,0,0,1,.92-.11,3.29,3.29,0,0,0,1-.26,1.86,1.86,0,0,1,1.55-.07,1.14,1.14,0,0,0,.7.07,2.42,2.42,0,0,0,.7-.3,1.48,1.48,0,0,1,1-.07A1.7,1.7,0,0,0,734.18,415.67Zm.51,0a4.59,4.59,0,0,1,.3.51c.1.2.27.22.51.08a1.29,1.29,0,0,1,.85-.33,6.31,6.31,0,0,1,.7.11c.25,0,.48.08.7.11a2.38,2.38,0,0,0,.7,0,.63.63,0,0,0,.45-.26,1.65,1.65,0,0,1,.51-.4,3,3,0,0,1-.37-.3.4.4,0,0,0-.29-.15c-.69.1-1.36.21-2,.34S735.38,415.57,734.69,415.67Zm6.49.44q1,.58,1.29.48t.93-1.14a2.93,2.93,0,0,1-.45-.37.32.32,0,0,0-.44-.08,1.85,1.85,0,0,0-.66.45Zm2.66.88q1.32-.58.81-1.32c0-.1-.06-.14-.19-.11a.53.53,0,0,1-.33,0,.16.16,0,0,1,0,.11.14.14,0,0,0,0,.11l.37.37C744.28,416.36,744.08,416.65,743.84,417Z" transform="translate(-208.8 -346.5)"/><path d="M971.44,354.29c-.56.22-.93.17-1.08-.13a4,4,0,0,0-.49-.79,6,6,0,0,0-1.11-.88,1.73,1.73,0,0,0-1.57,0,.79.79,0,0,1-.78-.13,2.43,2.43,0,0,0-1.74-.42,4.73,4.73,0,0,1-1.86-.17,1.61,1.61,0,0,1-1.21.26,3.08,3.08,0,0,0-1.21,0,5.87,5.87,0,0,0-.62,0c-.2,0-.41,0-.62,0h-1.84q-.91,0-1.83.06a2.12,2.12,0,0,0-.62.1l-.62.23-.65.13-.66.13a.1.1,0,0,1-.13,0s-.09,0-.13,0a5.53,5.53,0,0,1-2.29,1l-2.35.39-1,.2c-.41.09-.85.19-1.31.33s-.89.25-1.3.35-.76.19-1,.23c-.52.13-.63.4-.32.79s.43.68.65,1a8,8,0,0,1,.59,1,.54.54,0,0,1,.06.59c-.21.52-.41,1.05-.58,1.57a3.88,3.88,0,0,1-.92,1.44.78.78,0,0,0-.29.39,2.81,2.81,0,0,1-.23.46,5,5,0,0,1-.85,1.24,6.46,6.46,0,0,1-.4.66q-.39,1-.78,1.92l-.79,1.93-.19.2c-.35.09-.55.24-.59.46a1.89,1.89,0,0,1-.26.65c-.12.48-.26.94-.4,1.38s-.29.87-.45,1.3a.88.88,0,0,0-.17.23,1.36,1.36,0,0,1-.09.23,5.38,5.38,0,0,0-1.51,2.29,14,14,0,0,1-.82,2.13c-.32.67-.66,1.36-1,2.06s-.61,1.12-.92,1.67-.63,1.1-1,1.66a.76.76,0,0,0-.13.4.73.73,0,0,1-.06.32q-.13.53-.3,1.05a1.47,1.47,0,0,1-.88.85c-.13,0-.2.09-.2.26-.39.83-.81,1.64-1.27,2.42a6.88,6.88,0,0,0-.88,2.49.93.93,0,0,1-.27.62,3.16,3.16,0,0,0-.68,1.14c-.07.18-.15.37-.23.59a2.71,2.71,0,0,0-.17.72.83.83,0,0,1-.55.65.34.34,0,0,0-.17.23,1.32,1.32,0,0,1-.09.3,4,4,0,0,1-.36.85,3.07,3.07,0,0,0-.36.85l-.26.85c-.09.26-.18.54-.27.85q-.39.91-.78,1.86c-.26.64-.55,1.26-.85,1.87a8.58,8.58,0,0,0-.52,1.5,9.18,9.18,0,0,1-.53,1.5,2.76,2.76,0,0,0-.23.27,2.53,2.53,0,0,1-.23.26,1.37,1.37,0,0,0-.26.52.15.15,0,0,0,.13.16.84.84,0,0,0,.27,0c.47,0,1-.12,1.66-.23l1.93-.33,1.9-.29a10.87,10.87,0,0,1,1.57-.13,15.89,15.89,0,0,1,2.52.19q1.2.19,2.52.33a5.42,5.42,0,0,1,2,.59,17.13,17.13,0,0,1,1.69,1,2.3,2.3,0,0,1,.53.66c.15.26.3.52.47.78a.22.22,0,0,1,.12.2.3.3,0,0,1-.06.2,1,1,0,0,0-.16.88,7.43,7.43,0,0,0,.35.69,1.7,1.7,0,0,1,.23.78,4.93,4.93,0,0,0,.16.92.46.46,0,0,1-.06.23,1.16,1.16,0,0,0-.13.22,1.17,1.17,0,0,1-.2.27.21.21,0,0,0-.06.26,3.82,3.82,0,0,1-.4,1.93c-.3.63-.59,1.25-.85,1.86a2.33,2.33,0,0,1-.65.85,1.91,1.91,0,0,1-.79.46l-.23-.49a.81.81,0,0,1,0-.49,2.45,2.45,0,0,1,.07-.62,4,4,0,0,1,.19-.62c.18-.4.34-.8.49-1.21s.32-.82.49-1.21a1.15,1.15,0,0,0,0-1.15,2.5,2.5,0,0,0-1-.75,1.82,1.82,0,0,0-.81-.1q-.5,0-1,0a2.24,2.24,0,0,0-.46.07c-.17,0-.28,0-.32,0-.13-.35-.32-.46-.56-.33a4.12,4.12,0,0,1-.82.33,2.3,2.3,0,0,1-1.24.06,14.48,14.48,0,0,0-2.19.17q-1.08.17-2.19.42c-.92.22-1.85.46-2.81.72s-1.9.5-2.82.72a3.34,3.34,0,0,1-.36.1,2.54,2.54,0,0,0-.36.1,1.22,1.22,0,0,0-1,.85,2.55,2.55,0,0,1-.19.59c-.09.17-.18.32-.26.45a5.77,5.77,0,0,1-.72.2l-.66.13a.91.91,0,0,1-.65-.13,1.07,1.07,0,0,1-.33-.39c-.09-.18-.19-.26-.33-.26a6.19,6.19,0,0,0-2,.45l-1.8.63c-.59.19-1.18.4-1.8.62l-.62.23a3.35,3.35,0,0,0-.55.23c-1,.61-2,1.21-3,1.79s-2,1.15-3.08,1.67a11.42,11.42,0,0,1-4.44,1.44,2,2,0,0,0-.59.13q-.86.46-1.11-.39c-.09-.26-.16-.46-.2-.59a2.27,2.27,0,0,1-.72-1.8c0-.67.11-1.36.2-2.06a3.46,3.46,0,0,1,1.08-2.06,8,8,0,0,1,2-1.34q2.16-1.11,4.38-2.19l4.39-2.13c.82-.35,1.63-.66,2.42-.94s1.57-.58,2.35-.89a2.7,2.7,0,0,1,.62-.16c.2,0,.41-.06.62-.1a1.58,1.58,0,0,0,1.38-1.18c.17-.82.32-1.64.45-2.45s.29-1.64.46-2.52l.79-2.35c0-.22.07-.46.1-.72a2.37,2.37,0,0,1,.16-.72c.26-.74.53-1.49.82-2.26s.57-1.51.88-2.25q.72-1.83,1.41-3.63c.45-1.2.92-2.43,1.4-3.7l.92-2.09c.3-.7.63-1.42,1-2.16s.53-1.23.82-1.86.53-1.26.75-1.87.67-1.38,1-2.06.61-1.34.91-2,.6-1.39.89-2.06.6-1.37.95-2.06c.43-1,.88-2,1.34-3.05s.9-2,1.34-3,.77-1.76,1.14-2.68l1.08-2.68c.13-.48,0-.63-.52-.46l-1.18.39a11.19,11.19,0,0,0-1.11.46,18.34,18.34,0,0,0-1.73.72c-.55.26-1.11.5-1.67.72l-3.4,1.44a31.27,31.27,0,0,0-3.34,1.64,23.5,23.5,0,0,1-2.81,1.37c-1,.39-1.9.81-2.81,1.24a1.21,1.21,0,0,0-.33.2c-.39.3-.75.6-1.08.88a11.74,11.74,0,0,1-1.08.82.68.68,0,0,1-.42.16l-.49,0c-.18,0-.31-.21-.4-.52s-.25-.52-.36-.78a2.42,2.42,0,0,1-.16-.85,5.46,5.46,0,0,1,0-1.28c.07-.41.14-.86.23-1.34a3.84,3.84,0,0,1,.23-.78c.11-.27.23-.53.36-.79a1.25,1.25,0,0,1,.33-.46,6.6,6.6,0,0,1,1.14-.91,2.49,2.49,0,0,0,.95-1.12.25.25,0,0,1,.26-.19l1.93-1,2-1,2.09-1.08c.7-.37,1.39-.73,2.09-1.08a11.47,11.47,0,0,1,1.28-.55l1.27-.49c.74-.31,1.45-.61,2.13-.92s1.38-.59,2.12-.85,1.3-.41,1.93-.59,1.26-.37,1.87-.59q.58-.19,1.17-.36l1.25-.36c.56-.13,1.12-.27,1.67-.42s1.1-.3,1.66-.43l2.23-.49c.74-.15,1.48-.31,2.22-.49a9,9,0,0,0,1.24-.32,11,11,0,0,1,1.18-.33,9.79,9.79,0,0,1,1.28-.17,9.91,9.91,0,0,0,1.34-.16,9.2,9.2,0,0,0,1.08-.2c.37-.08.73-.15,1.08-.19.74-.09,1.5-.16,2.28-.23s1.55-.14,2.29-.23l3.73-.2a5,5,0,0,1,.59,0,5.15,5.15,0,0,0,.59,0,12.1,12.1,0,0,0,1.77.13,7.66,7.66,0,0,1,1.7.2c.74.13,1.44.27,2.12.42a7.44,7.44,0,0,1,1.93.75,7.69,7.69,0,0,1,2,1.67,5,5,0,0,1,1,2.32c.09.31.16.6.23.89s.14.58.23.88A.61.61,0,0,1,971.44,354.29Zm-52.78,48.53a.15.15,0,0,0,.1,0,.11.11,0,0,1,.1,0,1,1,0,0,1-.17-.39.92.92,0,0,0-.16-.39l-.2,0-.19,0a1.93,1.93,0,0,0-.1.43,1.08,1.08,0,0,1-.16.42.13.13,0,0,0,0,.1s0,.08,0,.17l-.2.78a.41.41,0,0,1-.1.26c-.06.09-.08.16,0,.2a.28.28,0,0,0,.39.06c.13,0,.26-.1.39-.32a2.67,2.67,0,0,0,.17-.66A2.21,2.21,0,0,1,918.66,402.82Zm.65-1.7-.32-.33a.91.91,0,0,0-.33-.2.58.58,0,0,0-.33.17c-.13.11-.19.18-.19.23a1.08,1.08,0,0,0,.32.65c0,.05.16,0,.33-.13Zm2.1-5.95q.06-.66-.3-.66a1.35,1.35,0,0,1-.62-.13.46.46,0,0,0-.29.13l-.3.26a2.82,2.82,0,0,1,.36.46,1.15,1.15,0,0,0,.36.39c.09.05.22,0,.39-.13A5,5,0,0,0,921.41,395.17Zm-.07-3.12a.16.16,0,0,0,.1.07s0,0,.1.07a3.53,3.53,0,0,0-.1.46c0,.14-.06.3-.1.47a1.69,1.69,0,0,1,0,.3,1.89,1.89,0,0,0,0,.31s.08.06.26.06l.39-.61a3.13,3.13,0,0,1,.29-.58,2.75,2.75,0,0,0,.3-.57.66.66,0,0,0,.06-.27.68.68,0,0,1,.07-.26.53.53,0,0,1,.2-.39,4.4,4.4,0,0,0,.32-.78,2.07,2.07,0,0,0,.1-.43,1.08,1.08,0,0,1,.16-.42c.48-.7.55-1.27.2-1.71a3.91,3.91,0,0,0,1-1.11.62.62,0,0,0-.16-.72,5.31,5.31,0,0,0-.53.82c-.17.33-.5.41-1,.23a3.84,3.84,0,0,0,.16.59,2.51,2.51,0,0,1,.14.52.82.82,0,0,1-.1.49,1.53,1.53,0,0,1-.59.49c.26.31.38.5.36.59s-.25.29-.69.59a2.37,2.37,0,0,0-.26.33,3.77,3.77,0,0,0-.26.46A.93.93,0,0,1,922,391a2.34,2.34,0,0,0,.45-.07,6,6,0,0,0-.62.61C921.68,391.7,921.52,391.87,921.34,392.05Zm4.65-7.74a3.68,3.68,0,0,1-.46-.3,1.27,1.27,0,0,0-.33-.16s-.17.11-.39.33a1.86,1.86,0,0,0,.26.23,1.27,1.27,0,0,0,.33.16S925.64,384.53,926,384.31Zm21.12-35.65-.13.13h-.39a1.66,1.66,0,0,1-.36.2,4.66,4.66,0,0,0-.43.2,1.84,1.84,0,0,1,.26.29,2.56,2.56,0,0,0,.27.29c.08.09.24.07.45-.06s.34-.17.49-.26.32-.18.5-.26l-.3-.27Zm9.81-.65a2.28,2.28,0,0,0-1.9-.33,11.63,11.63,0,0,1-1.37.17l-1.37.09a.32.32,0,0,1-.17,0s-.07,0-.16,0c-.35.09-.7.16-1.05.23a6,6,0,0,0-1,.29c-.09,0-.18.07-.26.2a.61.61,0,0,0-.13.32.16.16,0,0,0,.06.23.41.41,0,0,0,.26.1l.82-.1a2.5,2.5,0,0,0,.88-.23,1.74,1.74,0,0,1,1.38-.06,1,1,0,0,0,.62.06,2.11,2.11,0,0,0,.62-.26,1.27,1.27,0,0,1,.91-.06A1.51,1.51,0,0,0,956.92,348Zm.46,0a3.77,3.77,0,0,1,.26.46c.09.17.24.19.46.06a1.15,1.15,0,0,1,.75-.29,5,5,0,0,1,.62.1l.62.09a1.69,1.69,0,0,0,.63,0,.51.51,0,0,0,.39-.23,1.47,1.47,0,0,1,.46-.36,1.52,1.52,0,0,1-.33-.26.38.38,0,0,0-.26-.13l-1.8.29Q958.3,347.88,957.38,348Zm5.75.39c.57.35,1,.49,1.15.43s.47-.41.82-1a2.2,2.2,0,0,1-.39-.32c-.14-.14-.27-.16-.4-.07a1.89,1.89,0,0,0-.59.39Zm2.36.79c.79-.35,1-.74.72-1.18,0-.09-.06-.12-.16-.1a.5.5,0,0,1-.3,0,.17.17,0,0,1,0,.1.12.12,0,0,0,0,.09l.32.33C965.88,348.62,965.71,348.88,965.49,349.19Z" transform="translate(-208.8 -346.5)"/><path d="M1013.23,354.29c-.56.22-.92.17-1.07-.13a5.14,5.14,0,0,0-.49-.79,5.78,5.78,0,0,0-1.12-.88,1.73,1.73,0,0,0-1.57,0,.8.8,0,0,1-.78-.13,2.43,2.43,0,0,0-1.74-.42,4.73,4.73,0,0,1-1.86-.17,1.6,1.6,0,0,1-1.21.26,3.07,3.07,0,0,0-1.21,0,6.06,6.06,0,0,0-.62,0,6.13,6.13,0,0,1-.62,0h-1.83q-.92,0-1.83.06a2.19,2.19,0,0,0-.63.1l-.62.23-.65.13-.66.13a.1.1,0,0,1-.13,0s-.08,0-.13,0a5.53,5.53,0,0,1-2.29,1l-2.35.39-1,.2c-.42.09-.85.19-1.31.33l-1.31.35c-.42.11-.75.19-1,.23-.53.13-.64.4-.33.79s.43.68.65,1a6.88,6.88,0,0,1,.59,1,.56.56,0,0,1,.07.59c-.22.52-.42,1.05-.59,1.57a3.76,3.76,0,0,1-.92,1.44.78.78,0,0,0-.29.39,2.19,2.19,0,0,1-.23.46,4.74,4.74,0,0,1-.85,1.24c-.09.18-.22.39-.39.66l-.79,1.92-.78,1.93-.2.2c-.35.09-.54.24-.59.46a1.89,1.89,0,0,1-.26.65q-.18.72-.39,1.38c-.15.43-.3.87-.46,1.3a.64.64,0,0,0-.16.23c0,.07-.06.15-.1.23a5.38,5.38,0,0,0-1.51,2.29,14,14,0,0,1-.81,2.13l-1,2.06-.91,1.67c-.31.54-.64,1.1-1,1.66a.69.69,0,0,0-.14.4.73.73,0,0,1-.06.32c-.09.35-.19.7-.29,1.05a1.49,1.49,0,0,1-.89.85c-.13,0-.19.09-.19.26-.4.83-.82,1.64-1.28,2.42a6.88,6.88,0,0,0-.88,2.49,1,1,0,0,1-.26.62,3.43,3.43,0,0,0-.46.62,3.93,3.93,0,0,0-.23.52c-.07.18-.14.37-.23.59a2.37,2.37,0,0,0-.16.72.86.86,0,0,1-.56.65.3.3,0,0,0-.16.23,1.32,1.32,0,0,1-.1.3,4,4,0,0,1-.36.85,3.81,3.81,0,0,0-.36.85c-.09.3-.17.59-.26.85s-.18.54-.26.85c-.26.61-.53,1.23-.79,1.86s-.54,1.26-.85,1.87a8.58,8.58,0,0,0-.52,1.5,9.15,9.15,0,0,1-.52,1.5,1.84,1.84,0,0,0-.23.27l-.23.26a1.23,1.23,0,0,0-.26.52.15.15,0,0,0,.13.16.75.75,0,0,0,.26,0c.48,0,1-.12,1.67-.23l1.93-.33c.65-.11,1.28-.2,1.89-.29a11,11,0,0,1,1.57-.13,15.89,15.89,0,0,1,2.52.19q1.21.19,2.52.33a5.42,5.42,0,0,1,2,.59,16,16,0,0,1,1.69,1,2.3,2.3,0,0,1,.53.66c.15.26.31.52.47.78a.23.23,0,0,1,.13.2.3.3,0,0,1-.07.2,1,1,0,0,0-.15.88,7.37,7.37,0,0,0,.34.69,1.7,1.7,0,0,1,.23.78,4.25,4.25,0,0,0,.17.92.48.48,0,0,1-.07.23,2.14,2.14,0,0,0-.13.22.94.94,0,0,1-.2.27.22.22,0,0,0-.06.26,3.92,3.92,0,0,1-.39,1.93c-.31.63-.59,1.25-.85,1.86a2.37,2.37,0,0,1-.66.85,1.88,1.88,0,0,1-.78.46c-.09-.18-.17-.34-.23-.49a.69.69,0,0,1,0-.49,3,3,0,0,1,.06-.62,3.18,3.18,0,0,1,.2-.62c.17-.4.33-.8.49-1.21s.31-.82.49-1.21a1.12,1.12,0,0,0,0-1.15,2.46,2.46,0,0,0-1-.75,1.87,1.87,0,0,0-.82-.1c-.33,0-.67,0-1,0a2.06,2.06,0,0,0-.46.07q-.27.06-.33,0c-.13-.35-.32-.46-.55-.33a4.68,4.68,0,0,1-.82.33,2.34,2.34,0,0,1-1.25.06,14.48,14.48,0,0,0-2.19.17q-1.08.17-2.19.42c-.91.22-1.85.46-2.81.72s-1.9.5-2.81.72a3.34,3.34,0,0,1-.36.1,2,2,0,0,0-.36.1,1.2,1.2,0,0,0-1,.85,2.56,2.56,0,0,1-.2.59,4.49,4.49,0,0,1-.26.45,5,5,0,0,1-.72.2l-.65.13a.93.93,0,0,1-.66-.13,1.07,1.07,0,0,1-.33-.39c-.08-.18-.19-.26-.32-.26a6.14,6.14,0,0,0-2,.45l-1.8.63c-.59.19-1.19.4-1.8.62l-.62.23a3.46,3.46,0,0,0-.56.23c-1,.61-2,1.21-3,1.79s-2,1.15-3.07,1.67a11.52,11.52,0,0,1-4.45,1.44,2,2,0,0,0-.59.13c-.56.31-.94.18-1.11-.39-.09-.26-.15-.46-.2-.59a2.27,2.27,0,0,1-.72-1.8c0-.67.11-1.36.2-2.06a3.46,3.46,0,0,1,1.08-2.06,8,8,0,0,1,2-1.34q2.16-1.11,4.39-2.19l4.38-2.13c.83-.35,1.63-.66,2.42-.94s1.57-.58,2.35-.89a2.7,2.7,0,0,1,.62-.16c.2,0,.41-.06.63-.1a1.56,1.56,0,0,0,1.37-1.18c.17-.82.33-1.64.46-2.45s.28-1.64.46-2.52l.78-2.35a7,7,0,0,0,.1-.72,2.37,2.37,0,0,1,.16-.72c.26-.74.53-1.49.82-2.26s.58-1.51.88-2.25q.72-1.83,1.41-3.63c.46-1.2.92-2.43,1.4-3.7l.92-2.09c.31-.7.63-1.42,1-2.16s.54-1.23.82-1.86.53-1.26.75-1.87.68-1.38,1-2.06.61-1.34.92-2,.6-1.39.88-2.06.6-1.37.95-2.06c.44-1,.88-2,1.34-3.05s.9-2,1.34-3,.77-1.76,1.14-2.68.74-1.81,1.08-2.68c.14-.48,0-.63-.52-.46l-1.18.39a11.19,11.19,0,0,0-1.11.46,18.34,18.34,0,0,0-1.73.72c-.55.26-1.1.5-1.67.72l-3.4,1.44a32.23,32.23,0,0,0-3.34,1.64,23.5,23.5,0,0,1-2.81,1.37c-1,.39-1.89.81-2.81,1.24a1.41,1.41,0,0,0-.33.2c-.39.3-.75.6-1.08.88a9.54,9.54,0,0,1-1.08.82.63.63,0,0,1-.42.16l-.49,0c-.18,0-.31-.21-.39-.52s-.25-.52-.36-.78a2.22,2.22,0,0,1-.17-.85,5,5,0,0,1,0-1.28c.06-.41.14-.86.22-1.34a4.6,4.6,0,0,1,.23-.78c.11-.27.23-.53.36-.79a1.54,1.54,0,0,1,.33-.46,6.6,6.6,0,0,1,1.14-.91,2.43,2.43,0,0,0,1-1.12.26.26,0,0,1,.26-.19l1.93-1,2-1c.7-.35,1.39-.71,2.09-1.08l2.09-1.08a12.33,12.33,0,0,1,1.28-.55l1.28-.49c.74-.31,1.44-.61,2.12-.92s1.38-.59,2.13-.85,1.29-.41,1.93-.59,1.25-.37,1.86-.59c.39-.13.79-.25,1.18-.36l1.24-.36c.57-.13,1.12-.27,1.67-.42s1.1-.3,1.67-.43l2.22-.49c.74-.15,1.48-.31,2.22-.49a9.52,9.52,0,0,0,1.25-.32,10.24,10.24,0,0,1,1.17-.33,9.79,9.79,0,0,1,1.28-.17,9.91,9.91,0,0,0,1.34-.16,8.84,8.84,0,0,0,1.08-.2c.37-.08.73-.15,1.08-.19.74-.09,1.5-.16,2.29-.23s1.55-.14,2.29-.23l3.72-.2a5,5,0,0,1,.59,0,5.28,5.28,0,0,0,.59,0,12.1,12.1,0,0,0,1.77.13,7.66,7.66,0,0,1,1.7.2c.74.13,1.45.27,2.12.42a7.44,7.44,0,0,1,1.93.75,7.91,7.91,0,0,1,2,1.67,5,5,0,0,1,1,2.32c.09.31.17.6.23.89s.14.58.23.88A.61.61,0,0,1,1013.23,354.29Zm-52.78,48.53a.13.13,0,0,0,.1,0,.11.11,0,0,1,.1,0,.92.92,0,0,1-.16-.39,1.11,1.11,0,0,0-.17-.39l-.19,0-.2,0a2.71,2.71,0,0,0-.1.43,1.08,1.08,0,0,1-.16.42.13.13,0,0,0,0,.1s0,.08,0,.17l-.2.78a.41.41,0,0,1-.1.26c-.06.09-.07.16,0,.2a.28.28,0,0,0,.39.06c.13,0,.27-.1.4-.32a2.65,2.65,0,0,0,.16-.66A2.21,2.21,0,0,1,960.45,402.82Zm.66-1.7-.33-.33a.91.91,0,0,0-.33-.2.56.56,0,0,0-.32.17c-.13.11-.2.18-.2.23a1.13,1.13,0,0,0,.33.65c0,.05.15,0,.32-.13Zm2.09-5.95c0-.44-.06-.66-.29-.66a1.39,1.39,0,0,1-.63-.13.48.48,0,0,0-.29.13l-.29.26a2.32,2.32,0,0,1,.35.46,1.07,1.07,0,0,0,.37.39c.08.05.21,0,.39-.13Zm-.07-3.12c0,.05.08.07.1.07a.16.16,0,0,1,.1.07c0,.17-.08.33-.1.46a3.33,3.33,0,0,1-.1.47,1.69,1.69,0,0,1,0,.3,1.89,1.89,0,0,0,0,.31s.09.06.26.06l.39-.61a3.14,3.14,0,0,1,.3-.58,3.35,3.35,0,0,0,.29-.57.68.68,0,0,0,.07-.27.65.65,0,0,1,.06-.26.57.57,0,0,1,.2-.39,5.72,5.72,0,0,0,.33-.78,3,3,0,0,0,.09-.43,1.1,1.1,0,0,1,.17-.42c.48-.7.54-1.27.19-1.71a3.74,3.74,0,0,0,1-1.11.61.61,0,0,0-.16-.72,4.66,4.66,0,0,0-.52.82c-.18.33-.51.41-1,.23a3.8,3.8,0,0,0,.17.59,2.47,2.47,0,0,1,.13.52.75.75,0,0,1-.1.49,1.46,1.46,0,0,1-.59.49c.26.31.38.5.36.59s-.25.29-.69.59a3.47,3.47,0,0,0-.26.33,3.77,3.77,0,0,0-.26.46.93.93,0,0,1,.33-.07,2.31,2.31,0,0,0,.46-.07,6.26,6.26,0,0,0-.63.61C963.47,391.7,963.31,391.87,963.13,392.05Zm4.65-7.74a4.67,4.67,0,0,1-.46-.3,1.27,1.27,0,0,0-.33-.16s-.17.11-.39.33a2.68,2.68,0,0,0,.26.23,1.27,1.27,0,0,0,.33.16S967.43,384.53,967.78,384.31Zm21.12-35.65-.13.13h-.39a1.66,1.66,0,0,1-.36.2,3.68,3.68,0,0,0-.42.2l.26.29a1.84,1.84,0,0,0,.26.29c.09.09.24.07.46-.06l.49-.26a4.48,4.48,0,0,1,.49-.26l-.3-.27C989.15,348.84,989,348.75,988.9,348.66Zm9.81-.65a2.27,2.27,0,0,0-1.89-.33,11.79,11.79,0,0,1-1.38.17l-1.37.09c-.09,0-.14,0-.16,0a.32.32,0,0,0-.17,0c-.35.09-.69.16-1,.23a5.87,5.87,0,0,0-1.05.29c-.09,0-.17.07-.26.2a.61.61,0,0,0-.13.32.17.17,0,0,0,.06.23.43.43,0,0,0,.27.1l.81-.1a2.55,2.55,0,0,0,.89-.23,1.71,1.71,0,0,1,1.37-.06,1,1,0,0,0,.62.06,2,2,0,0,0,.62-.26,1.29,1.29,0,0,1,.92-.06A1.5,1.5,0,0,0,998.71,348Zm.46,0a2.79,2.79,0,0,1,.26.46c.09.17.24.19.46.06a1.19,1.19,0,0,1,.75-.29,5.12,5.12,0,0,1,.63.1l.62.09a1.65,1.65,0,0,0,.62,0,.51.51,0,0,0,.39-.23,1.47,1.47,0,0,1,.46-.36,1.81,1.81,0,0,1-.33-.26.36.36,0,0,0-.26-.13l-1.8.29Q1000.09,347.88,999.17,348Zm5.76.39c.56.35,1,.49,1.14.43s.47-.41.82-1a2.2,2.2,0,0,1-.39-.32.27.27,0,0,0-.39-.07,1.79,1.79,0,0,0-.59.39Zm2.35.79c.79-.35,1-.74.72-1.18,0-.09,0-.12-.16-.1a.5.5,0,0,1-.3,0,.17.17,0,0,1,0,.1.12.12,0,0,0,0,.09l.33.33C1007.67,348.62,1007.5,348.88,1007.28,349.19Z" transform="translate(-208.8 -346.5)"/><path d="M1040.33,356.44c-.55.22-.89.17-1-.12a4.51,4.51,0,0,0-.47-.76,6.44,6.44,0,0,0-1.07-.85,1.67,1.67,0,0,0-1.51,0,.78.78,0,0,1-.76-.12,2.35,2.35,0,0,0-1.67-.41,4.61,4.61,0,0,1-1.8-.16,1.52,1.52,0,0,1-1.16.25,2.88,2.88,0,0,0-1.17,0,5.74,5.74,0,0,0-.6,0,3.65,3.65,0,0,1-.59,0h-1.77c-.59,0-1.17,0-1.76.06a2,2,0,0,0-.6.09l-.6.22-.63.13-.63.13a.1.1,0,0,1-.12,0,.11.11,0,0,0-.13,0,5.32,5.32,0,0,1-2.21.94l-2.26.38c-.26,0-.58.11-1,.19s-.82.19-1.26.32l-1.26.34a9.36,9.36,0,0,1-1,.22c-.5.13-.61.38-.31.76s.42.65.63.94a6.41,6.41,0,0,1,.56,1,.52.52,0,0,1,.07.57c-.21.5-.4,1-.57,1.51a3.56,3.56,0,0,1-.88,1.38.73.73,0,0,0-.28.38,2,2,0,0,1-.23.44,4.61,4.61,0,0,1-.81,1.2,6.56,6.56,0,0,1-.38.63c-.25.63-.51,1.25-.76,1.86l-.75,1.86-.19.19c-.34.08-.53.23-.57.44a2.07,2.07,0,0,1-.25.63c-.12.46-.25.9-.38,1.32s-.29.84-.44,1.26a.55.55,0,0,0-.16.22,1.71,1.71,0,0,1-.09.22,5.15,5.15,0,0,0-1.45,2.21,13.9,13.9,0,0,1-.79,2c-.31.66-.64,1.32-1,2s-.58,1.08-.88,1.6-.61,1.07-.94,1.61a.65.65,0,0,0-.13.38.68.68,0,0,1-.06.31c-.09.34-.18.68-.29,1a1.38,1.38,0,0,1-.85.82c-.12,0-.18.09-.18.25-.38.8-.79,1.58-1.23,2.33a6.64,6.64,0,0,0-.85,2.4.9.9,0,0,1-.26.6,6,6,0,0,0-.44.59c-.08.17-.15.34-.22.51s-.13.36-.22.57a2.9,2.9,0,0,0-.16.69.83.83,0,0,1-.53.63.29.29,0,0,0-.16.22,1.15,1.15,0,0,1-.09.28,3.55,3.55,0,0,1-.35.82,3.75,3.75,0,0,0-.35.82c-.08.3-.16.57-.25.82s-.17.53-.25.82c-.25.59-.5,1.19-.76,1.79s-.52,1.21-.81,1.8a7.78,7.78,0,0,0-.51,1.45A8.86,8.86,0,0,1,993,405a1.64,1.64,0,0,0-.22.25c-.07.08-.14.17-.22.25a1.29,1.29,0,0,0-.26.51.15.15,0,0,0,.13.15.72.72,0,0,0,.25,0c.46,0,1-.11,1.61-.22l1.86-.31,1.82-.28a10.25,10.25,0,0,1,1.52-.13,14.65,14.65,0,0,1,2.42.19c.78.12,1.59.23,2.43.31a5.5,5.5,0,0,1,1.89.57,18,18,0,0,1,1.63,1,2.28,2.28,0,0,1,.51.63q.21.38.45.75a.22.22,0,0,1,.12.19.25.25,0,0,1-.06.19.93.93,0,0,0-.15.85,5.8,5.8,0,0,0,.33.66,1.69,1.69,0,0,1,.22.76,4.4,4.4,0,0,0,.16.88.38.38,0,0,1-.06.22,1.59,1.59,0,0,0-.13.22.86.86,0,0,1-.19.26.21.21,0,0,0-.06.25,3.73,3.73,0,0,1-.38,1.86c-.29.6-.57,1.2-.82,1.79a2.09,2.09,0,0,1-.63.82,1.78,1.78,0,0,1-.75.44,4.8,4.8,0,0,1-.22-.47.69.69,0,0,1,0-.47,2.9,2.9,0,0,1,.07-.6,3.17,3.17,0,0,1,.19-.6c.16-.38.32-.77.47-1.17s.3-.78.47-1.16a1.08,1.08,0,0,0,0-1.1,2.27,2.27,0,0,0-1-.73,1.91,1.91,0,0,0-.79-.09c-.32,0-.64,0-1,0a2,2,0,0,0-.44.06c-.17,0-.27,0-.31,0-.13-.33-.31-.44-.54-.31a3.83,3.83,0,0,1-.79.31,2.21,2.21,0,0,1-1.19.07,14.66,14.66,0,0,0-2.11.15c-.7.11-1.4.24-2.12.41-.88.21-1.78.44-2.7.7s-1.83.48-2.71.69l-.35.09a1.89,1.89,0,0,0-.35.1,1.16,1.16,0,0,0-.94.82,2.3,2.3,0,0,1-.19.56,3.45,3.45,0,0,1-.25.44,4.87,4.87,0,0,1-.69.19l-.64.13a.86.86,0,0,1-.63-.13,1,1,0,0,1-.31-.37c-.08-.17-.19-.26-.32-.26a5.9,5.9,0,0,0-1.88.44l-1.74.6-1.73.6-.6.22a3.67,3.67,0,0,0-.53.22c-1,.59-1.94,1.17-2.9,1.73s-2,1.11-3,1.61a11.15,11.15,0,0,1-4.29,1.39,2.08,2.08,0,0,0-.56.12c-.55.3-.91.17-1.08-.38l-.18-.56a2.17,2.17,0,0,1-.7-1.73c0-.66.11-1.32.19-2a3.3,3.3,0,0,1,1-2,7.35,7.35,0,0,1,1.92-1.29c1.39-.72,2.8-1.42,4.22-2.12l4.23-2c.79-.34,1.57-.64,2.33-.92s1.51-.55,2.26-.85a2.4,2.4,0,0,1,.6-.15l.6-.1a1.5,1.5,0,0,0,1.32-1.13c.17-.8.32-1.59.44-2.37s.28-1.58.45-2.42l.75-2.27a6.34,6.34,0,0,0,.1-.69,2.49,2.49,0,0,1,.15-.69l.79-2.18c.27-.73.56-1.46.85-2.17.46-1.18.92-2.34,1.36-3.5s.89-2.34,1.35-3.56l.88-2c.3-.68.61-1.37,1-2.08s.51-1.19.79-1.8.51-1.21.72-1.79.65-1.34.94-2,.59-1.29.89-1.92l.85-2c.27-.66.57-1.32.91-2l1.29-2.93c.44-1,.87-2,1.29-2.93s.75-1.7,1.11-2.58.7-1.74,1-2.58c.12-.47,0-.61-.51-.44l-1.13.37a9.55,9.55,0,0,0-1.07.44,15,15,0,0,0-1.67.7c-.53.25-1.06.48-1.61.69l-3.27,1.39a30.85,30.85,0,0,0-3.22,1.57,20.53,20.53,0,0,1-2.71,1.32c-.92.38-1.82.78-2.71,1.2a2,2,0,0,0-.31.19c-.38.29-.73.58-1,.85a10.89,10.89,0,0,1-1,.79.68.68,0,0,1-.41.16l-.47,0c-.17,0-.3-.21-.38-.51s-.24-.5-.35-.75a2.21,2.21,0,0,1-.15-.82,4.59,4.59,0,0,1,0-1.23c.06-.4.13-.83.22-1.29a3.11,3.11,0,0,1,.22-.76c.1-.25.22-.5.34-.75a1.24,1.24,0,0,1,.32-.44,6.7,6.7,0,0,1,1.1-.89,2.41,2.41,0,0,0,.92-1.07.25.25,0,0,1,.25-.19l1.86-1,1.92-1c.67-.34,1.34-.68,2-1l2-1a10.61,10.61,0,0,1,1.23-.53l1.23-.48c.71-.29,1.39-.58,2-.88s1.34-.57,2-.82,1.25-.4,1.86-.56,1.21-.36,1.8-.57c.37-.13.75-.24,1.13-.35l1.2-.34,1.6-.41c.53-.15,1.06-.29,1.61-.41.71-.17,1.43-.33,2.14-.48s1.43-.3,2.14-.47a10.51,10.51,0,0,0,1.2-.31c.38-.13.76-.23,1.14-.32a10.46,10.46,0,0,1,1.22-.16,10.67,10.67,0,0,0,1.29-.15c.34,0,.69-.11,1-.19a8.51,8.51,0,0,1,1-.19c.72-.09,1.45-.16,2.21-.22l2.2-.22,3.59-.19a4.91,4.91,0,0,1,.57,0,4.91,4.91,0,0,0,.57,0,11.19,11.19,0,0,0,1.7.13,7.06,7.06,0,0,1,1.64.19c.71.12,1.39.26,2,.41a6.35,6.35,0,0,1,1.85.72,7.31,7.31,0,0,1,1.89,1.61,4.82,4.82,0,0,1,1,2.23c.09.3.16.58.22.85s.14.56.22.85A.59.59,0,0,1,1040.33,356.44Zm-50.84,46.75a.12.12,0,0,0,.09,0,.15.15,0,0,1,.1,0,.89.89,0,0,1-.16-.38.89.89,0,0,0-.16-.38l-.19,0a.54.54,0,0,1-.18,0,1.67,1.67,0,0,0-.1.4.86.86,0,0,1-.16.41.13.13,0,0,0,0,.1s0,.07,0,.16l-.19.75a.4.4,0,0,1-.09.25c-.06.09-.07.15,0,.19a.28.28,0,0,0,.38.07c.12,0,.25-.11.37-.32a2.09,2.09,0,0,0,.16-.63A2.09,2.09,0,0,1,989.49,403.19Zm.63-1.64-.32-.31a.65.65,0,0,0-.31-.19.53.53,0,0,0-.32.16c-.12.1-.18.18-.18.22a1.07,1.07,0,0,0,.31.63s.15,0,.32-.13Zm2-5.73c0-.42,0-.63-.28-.63a1.26,1.26,0,0,1-.6-.13.5.5,0,0,0-.28.13,2.35,2.35,0,0,0-.28.25,3,3,0,0,1,.34.44,1.18,1.18,0,0,0,.35.38c.08,0,.21,0,.38-.12S992.05,395.9,992.13,395.82Zm-.06-3s.07.07.1.07.05,0,.09.06-.07.32-.09.45l-.1.45a1.5,1.5,0,0,1,0,.29,1.68,1.68,0,0,0,0,.29c0,.05.08.07.25.07l.38-.59a2.92,2.92,0,0,1,.28-.56,2.82,2.82,0,0,0,.29-.55.62.62,0,0,0,.06-.26.61.61,0,0,1,.06-.25.55.55,0,0,1,.19-.38,4.52,4.52,0,0,0,.32-.75,2.47,2.47,0,0,0,.09-.41.86.86,0,0,1,.16-.41c.46-.67.52-1.22.19-1.64a3.92,3.92,0,0,0,.91-1.07.6.6,0,0,0-.16-.69,5.29,5.29,0,0,0-.5.78c-.17.32-.48.39-.95.22a3.56,3.56,0,0,0,.16.57,2.39,2.39,0,0,1,.13.51.72.72,0,0,1-.1.47,1.47,1.47,0,0,1-.56.47c.25.3.36.48.34.57s-.24.27-.66.57a1.68,1.68,0,0,0-.25.31,3,3,0,0,0-.25.44,1,1,0,0,1,.31-.06,2.69,2.69,0,0,0,.44-.06,5.69,5.69,0,0,0-.6.57A5.66,5.66,0,0,1,992.07,392.82Zm4.47-7.46c-.21-.12-.35-.22-.44-.28a1,1,0,0,0-.31-.16s-.17.11-.38.32l.25.22a1.19,1.19,0,0,0,.32.15C996,385.66,996.21,385.57,996.54,385.36ZM1016.89,351l-.12.12h-.38a1.53,1.53,0,0,1-.35.19l-.41.19.26.28a2.37,2.37,0,0,0,.25.29c.08.08.23.06.44-.06l.47-.26.47-.25-.28-.25C1017.13,351.2,1017,351.11,1016.89,351Zm9.45-.63a2.18,2.18,0,0,0-1.82-.32,9.42,9.42,0,0,1-1.33.16l-1.32.09a.28.28,0,0,1-.16,0,.24.24,0,0,0-.15,0c-.34.09-.68.16-1,.22a6.34,6.34,0,0,0-1,.28c-.08,0-.17.07-.25.19a.61.61,0,0,0-.13.32.17.17,0,0,0,.06.22.45.45,0,0,0,.26.09q.38-.06.78-.09a2.6,2.6,0,0,0,.86-.22,1.6,1.6,0,0,1,1.32-.06,1.05,1.05,0,0,0,.6.06,2.08,2.08,0,0,0,.59-.25,1.27,1.27,0,0,1,.89-.07A1.43,1.43,0,0,0,1026.34,350.4Zm.45,0c.08.12.16.27.25.44s.23.19.44.06a1.12,1.12,0,0,1,.72-.28l.6.09c.21,0,.41.08.6.1a1.77,1.77,0,0,0,.6,0,.53.53,0,0,0,.38-.22,1.34,1.34,0,0,1,.44-.34,3.27,3.27,0,0,1-.32-.25.34.34,0,0,0-.25-.13c-.59.08-1.17.18-1.73.28S1027.37,350.31,1026.79,350.4Zm5.54.37c.54.34.91.48,1.1.41s.45-.38.79-1a2.69,2.69,0,0,1-.38-.32.29.29,0,0,0-.38-.06,1.51,1.51,0,0,0-.56.38Zm2.27.76c.75-.33,1-.71.69-1.13,0-.09,0-.12-.16-.1a.44.44,0,0,1-.28,0,.17.17,0,0,1,0,.1.12.12,0,0,0,0,.09l.31.31C1035,351,1034.81,351.24,1034.6,351.53Z" transform="translate(-208.8 -346.5)"/><path d="M1281.79,410.32c-.59.22-1,.18-1.12-.14a5.13,5.13,0,0,0-.51-.81,6.41,6.41,0,0,0-1.14-.91,1.8,1.8,0,0,0-1.63,0,.86.86,0,0,1-.81-.14,2.51,2.51,0,0,0-1.79-.44,4.81,4.81,0,0,1-1.92-.17,1.67,1.67,0,0,1-1.25.27,2.92,2.92,0,0,0-1.25,0,4.31,4.31,0,0,0-.64,0c-.21,0-.42,0-.64,0h-1.9c-.63,0-1.26,0-1.89.07a2,2,0,0,0-.64.1l-.64.24-.68.13-.67.14a.13.13,0,0,1-.14,0,.11.11,0,0,0-.13,0,5.86,5.86,0,0,1-2.37,1l-2.43.4-1,.2c-.43.09-.88.21-1.36.34s-.92.26-1.35.37a8.92,8.92,0,0,1-1,.24c-.54.14-.66.41-.34.81s.45.7.67,1a7.43,7.43,0,0,1,.61,1c.14.13.16.33.07.61-.23.54-.43,1.08-.61,1.62a3.76,3.76,0,0,1-.94,1.48.82.82,0,0,0-.31.41,2.29,2.29,0,0,1-.23.47,5.35,5.35,0,0,1-.88,1.28,6.78,6.78,0,0,1-.41.68c-.27.67-.54,1.34-.81,2l-.81,2-.2.21c-.36.09-.57.25-.61.47a2.15,2.15,0,0,1-.27.68c-.13.49-.26,1-.41,1.41s-.3.91-.47,1.36a.74.74,0,0,0-.17.23,1.12,1.12,0,0,1-.1.24,5.57,5.57,0,0,0-1.55,2.36,14.53,14.53,0,0,1-.85,2.2c-.33.7-.68,1.41-1,2.13s-.63,1.16-1,1.72-.65,1.14-1,1.72a.75.75,0,0,0-.14.41.81.81,0,0,1-.06.33c-.1.36-.2.72-.31,1.08a1.49,1.49,0,0,1-.91.88c-.14,0-.2.09-.2.27-.41.86-.85,1.69-1.32,2.5a7.13,7.13,0,0,0-.91,2.57,1,1,0,0,1-.27.64,4.86,4.86,0,0,0-.48.64c-.09.18-.16.36-.23.54l-.24.61a2.86,2.86,0,0,0-.17.74.87.87,0,0,1-.57.68.3.3,0,0,0-.17.24,1.32,1.32,0,0,1-.1.3,4.08,4.08,0,0,1-.37.88,3.64,3.64,0,0,0-.37.88c-.1.31-.18.6-.27.87s-.18.57-.27.88c-.28.63-.54,1.27-.82,1.93s-.56,1.29-.87,1.92a8.46,8.46,0,0,0-.54,1.56,10.14,10.14,0,0,1-.54,1.55,1.94,1.94,0,0,0-.24.27,2.91,2.91,0,0,1-.24.27,1.39,1.39,0,0,0-.27.54.16.16,0,0,0,.14.17,1.24,1.24,0,0,0,.27,0c.49,0,1.07-.12,1.72-.23l2-.34,2-.31a11.62,11.62,0,0,1,1.62-.13,16.81,16.81,0,0,1,2.6.2c.84.14,1.7.25,2.6.34a5.49,5.49,0,0,1,2,.61,15.61,15.61,0,0,1,1.75,1.08,2.27,2.27,0,0,1,.55.67q.23.4.48.81a.23.23,0,0,1,.13.21.24.24,0,0,1-.07.2,1,1,0,0,0-.16.91,6.73,6.73,0,0,0,.36.71,1.88,1.88,0,0,1,.24.81,4.52,4.52,0,0,0,.17.95.42.42,0,0,1-.07.23,2.55,2.55,0,0,0-.14.24.94.94,0,0,1-.2.27.23.23,0,0,0-.07.27,3.89,3.89,0,0,1-.4,2c-.32.66-.61,1.3-.88,1.93a2.49,2.49,0,0,1-.68.88,1.94,1.94,0,0,1-.81.47,5.45,5.45,0,0,1-.23-.51.77.77,0,0,1,0-.5,3.41,3.41,0,0,1,.07-.65,5.12,5.12,0,0,1,.2-.64c.18-.4.35-.82.51-1.25s.33-.84.51-1.25a1.18,1.18,0,0,0,0-1.18,2.52,2.52,0,0,0-1-.78,1.94,1.94,0,0,0-.84-.1c-.34,0-.69,0-1,0a2.23,2.23,0,0,0-.47.06c-.18.05-.29.05-.34,0-.13-.36-.33-.47-.57-.33a4.43,4.43,0,0,1-.85.33,2.34,2.34,0,0,1-1.28.07,15.32,15.32,0,0,0-2.26.17c-.75.11-1.5.26-2.27.44-.94.23-1.91.47-2.9.74s-2,.52-2.9.75l-.38.1a2.31,2.31,0,0,0-.37.1,1.26,1.26,0,0,0-1,.88,2.64,2.64,0,0,1-.2.6,5.15,5.15,0,0,1-.27.48,5.28,5.28,0,0,1-.75.2l-.67.14a.94.94,0,0,1-.68-.14,1.13,1.13,0,0,1-.34-.4c-.09-.19-.2-.28-.33-.28a6.19,6.19,0,0,0-2,.48l-1.86.64-1.86.64-.64.24a4.84,4.84,0,0,0-.57.23c-1,.63-2.07,1.25-3.11,1.86s-2.09,1.18-3.17,1.72a11.79,11.79,0,0,1-4.6,1.49,1.87,1.87,0,0,0-.6.14c-.59.31-1,.17-1.15-.41l-.21-.61a2.34,2.34,0,0,1-.74-1.86c0-.69.11-1.4.2-2.12a3.58,3.58,0,0,1,1.12-2.13,8.11,8.11,0,0,1,2.06-1.39c1.49-.76,3-1.52,4.52-2.26l4.53-2.19c.86-.36,1.69-.69,2.5-1s1.62-.6,2.43-.92a2.4,2.4,0,0,1,.64-.16c.21,0,.42-.06.64-.11a1.61,1.61,0,0,0,1.42-1.21c.18-.86.34-1.7.48-2.53s.29-1.7.47-2.61l.81-2.43a7,7,0,0,0,.1-.74,2.43,2.43,0,0,1,.17-.74c.27-.77.55-1.54.84-2.33s.6-1.57.92-2.33c.49-1.26,1-2.51,1.45-3.75l1.45-3.82.95-2.16c.31-.72.65-1.46,1-2.23l.84-1.93c.3-.65.55-1.29.78-1.92s.7-1.43,1-2.13.63-1.38,1-2.06.62-1.43.91-2.13.62-1.4,1-2.12c.45-1,.91-2.09,1.39-3.15s.93-2.1,1.38-3.14.8-1.82,1.18-2.77.76-1.86,1.12-2.76q.19-.75-.54-.48l-1.22.41a8.39,8.39,0,0,0-1.15.47c-.63.23-1.22.47-1.79.74s-1.14.52-1.72.75l-3.51,1.48a36.64,36.64,0,0,0-3.45,1.69,25.08,25.08,0,0,1-2.9,1.42c-1,.4-2,.83-2.91,1.28a1.15,1.15,0,0,0-.33.21c-.41.31-.78.62-1.12.91a12.39,12.39,0,0,1-1.11.84.72.72,0,0,1-.44.17l-.51,0c-.18,0-.31-.22-.4-.54s-.26-.54-.38-.81a2.28,2.28,0,0,1-.16-.87,4.85,4.85,0,0,1,0-1.32c.07-.43.15-.89.23-1.39a4.15,4.15,0,0,1,.24-.81c.11-.27.24-.54.37-.81a1.46,1.46,0,0,1,.34-.47,7.12,7.12,0,0,1,1.18-.95,2.55,2.55,0,0,0,1-1.14.27.27,0,0,1,.27-.21c.68-.36,1.34-.71,2-1s1.33-.69,2.06-1.05,1.44-.73,2.16-1.12,1.44-.75,2.16-1.11a10.52,10.52,0,0,1,1.32-.57l1.31-.51c.77-.32,1.5-.63,2.2-.95s1.43-.6,2.19-.87,1.34-.43,2-.61,1.29-.38,1.92-.61c.41-.14.81-.26,1.22-.37l1.28-.37c.59-.14,1.16-.28,1.72-.44s1.14-.31,1.73-.44c.76-.18,1.53-.35,2.29-.51s1.53-.32,2.3-.5a11.36,11.36,0,0,0,1.28-.34,11.11,11.11,0,0,1,1.22-.34,8.84,8.84,0,0,1,1.32-.17,10.78,10.78,0,0,0,1.38-.17,9.29,9.29,0,0,0,1.11-.2,9.82,9.82,0,0,1,1.12-.2c.76-.09,1.55-.17,2.36-.24s1.6-.15,2.37-.24l3.85-.2a5.66,5.66,0,0,1,.61,0,3.7,3.7,0,0,0,.6,0,12.92,12.92,0,0,0,1.83.13,7.48,7.48,0,0,1,1.75.21c.77.13,1.5.28,2.2.43a7.23,7.23,0,0,1,2,.78,8.21,8.21,0,0,1,2,1.72,5.29,5.29,0,0,1,1.08,2.4c.09.32.17.62.24.91s.14.6.23.92A.58.58,0,0,1,1281.79,410.32Zm-54.52,50.12a.13.13,0,0,0,.1,0,.14.14,0,0,1,.11,0,.87.87,0,0,1-.17-.4,1.19,1.19,0,0,0-.17-.41.63.63,0,0,0-.2,0l-.21,0a2.84,2.84,0,0,0-.1.44,1,1,0,0,1-.17.44.12.12,0,0,0,0,.1s0,.08,0,.17l-.2.81a.43.43,0,0,1-.1.27c-.07.09-.08.16,0,.2a.3.3,0,0,0,.41.07c.14,0,.27-.11.41-.34a2.34,2.34,0,0,0,.16-.67A2.82,2.82,0,0,1,1227.27,460.44Zm.68-1.76-.34-.33a.89.89,0,0,0-.34-.21.58.58,0,0,0-.33.17c-.14.12-.21.19-.21.24a1.17,1.17,0,0,0,.34.67s.16,0,.34-.13Zm2.16-6.14c0-.45-.06-.68-.3-.68a1.45,1.45,0,0,1-.65-.13.48.48,0,0,0-.3.13l-.3.27a3.49,3.49,0,0,1,.37.47,1.15,1.15,0,0,0,.37.41c.09.05.22,0,.41-.13S1230,452.63,1230.11,452.54Zm-.07-3.22c0,.05.08.07.1.07s.06,0,.11.07-.08.35-.11.48a4.27,4.27,0,0,1-.1.49,1.89,1.89,0,0,1,0,.31,1.88,1.88,0,0,0,0,.31c0,.05.09.07.28.07l.4-.63a3,3,0,0,1,.3-.6,2.4,2.4,0,0,0,.31-.6.6.6,0,0,0,.07-.27.74.74,0,0,1,.06-.27.57.57,0,0,1,.21-.4,4,4,0,0,0,.33-.81,2.83,2.83,0,0,0,.11-.44,1,1,0,0,1,.16-.44c.5-.72.57-1.31.21-1.76a4.13,4.13,0,0,0,1-1.14.66.66,0,0,0-.17-.75,5.71,5.71,0,0,0-.54.85c-.18.33-.52.41-1,.23a4.08,4.08,0,0,0,.17.61,2.69,2.69,0,0,1,.14.54.83.83,0,0,1-.1.51,1.65,1.65,0,0,1-.61.51c.27.31.39.51.37.6s-.26.3-.71.61a2,2,0,0,0-.27.34,3.92,3.92,0,0,0-.27.47,1.37,1.37,0,0,1,.34-.07,3.24,3.24,0,0,0,.47-.06,5.5,5.5,0,0,0-.64.62C1230.39,449,1230.22,449.14,1230,449.32Zm4.8-8a4,4,0,0,1-.47-.3,1.54,1.54,0,0,0-.34-.17s-.18.11-.41.34a2.91,2.91,0,0,0,.27.24,1.34,1.34,0,0,0,.34.16C1234.27,441.64,1234.48,441.55,1234.84,441.32Zm21.82-36.81-.14.14h-.4a2.8,2.8,0,0,1-.37.2,3.72,3.72,0,0,0-.44.2q.14.13.27.3a2.86,2.86,0,0,0,.27.31c.09.09.24.07.47-.07l.51-.27.5-.27-.3-.27Zm10.13-.68a2.35,2.35,0,0,0-2-.33,12.71,12.71,0,0,1-1.42.17c-.45,0-.92.05-1.42.1-.09,0-.14,0-.17,0s-.07,0-.16,0l-1.09.24a5.45,5.45,0,0,0-1.08.3c-.09,0-.18.07-.27.2a.66.66,0,0,0-.13.34.17.17,0,0,0,.07.24.5.5,0,0,0,.27.1,7.42,7.42,0,0,1,.84-.1,2.93,2.93,0,0,0,.91-.24,1.75,1.75,0,0,1,1.42-.07,1,1,0,0,0,.64.07,1.83,1.83,0,0,0,.64-.27,1.38,1.38,0,0,1,.95-.07A1.54,1.54,0,0,0,1266.79,403.83Zm.47,0a5.15,5.15,0,0,1,.27.48c.09.18.25.2.47.07a1.25,1.25,0,0,1,.78-.31c.2,0,.42.06.64.1a5.42,5.42,0,0,0,.65.1,1.75,1.75,0,0,0,.64,0,.55.55,0,0,0,.4-.24,1.67,1.67,0,0,1,.47-.37,2.39,2.39,0,0,1-.33-.27.38.38,0,0,0-.27-.13q-.95.13-1.86.3T1267.26,403.83Zm6,.41c.58.36,1,.51,1.18.44s.48-.42.84-1.05a2.41,2.41,0,0,1-.4-.34.3.3,0,0,0-.41-.06,1.84,1.84,0,0,0-.61.4Zm2.43.81c.81-.36,1.06-.76.74-1.22,0-.09-.06-.12-.17-.1a.44.44,0,0,1-.3,0,.12.12,0,0,1,0,.1.15.15,0,0,0,0,.1l.34.34Q1276,404.59,1275.64,405.05Z" transform="translate(-208.8 -346.5)"/><path d="M1312.72,401.81a1.17,1.17,0,0,0-.1.5c0,.07.19.2.51.38a8.72,8.72,0,0,0-.4,1.52,6.17,6.17,0,0,1-.46,1.52c-.08.27-.17.54-.26.81s-.17.56-.26.87-.18.45-.26.68a.63.63,0,0,0,.13.67.75.75,0,0,0-.33.58,3.72,3.72,0,0,0,.06.64l-.59.4a2.72,2.72,0,0,1-.2,1.05,5.76,5.76,0,0,1-.54,1q-.27.54-.57,1a2.28,2.28,0,0,0-.37,1.08,1,1,0,0,1-.31.47,1.27,1.27,0,0,0-.37.54,8.24,8.24,0,0,0-.47.94q-.21.48-.48,1a.12.12,0,0,1-.06.1c-.05,0-.07.08-.07.16a11.19,11.19,0,0,1-1.08,2.74c-.45.79-.93,1.56-1.42,2.33l-1.59,2.39a13.46,13.46,0,0,0-1.31,2.53,3.51,3.51,0,0,1-.55.88q-.33.4-.6.81a13.11,13.11,0,0,0-1.56,2.23,12.91,12.91,0,0,1-.71,1.14c-.25.36-.48.75-.71,1.15a4.91,4.91,0,0,1-.84,1.22c-.34.36-.69.72-1,1.07a12.67,12.67,0,0,0-1,1.12,13.19,13.19,0,0,0-.77,1.11l-.21.2a11,11,0,0,1-1.21,2.3,17.65,17.65,0,0,1-1.35,1.68l-.41.58a6.08,6.08,0,0,0-.34.57l-2,2.53c-.65.84-1.29,1.63-1.92,2.4a3.79,3.79,0,0,1-.31.37,2.69,2.69,0,0,0-.3.37,20.48,20.48,0,0,1-2.91,3.31,7.72,7.72,0,0,0-.74.87l-.67.95c-.37.49-.69,1-1,1.42s-.62.9-1,1.35l-.68.81c-.23.27-.45.51-.68.74s-.47.43-.47.61a14.81,14.81,0,0,1-1.52,2.12c-.56.65-1.09,1.32-1.59,2a12.48,12.48,0,0,1-1,.95,12.32,12.32,0,0,0-1,.94c-.59.63-1.17,1.25-1.76,1.86s-1.17,1.22-1.75,1.85a1.56,1.56,0,0,1-.54.44,1,1,0,0,0-.47.44,7.81,7.81,0,0,1-1.09,1.21,2.22,2.22,0,0,1-1.35.54,1.77,1.77,0,0,1-1.69.51q-.81-.24-1.68-.57a4.36,4.36,0,0,0-.41-.24.65.65,0,0,0-.54,0,1.36,1.36,0,0,1-1.35-.33.44.44,0,0,0-.27-.28,4.71,4.71,0,0,1-2.33-1.45c-.61-.7-1.23-1.38-1.86-2.06a5,5,0,0,1-1.18-1.83,18.26,18.26,0,0,1-.64-2.16,26.45,26.45,0,0,1-.44-3.52,26.8,26.8,0,0,1,0-3.58c.14-1.49.33-3,.57-4.4s.58-2.88,1-4.33c.32-1.17.61-2.33.88-3.48s.52-2.31.74-3.48c.27-1,.56-2,.88-2.94s.61-1.95.88-2.95c.22-.76.45-1.5.67-2.19s.45-1.39.68-2.07q.54-1.62,1.08-3.21c.36-1.06.72-2.11,1.08-3.14.22-.54.4-1,.54-1.49.4-1.4.85-2.77,1.35-4.13s1-2.7,1.48-4.06a2.19,2.19,0,0,1,.78-.94,4.4,4.4,0,0,1,1.11-.54.39.39,0,0,1,.3,0,2.13,2.13,0,0,0,.37,0,7.45,7.45,0,0,0-.6.64s.06.07.06.09,0,.05.07.09a2.85,2.85,0,0,1,.54-.18,2.36,2.36,0,0,0,.41-.12,1.77,1.77,0,0,1,.6-.12,3.58,3.58,0,0,0,.61-.06q-.13.38-.27.87a2.09,2.09,0,0,0,1.11,0,1.85,1.85,0,0,1,1.19.14c-.09.32,0,.5.2.54a2.12,2.12,0,0,1,.61.37l.54.51a1.21,1.21,0,0,1,.13,1.75.36.36,0,0,1-.13.21,6,6,0,0,0-1.12,1.92,9,9,0,0,1-1,2,1.65,1.65,0,0,0-.16.51c0,.16-.06.33-.11.51a3.78,3.78,0,0,1-.2.77,1.49,1.49,0,0,1-.47.65.58.58,0,0,0-.17.27.58.58,0,0,1-.17.27c-.09.36-.18.71-.27,1s-.18.69-.27,1.05c-.31.9-.63,1.78-.94,2.64s-.59,1.68-.81,2.5a20.76,20.76,0,0,0-.81,2.12c-.23.7-.45,1.39-.68,2.06a2.83,2.83,0,0,0-.17.71,3.32,3.32,0,0,1-.17.78,2.73,2.73,0,0,1-.4,1.11,3.09,3.09,0,0,1-1,.78.73.73,0,0,1,.37.78c-.07.29-.15.59-.24.91a4.67,4.67,0,0,0-.67,1.79,14.41,14.41,0,0,1-.4,1.86.73.73,0,0,0-.07.3.41.41,0,0,1-.13.3,5,5,0,0,0-.27,1.69,4.06,4.06,0,0,1-.2.78q-.14.38-.27.78a18.4,18.4,0,0,1-.81,2.56,7.19,7.19,0,0,0-.2.88,6,6,0,0,1-.21.81,2.46,2.46,0,0,1-.34.41,2.91,2.91,0,0,0-.33.4,2.8,2.8,0,0,1,.2.37,1.76,1.76,0,0,0,.2.38c-.13.22-.29.47-.47.74a1.5,1.5,0,0,0-.2.4.8.8,0,0,0,.06.55,1.3,1.3,0,0,1,.07.74,5.24,5.24,0,0,0-.07.74,2.65,2.65,0,0,1-.2.64.8.8,0,0,0,.07.71,1.29,1.29,0,0,1-.1.71c-.12.29-.22.55-.31.78a3.78,3.78,0,0,0-.2,1.52c0,.47.11,1,.2,1.45a1.61,1.61,0,0,0,.07.47.78.78,0,0,1,0,.48,3.62,3.62,0,0,1,.14,1,1.79,1.79,0,0,0,.4,1.08,7,7,0,0,0,1.28-1,23.78,23.78,0,0,0,2.13-2.13,25.18,25.18,0,0,1,2.13-2.13,7.52,7.52,0,0,0,1.11-1.21,9.53,9.53,0,0,1,1.19-1.29,7.38,7.38,0,0,0,.84-1,4.1,4.1,0,0,1,.91-.95,6.09,6.09,0,0,0,1.15-1.18,9.71,9.71,0,0,1,1-1.18c0-.09.11-.27.2-.54a2.84,2.84,0,0,0,.47-.44c.14-.16.27-.33.41-.51a2.72,2.72,0,0,1,1-1,1.92,1.92,0,0,0,.88-1.22c0-.18.06-.27.2-.27a2,2,0,0,0,1-1,5.14,5.14,0,0,1,.77-1.22c.36-.4.75-.81,1.15-1.21l1.29-1.29a2.34,2.34,0,0,1,.4-.64c.18-.2.38-.41.61-.64.63-.85,1.26-1.69,1.89-2.5s1.26-1.64,1.89-2.5l.31-.3.3-.31c.36-.4.71-.83,1-1.28a8,8,0,0,1,1.11-1.21,6.58,6.58,0,0,0,.61-.71l.61-.85a10.72,10.72,0,0,1,1.28-2.09c.32-.5.62-.95.91-1.35s.6-.84.91-1.29.8-1,1.19-1.52.75-1,1.11-1.58a1.78,1.78,0,0,0,.27-.38,3.85,3.85,0,0,0,.27-.57,3.26,3.26,0,0,1,.2.47,2.35,2.35,0,0,0,.14.34h-.07a1,1,0,0,1-.2.68,3.39,3.39,0,0,0-1.12,1.35,9.18,9.18,0,0,1-.84,1.48c-.63.77-1.23,1.56-1.79,2.37s-1.16,1.6-1.79,2.36a10.1,10.1,0,0,0-.61.95,1.82,1.82,0,0,1-.88.74,1.2,1.2,0,0,0-.37.51,3.33,3.33,0,0,1-.44.71c-.31.4-.61.8-.87,1.18s-.57.78-.88,1.18l-1,1.08c-.34.36-.67.72-1,1.08q-.67.94-1.35,1.83l-1.42,1.82a9.14,9.14,0,0,1-1.08,1.38c-.41.43-.79.87-1.15,1.32a1.59,1.59,0,0,0-.2.47v.21a.65.65,0,0,0-.75.44,1.26,1.26,0,0,1-.67.71,1.11,1.11,0,0,0-.47.54c-.14.27-.27.51-.41.74l-.44.27-.44.27a1.43,1.43,0,0,0-.3.44,1.15,1.15,0,0,1-.37.44c-.27.27-.36.52-.27.74s.09.24,0,.31a1.84,1.84,0,0,0-.27.23,1.53,1.53,0,0,0-.11.27,1.92,1.92,0,0,1-.16.41l.4-.21a.94.94,0,0,0,.27-.2,4.9,4.9,0,0,1,.47-.4,2.73,2.73,0,0,0,.48-.48,5.19,5.19,0,0,0,.33-.67c.32-.27.6-.53.85-.78l.71-.71a14,14,0,0,1,1.15-1.28c.4-.41.78-.81,1.14-1.22a8.56,8.56,0,0,1,1-.94,3.22,3.22,0,0,0,.85-1.08,1.47,1.47,0,0,1,.4-.58c.18-.16.39-.35.61-.57a5.37,5.37,0,0,1,.44-.51l.58-.57a2,2,0,0,1,.5-.75,1.5,1.5,0,0,1,.85-.33,1.17,1.17,0,0,0-.07-.38,2.8,2.8,0,0,0-.2-.37h.67a1.5,1.5,0,0,1,.58-1,6.87,6.87,0,0,0,.84-.71,1.51,1.51,0,0,0,.61-.54c.18-.23.35-.44.5-.65l.51-.64c.23-.27.45-.51.68-.74a1.87,1.87,0,0,0,.47-.88.24.24,0,0,1,.27-.27c.31-.18.47-.36.47-.54a1.18,1.18,0,0,0-.2-.61l1-.77c.33-.25.68-.53,1-.85a1.8,1.8,0,0,1-.33-.47,5.12,5.12,0,0,1,1.75-2.09c.18-.18.27-.32.27-.41a1,1,0,0,1,.27-.51,2.53,2.53,0,0,0,.41-.44q.27-.33.54-.6a4.48,4.48,0,0,0,.54-.68,2.27,2.27,0,0,1,.67-.94c.32-.28.61-.55.88-.82a2.35,2.35,0,0,0,.68-.67,2,2,0,0,0,.07-1,4.32,4.32,0,0,0,.81-.94l.67-1.08a2.93,2.93,0,0,1,.47-.75.92.92,0,0,1,.88-.33,5.85,5.85,0,0,1,0-.71,5.06,5.06,0,0,1,.1-.71v-.07l.07-.07a1,1,0,0,0,1-.36,4.47,4.47,0,0,0,.51-1c.09-.22.19-.45.3-.67a2.9,2.9,0,0,1,.51-.67l.74-1.46c.14-.27.28-.54.44-.8a1,1,0,0,1,.78-.47l-.27.24a2.83,2.83,0,0,1-.34.23.46.46,0,0,1,.07.21.47.47,0,0,0,.07.2,1.92,1.92,0,0,1-.21,1.35,11.4,11.4,0,0,0-.74,1.12c-.23.38-.45.78-.67,1.19s-.57,1-.88,1.49a10.83,10.83,0,0,0-.81,1.48c-.36.5-.68.95-1,1.36s-.56.83-.88,1.29-.55,1-.84,1.39-.6.86-.91,1.31c-.59.77-1.15,1.52-1.69,2.24l-1.69,2.23-1.08,1.49-1.08,1.49a.64.64,0,0,0-.17.31c0,.11-.08.17-.17.17a1.33,1.33,0,0,0-.91.71c-.16.34-.33.67-.51,1a1.12,1.12,0,0,0-.1.24.31.31,0,0,1-.17.17,3.5,3.5,0,0,0-1.22,1.35,4.21,4.21,0,0,1-1.14,1.42,2.18,2.18,0,0,0-.14.34c0,.14-.11.32-.2.55a1.88,1.88,0,0,0,1-.85,6.05,6.05,0,0,1,.77-1.12l.4.44a5.89,5.89,0,0,0,.41.44.27.27,0,0,0,.2-.07,2.47,2.47,0,0,1,.27-.6l-.52-.28a.57.57,0,0,1,.12-.57,1.89,1.89,0,0,1,.75-.3,2.77,2.77,0,0,1-.06.6,2.62,2.62,0,0,0,1.36-1.15,15.09,15.09,0,0,1,1-1.32c.32-.38.67-.77,1-1.18a1,1,0,0,0,.34-1,1,1,0,0,0,.21-.13l.14-.14c.36-.09.58-.24.65-.47a6,6,0,0,0,.17-.88l-.81.4a2.24,2.24,0,0,0-.14-.52.51.51,0,0,0,.44-.24,4.33,4.33,0,0,0,.31-.51,1.55,1.55,0,0,1,.37-.48.75.75,0,0,1,.64-.13c-.14.23-.26.42-.37.58a4.33,4.33,0,0,0-.31.51c.14.23.36.18.68-.14.54-.72,1.08-1.43,1.62-2.11a25.69,25.69,0,0,0,1.55-2.18,12.41,12.41,0,0,1,1-1.33,5.31,5.31,0,0,0,.85-1.33c-.14-.22-.25-.35-.34-.37a3.8,3.8,0,0,0-.67,0l.43-.13a1.28,1.28,0,0,1,.38-.07,1.47,1.47,0,0,0,1.21-.88,4.36,4.36,0,0,1,.41-.74c.18-.27.36-.52.54-.74a.57.57,0,0,0,.07-.44,1.06,1.06,0,0,0-.21-.31.66.66,0,0,1,.27-.06.68.68,0,0,0,.27-.07,1.24,1.24,0,0,0,0-.27,1.24,1.24,0,0,1,0-.27.92.92,0,0,1,.33-.1,3.17,3.17,0,0,0,.54-.17c-.09-.09-.12-.16-.1-.2a.13.13,0,0,0,0-.14c-.32-.31-.46-.57-.44-.77a1.44,1.44,0,0,1,.57-.77,1.61,1.61,0,0,0,.34-.54,9.57,9.57,0,0,1,1.42-2.35,1.68,1.68,0,0,1,.51-.44.87.87,0,0,0,.37-.7c0-.09.08-.15.23-.17a1,1,0,0,0,.44-.17.6.6,0,0,1,.07-.7c.18-.25.11-.46-.2-.64a3.64,3.64,0,0,1,.74-1,1,1,0,0,1,1.15,0,1.24,1.24,0,0,1,0-1c.13-.3.24-.58.33-.85.2-.5.43-1,.67-1.53s.5-1,.77-1.54a2.82,2.82,0,0,0-.41-.23l-.47-.24,1-.79c.32-.24.67-.53,1-.85h-.74a1.88,1.88,0,0,1,.1-.92,4.43,4.43,0,0,1,.44-.83,2.35,2.35,0,0,0,.14-.34,3.08,3.08,0,0,1,.13-.34,12.83,12.83,0,0,1,.31-2.09c.15-.68.3-1.35.43-2,0-.22,0-.44,0-.64a1.49,1.49,0,0,0-.24-.64c-.18.13-.27.25-.27.34-.18.49-.34,1-.5,1.45s-.33,1-.51,1.45a2,2,0,0,0-.2.37.66.66,0,0,0,0,.44c-.05.14-.09.29-.14.47a.83.83,0,0,1-.2.41,3.1,3.1,0,0,0-.51.84c-.11.3-.23.6-.37.92s-.27.54-.54.46l-.13-.13a5.46,5.46,0,0,0,.57-1.55,13.92,13.92,0,0,1,.44-1.62c.14-.41.26-.82.37-1.25a5,5,0,0,1,.51-1.25c0-.18,0-.3-.24-.37s-.17-.22.1-.44a.5.5,0,0,0,.14-.37,1.23,1.23,0,0,1,.07-.44,5.59,5.59,0,0,0,.13-1,3.46,3.46,0,0,1-.07-.6,1.19,1.19,0,0,0-.13-.54c-.09-.5-.16-1-.2-1.49a2.06,2.06,0,0,0-.61-1.28,2.46,2.46,0,0,0-.41-.34.56.56,0,0,0-.54,0,2.68,2.68,0,0,0,.44.57,2.68,2.68,0,0,1,.44.58c0,.09,0,.13-.13.13h-.28a.34.34,0,0,0-.23.1.54.54,0,0,0-.1.38c-.19,0-.32-.09-.42-.41a5.25,5.25,0,0,0-2.68-4c-.05,0-.07,0-.07-.06a1.05,1.05,0,0,1,.82-.07,8.28,8.28,0,0,1,1.5,1.22,1.71,1.71,0,0,0,.27-.54c.73.54,1.42,1.08,2.08,1.62a4.32,4.32,0,0,1,1.39,2.29c.19.5.38,1,.58,1.46a3.84,3.84,0,0,1,.31,1.58v.21c.36.13.51.36.44.67s-.14.63-.22.95-.08.63-.14.94ZM1255,454.63a.9.9,0,0,0,.33-.57,3.45,3.45,0,0,0-.06-.58A1.06,1.06,0,0,0,1255,454.63Zm.54-2c0-.22.07-.46.1-.7s0-.49,0-.71a3.54,3.54,0,0,0-.47,1C1255.24,452.28,1255.35,452.43,1255.58,452.6Zm0,8a4.57,4.57,0,0,0,.3-1.45,2,2,0,0,0-.24-1.18,2.88,2.88,0,0,0-.23,1.28A10.37,10.37,0,0,0,1255.58,460.64Zm.4-12.43a.86.86,0,0,1,0,1,1.07,1.07,0,0,0-.1,1c.18-.36.32-.67.44-.94s.23-.56.37-.88a5.15,5.15,0,0,1-.48-.27.22.22,0,0,1-.1.07S1256,448.17,1256,448.21Zm-.2,7.84a1.44,1.44,0,0,0,.61-1,4.29,4.29,0,0,1,.27-1.11c-.5.27-.75.58-.75.94A5.33,5.33,0,0,1,1255.78,456.05Zm.88-12.63c.54.18.69.52.47,1a4.38,4.38,0,0,0-.47,1.22l-.27,1.21a1.31,1.31,0,0,0-.07.44,2.74,2.74,0,0,1-.07.58,1.42,1.42,0,0,0,.74-.81,7.66,7.66,0,0,0,.21-1,.91.91,0,0,0,0-.4,1,1,0,0,1,0-.41c.18-.49.36-1,.54-1.45a5.35,5.35,0,0,0,.34-1.52,2,2,0,0,1,.27-.47,1.06,1.06,0,0,1,.07-.37c0-.12.09-.24.14-.38.17-.85.38-1.7.6-2.53a11.76,11.76,0,0,1,1-2.4,1.57,1.57,0,0,0-.07-.74h-.27a28.68,28.68,0,0,0-1.32,4c-.33,1.35-.68,2.7-1,4.05Zm-.14,16c0-.23.09-.48.14-.75a5,5,0,0,0,.06-.74,2.84,2.84,0,0,0-.37.64A2.78,2.78,0,0,0,1256.52,459.43Zm1.62-12.16c0-.14.08-.24.1-.31a.88.88,0,0,1,.17-.23,1.82,1.82,0,0,0,.37-.75,6.43,6.43,0,0,1,.24-.74.44.44,0,0,1-.07-.71.86.86,0,0,0,.27-.77,1.93,1.93,0,0,0,.51-1.22,7.33,7.33,0,0,1,.17-1.28,3.5,3.5,0,0,0,.2-.68.83.83,0,0,1,.41-.54.91.91,0,0,1-.14-.94c.14-.23.27-.47.41-.71a3,3,0,0,0,.27-.71,7.48,7.48,0,0,1,.47-1.79,17.88,17.88,0,0,0,.61-1.79q.13-.41.27-.75a2.11,2.11,0,0,1,.47-.67q-.06-.21-.54-.54-1.75,4.65-3,9.35c-.85,3.13-1.67,6.27-2.43,9.43a1.38,1.38,0,0,0,.61-.61,2.91,2.91,0,0,0,.17-.64,1.65,1.65,0,0,1,.23-.65A2.5,2.5,0,0,0,1258.14,447.27Zm.54,5.47a.35.35,0,0,1-.17-.14.1.1,0,0,0-.1-.06.18.18,0,0,0-.2.2.94.94,0,0,1,.2.27Zm.81-4.8c0-.09,0-.2-.13-.33a1.17,1.17,0,0,1-.2.27l.2.2C1259.54,448.08,1259.58,448,1259.49,447.94Zm.07-.74a1.39,1.39,0,0,0,.54-.27,2.25,2.25,0,0,0-.47-.4l-.14.06-.13.14a.35.35,0,0,0,.07.23A2.6,2.6,0,0,1,1259.56,447.2Zm.53-1.89a3,3,0,0,0,.38-.71,2.65,2.65,0,0,0,0-.71c-.32.23-.47.46-.45.71S1260.05,445.08,1260.09,445.31Zm.75-12.5a1,1,0,0,1-.33.51.55.55,0,0,0-.14.64,1.69,1.69,0,0,0,.41-.4A2.61,2.61,0,0,0,1260.84,432.81Zm1.42-3.37a6.16,6.16,0,0,0-.88,1.45,2.18,2.18,0,0,0-.26,1.38,2.66,2.66,0,0,0,.7-1.31A12.66,12.66,0,0,1,1262.26,429.44Zm-.06,9c.18-.09.27-.16.27-.2a.86.86,0,0,0,0-.24c0-.07,0-.17-.1-.3l-.27.4c0,.09,0,.15.07.17A.18.18,0,0,1,1262.2,438.42Zm1.2-9a5.41,5.41,0,0,0-.7,1.55.92.92,0,0,0,.24.88,1.87,1.87,0,0,1,.4-1.15A1.21,1.21,0,0,0,1263.4,429.44Zm8.52,26.2a.05.05,0,0,1-.06-.06v-.14c-.28,0-.5.2-.68.61a.1.1,0,0,0,.07.1.35.35,0,0,1,.13.17l.27-.3C1271.74,455.9,1271.83,455.78,1271.92,455.64Zm2.7-2.36a.76.76,0,0,1-.23-.17c-.07-.07,0-.21.23-.44a1.58,1.58,0,0,1,0,.34A.42.42,0,0,0,1274.62,453.28Zm8.28-8.24c.22-.18.22-.38,0-.61a6.2,6.2,0,0,1-.61.68A1.78,1.78,0,0,0,1282.9,445Zm2.19,1.69.6-.61a6.6,6.6,0,0,0,.52-.61,4.18,4.18,0,0,1,.2-.54.81.81,0,0,0-.89.58,2.14,2.14,0,0,1-.49.91.08.08,0,0,0,0,.13A.22.22,0,0,1,1285.09,446.73Zm1.15-3.31a.91.91,0,0,0-.87.47C1285.81,444.07,1286.11,443.91,1286.24,443.42Zm.21,1.48a1,1,0,0,1,.35-.33.87.87,0,0,0,.35-.48q-.51-.06-.54.21A3.38,3.38,0,0,1,1286.45,444.9Zm4.25-6a1.74,1.74,0,0,1-.81,1.08l-.13-.27-.14-.27a3.85,3.85,0,0,0,.57-.27Zm-.07-.61.38.11.43.1c-.36.18-.6.31-.74.4A2.32,2.32,0,0,0,1290.63,438.28Zm1-.54a2.41,2.41,0,0,1-.34-.54.24.24,0,0,0,.07-.2,2.63,2.63,0,0,1,.68.07A4.36,4.36,0,0,0,1291.67,437.74Zm2.09-3c0,.23-.09.43-.13.61a5.36,5.36,0,0,1-.2.61,1,1,0,0,1-.41.17,2.85,2.85,0,0,0-.54.17l.61-.85a6.68,6.68,0,0,0,.47-.71Zm.59-7.9a1.47,1.47,0,0,0,.3-.71,2.77,2.77,0,0,0-.37-.71,1.47,1.47,0,0,0,.37,0,.86.86,0,0,1,.24,0l.27-.81a5.59,5.59,0,0,1,.34-.81,2.12,2.12,0,0,1,.4.38,2,2,0,0,0,.48.37l-.88,1.15c-.32.4-.61.81-.88,1.21Zm1,5.54a4.89,4.89,0,0,1,.44-.91c.07-.07.26-.06.58,0a.64.64,0,0,0-.41.54C1295.92,432.27,1295.72,432.39,1295.36,432.34Zm3.06-12.83a1.72,1.72,0,0,0-.17.64,4.05,4.05,0,0,1-.13.71,1.8,1.8,0,0,1-.31.6,1.17,1.17,0,0,1-.67.41A3.9,3.9,0,0,1,1298.42,419.51Zm-.81,9.93c-.09-.23-.1-.38,0-.44l.71-.65A1.54,1.54,0,0,1,1297.61,429.44Zm1.06-9.12a.4.4,0,0,1,.14-.27l.13.06.07.07a.49.49,0,0,1,0,.2,2.17,2.17,0,0,0-.1.21Q1298.67,420.38,1298.67,420.32Zm.09-1.56q1.54-2.76,3.17-5.3a43.07,43.07,0,0,0,2.9-5.37l.13.14h.07a7.08,7.08,0,0,1-.54,1.41c-.22.45-.45.88-.67,1.29a.94.94,0,0,1-.27.2.22.22,0,0,0-.14.2,3.45,3.45,0,0,1-.44,1.18c-.2.34-.41.69-.64,1.05s-.54.88-.81,1.29-.56.83-.88,1.28c-.13.27-.28.54-.43.81l-.51.88a.65.65,0,0,1,.07.23.36.36,0,0,0,.13.24c0,.14-.19.26-.44.37A1.1,1.1,0,0,1,1298.76,418.76Zm2,6.22a2.32,2.32,0,0,1-.44.71q-.1,0-.57-.51l.5-.1Zm.46-.41c-.09.09-.16.14-.2.14a.18.18,0,0,0-.07-.17s-.09-.08-.14-.17l.21-.14a.45.45,0,0,1,.27.27Zm.42-1.75a1.35,1.35,0,0,1,.5-.38,1.4,1.4,0,0,1,.51,0,4.24,4.24,0,0,0-.47.61l-.27-.14Zm1.68-1.56c.27.36.59.36,1,0Zm1.9-8c.13.14.2.18.2.14a.84.84,0,0,1,0,.27,1.24,1.24,0,0,0,0,.27h.41a.41.41,0,0,1,.06.27.15.15,0,0,1,0,.1.29.29,0,0,0,0,.17.57.57,0,0,1-.54,0c-.19-.09-.37,0-.55.27a2.35,2.35,0,0,1-.2.44c-.09.16-.18.3-.27.44a.79.79,0,0,1-.47-.11c-.09-.06-.07-.19.07-.37s.46-.62.71-.91A9.93,9.93,0,0,0,1305.24,413.29Zm-.15-5.48c.17-.36.32-.69.45-1a9.68,9.68,0,0,1,.45-.92.13.13,0,0,1,.09,0,.13.13,0,0,0,.1,0,5.3,5.3,0,0,0-.48.95,1.35,1.35,0,0,1-.1.5A.79.79,0,0,1,1305.09,407.81Zm1,4.27-.17,0a.75.75,0,0,1-.23,0v-.2l.4-.13Q1306.19,411.87,1306.11,412.08Zm.07-6.83c.22-.49.42-1,.6-1.52s.36-1,.55-1.52a.32.32,0,0,1,.2.07c-.14.45-.26.89-.37,1.32a12.76,12.76,0,0,1-.44,1.32,1.46,1.46,0,0,1-.34.47c-.05-.05-.08-.07-.1-.07S1306.22,405.3,1306.18,405.25Zm.4,4.87.37-.37a4.66,4.66,0,0,0,.38-.44,3.66,3.66,0,0,1,.1.84,2.17,2.17,0,0,1-.51.64A4.23,4.23,0,0,0,1306.58,410.12Zm1.14-1.49a.23.23,0,0,0,.07.14.88.88,0,0,1-.2.16.67.67,0,0,0-.14.11s-.06,0-.06-.07-.07-.08-.07-.1,0-.06-.07-.1a1.38,1.38,0,0,0,.27-.11l.2-.1Zm.07-7s-.07,0-.07,0,0,0-.06,0a3,3,0,0,0,.4-.34c0,.05,0,.07,0,.07s0,0,0,.06a.79.79,0,0,1-.17.14Zm.47-1.42c-.13,0-.19-.06-.16-.17a3.64,3.64,0,0,1,.3-.71,2.49,2.49,0,0,0-.07.54A.71.71,0,0,1,1308.26,400.19Zm.21-1.49c0-.58.09-1.15.13-1.69s.11-1.1.2-1.69a.3.3,0,0,1,.07-.2.69.69,0,0,0,.14-.2,2.43,2.43,0,0,1,.3.54,1,1,0,0,1,0,.67,2.17,2.17,0,0,0-.27,1.32A1.46,1.46,0,0,1,1308.47,398.7Zm.54,8-.54-.13a3.67,3.67,0,0,1,.47-.17,1.48,1.48,0,0,0,.27-.1.21.21,0,0,1,.07.13Q1309.15,406.67,1309,406.67Zm.62,2.43s.06,0,.06,0,0,0,.06,0a4.37,4.37,0,0,1-.31.78c-.12.25-.25.5-.37.77a.22.22,0,0,0-.13-.06A10.37,10.37,0,0,1,1309.63,409.1Z" transform="translate(-208.8 -346.5)"/><path d="M1553.65,533.49a1.29,1.29,0,0,1,.69-1.3,3.35,3.35,0,0,0,1.18-.89,10.42,10.42,0,0,1,.93-1c.35-.33.72-.65,1.1-1,.27-.16.54-.31.81-.44s.54-.29.81-.45l.24.25a17.27,17.27,0,0,0-1.66,1.37,16,16,0,0,1-1.66,1.38,1.88,1.88,0,0,1,.32.49l1.3-.81,1.3-.81c.75-.6,1.46-1.19,2.11-1.79s1.35-1.18,2.1-1.78c.06,0,.14,0,.25-.16a7.11,7.11,0,0,0,2.31-1.22,23.21,23.21,0,0,0,2-1.78,5.31,5.31,0,0,1,2.11-1.3,13,13,0,0,0,2.35-1,5.45,5.45,0,0,1,1.91-.77,3.35,3.35,0,0,0,1.82-1.1,2.62,2.62,0,0,1,1.06-.61,11.35,11.35,0,0,0,1.21-.44,1.54,1.54,0,0,0,.57-.41l-.32-.16a.8.8,0,0,0-.33-.08c-.43.21-.89.42-1.37.61s-1,.39-1.38.6c-1.25.55-2.41,1-3.49,1.38a16.18,16.18,0,0,1,4.5-2.52l4.91-1.78c-.06-.05-.08-.16-.08-.32a6,6,0,0,1-.82.12l-.81.12a5.11,5.11,0,0,1-1.78.17c.27-.25.46-.38.57-.38,1.24-.1,2.47-.24,3.69-.41a25,25,0,0,1,3.69-.27,7.13,7.13,0,0,1,2.31.41l2.31.81a2.36,2.36,0,0,1,1.74,1.7q.28,1.22.45,2.43a5.37,5.37,0,0,1-.33,2.64,14.56,14.56,0,0,1-1.29,2.55l-.41-.52c-.11-.14-.22-.26-.32-.37,0-.92,0-1.8,0-2.63a18.5,18.5,0,0,0-.12-2.56c-.06-.75-.24-1.23-.53-1.42a2.82,2.82,0,0,0-1.58-.2,24.55,24.55,0,0,0-4.71.93,27.11,27.11,0,0,0-4.37,1.75,17.76,17.76,0,0,0-2,1.05c-.62.38-1.26.73-1.91,1a.49.49,0,0,1-.36,0,.57.57,0,0,0-.37.05,2.59,2.59,0,0,0-.48,0,.39.39,0,0,0-.33.2,2.21,2.21,0,0,1-1.3,1.38,11,11,0,0,0-1.62.73l-2.67,1.7a16,16,0,0,1-1.63,1,18.05,18.05,0,0,0-1.62,1,3,3,0,0,0-.65.69,3.14,3.14,0,0,1-.64.69l-2.68,2.18a.51.51,0,0,1-.37.17.73.73,0,0,0-.36.08c-.27,0-.43,0-.49.16a5.73,5.73,0,0,1-1.9,2.27,12.36,12.36,0,0,0-2.23,2,11.07,11.07,0,0,1-1.22,1.05q-.65.5-1.38,1.14a9.88,9.88,0,0,1-1,1.29c-.38.44-.79.9-1.22,1.38q-.88,1-1.74,2t-1.74,2l-2.27,2.55-2.28,2.55a13.83,13.83,0,0,0-1,1.34,11.47,11.47,0,0,1-1,1.34c-.76,1-1.49,1.92-2.19,2.84l-2.19,2.84q-1.38,2.1-2.76,4.13t-2.76,4.14c-.48.76-1,1.54-1.45,2.35s-1,1.6-1.46,2.35l-.65,1c-.22.33-.44.65-.65,1l-3.41,5.59c-.48.92-.94,1.81-1.38,2.68s-.89,1.76-1.37,2.67a15,15,0,0,1-1.54,2.11,1.66,1.66,0,0,1-1.38.25c-.6-.11-1.21-.21-1.83-.29a5.4,5.4,0,0,1-1.74-.52,13.32,13.32,0,0,1-1.91-1.18,6,6,0,0,1-1.5-1.58,6.71,6.71,0,0,1-.93-2.19q-.29-1.22-.45-2.43a18.53,18.53,0,0,1-.08-5.15c.22-1.71.46-3.42.73-5.15.22-1.35.47-2.68.77-4s.58-2.62.85-4,.64-2.78.94-4.13.58-2.73.85-4.14q.65-3.24,1.22-6.41c.37-2.1.7-4.24,1-6.4a29.41,29.41,0,0,0,.2-4.1,39.66,39.66,0,0,1,.12-4.09,1.32,1.32,0,0,1,.57-1.14.56.56,0,0,1,.53-.08c.24.06.52.11.85.16,0-.1.21-.32.65-.65a3.13,3.13,0,0,0-.08.65,3.1,3.1,0,0,1-.09.65q1.23-.48,2.19-.81a.85.85,0,0,0,.25.73,1,1,0,0,0,.57.16,4.58,4.58,0,0,0,.64,0,.89.89,0,0,1,.57.12,1.15,1.15,0,0,0-.24.33c-.06.11-.14.24-.24.4l.64.25.57.16a6.74,6.74,0,0,1,1.87.89,2.45,2.45,0,0,1,1,1.79,1,1,0,0,0,.24.72,1.91,1.91,0,0,1,.65,1.3,6.23,6.23,0,0,1-.16,1.38c-.16.6-.37,1.22-.61,1.87a3.47,3.47,0,0,0-.2,1.86,5.25,5.25,0,0,1-.12,2.19,18.92,18.92,0,0,1-.69,2c-.11.16-.14.27-.08.32a2.41,2.41,0,0,1,.24,1.26,2.92,2.92,0,0,1-.36,1c-.2.33-.41.65-.65,1a3.2,3.2,0,0,0-.53,1.06,2.05,2.05,0,0,1,.16,1.46,3.7,3.7,0,0,1-.57,1.54c-.16.27-.32.55-.48.85a.93.93,0,0,0-.08.85,2.48,2.48,0,0,1,.2,1.66,5.17,5.17,0,0,1-.61,1.42,11.83,11.83,0,0,0-1.46,4.63,2.11,2.11,0,0,1-.12.73l-.28.73a1.46,1.46,0,0,0-.09.52.92.92,0,0,1-.16.53,1.4,1.4,0,0,1-.24.45,2.94,2.94,0,0,0-.33.52c.44.6.22,1-.64,1.14a2.32,2.32,0,0,1,.56,1c.06.27-.11.54-.48.81a1.15,1.15,0,0,0-.37.73c-.08.38-.07.62,0,.73.38.38.47.68.29.89a2.62,2.62,0,0,0-.45.73,4.64,4.64,0,0,0-.41.9c-.1.32-.21.64-.32,1,.11.11.19.16.24.16a5.72,5.72,0,0,1,.53-.45,1.42,1.42,0,0,0,.45-.52c.92-1.41,1.83-2.84,2.75-4.3s1.84-2.89,2.76-4.3c.6-.92,1.15-1.82,1.66-2.71s1.07-1.8,1.67-2.72a9.17,9.17,0,0,1,1-1.42c.38-.46.76-.93,1.13-1.42.44-.65.88-1.32,1.34-2a21.61,21.61,0,0,1,1.42-1.94c.6-.76,1.2-1.48,1.83-2.15s1.22-1.37,1.82-2.07a.22.22,0,0,1,.28-.12.57.57,0,0,0,.37,0l-1.95,2.43c-.75,1-1.55,2-2.39,3s-1.64,2-2.39,3.12c-.43.6-.85,1.23-1.26,1.91s-.82,1.34-1.26,2-.75,1.17-1.13,1.74-.78,1.15-1.22,1.74a.72.72,0,0,0-.12.53,2.11,2.11,0,0,1,0,.69,3.54,3.54,0,0,0,.73-.32l1.46-1.63,1.46-1.62.08-.16a18.76,18.76,0,0,1,2.92-4.46,34.81,34.81,0,0,0,3.24-4.3,22.94,22.94,0,0,1,2-2.67c.76-.87,1.51-1.76,2.27-2.68a1.66,1.66,0,0,1,.49-.32c-.16.37-.31.75-.45,1.13s-.28.78-.44,1.22a2.08,2.08,0,0,0,.64-.61,1.46,1.46,0,0,1,.65-.53,1.67,1.67,0,0,0,.69-.81,2.19,2.19,0,0,0,0-1c.22-.22.41-.42.57-.61s.35-.39.57-.61a2.31,2.31,0,0,0,1.17-.61,6.28,6.28,0,0,0,.86-1.09,11.44,11.44,0,0,1,1.25-1.66,20.81,20.81,0,0,0,1.34-1.67,5,5,0,0,1,1.42-1.46,14,14,0,0,0,1.66-1.29c.54-.54,1-1.07,1.5-1.58s1-1,1.5-1.59a6,6,0,0,1,.53-.6,7.72,7.72,0,0,0,.53-.61.3.3,0,0,0,0-.29A2.29,2.29,0,0,1,1553.65,533.49Zm-38.43,18.25c-.11.59-.23,1.18-.37,1.78s-.25,1.19-.36,1.78-.2,1.07-.29,1.58-.17,1-.28,1.59c-.27,1.35-.55,2.7-.85,4s-.58,2.7-.85,4.06c-.16.75-.31,1.47-.45,2.14s-.26,1.4-.36,2.15-.22,1.72-.33,2.56-.21,1.69-.32,2.55l.48.57a8.47,8.47,0,0,1,.33-.85,3.44,3.44,0,0,0,.24-.77,1.35,1.35,0,0,0,.16-.61,3.26,3.26,0,0,1,.09-.69,9.22,9.22,0,0,1,.4-1.26,1.33,1.33,0,0,0-.16-1.25c-.16-.27-.16-.49,0-.65a2,2,0,0,0,.93-1.58,6.14,6.14,0,0,1,.37-1.83,2.16,2.16,0,0,0,.12-.89,2.88,2.88,0,0,1,0-.89,1.78,1.78,0,0,0,.08-.53.94.94,0,0,1,.16-.53c.16-.37.34-.74.53-1.09a1.27,1.27,0,0,0-.12-1.26,1.18,1.18,0,0,1-.21-.81,7.3,7.3,0,0,1,.13-.89c.1-.54.21-1,.32-1.54s.22-1,.32-1.46a8.1,8.1,0,0,0,.17-1.62,2.69,2.69,0,0,1,.4-1.46,1.35,1.35,0,0,0,.16-1.26,2,2,0,0,1-.16-1.09Zm21.65-2.76a3.18,3.18,0,0,0,.2-.93,2.08,2.08,0,0,1,.29-.94c.43-.59.86-1.14,1.29-1.66s.89-1,1.38-1.58a12.34,12.34,0,0,1,2.51-2.19q-1.38,1.86-2.83,3.65C1538.73,546.52,1537.79,547.74,1536.87,549Zm5.19-2.76c-.22.22-.41.42-.57.61s-.35.39-.57.61a10,10,0,0,0-1.13.57,9.27,9.27,0,0,0,.44-.82,4.67,4.67,0,0,1,.53-.81c1.35-1.67,2.78-3.35,4.3-5a6.26,6.26,0,0,0,.57-.73l.24.24c-.32.43-.65.86-1,1.3s-.68.86-1.06,1.29l-1.09,1.26A3.15,3.15,0,0,0,1542.06,546.22Zm5.92-10.7c.75-.65,1.48-1.31,2.19-2s1.4-1.34,2.11-2a.46.46,0,0,0,.32.33c-.76.65-1.47,1.3-2.15,1.94s-1.39,1.3-2.15,2A1.12,1.12,0,0,0,1548,535.52Zm5.67-2c-.64.6-1.31,1.2-2,1.82s-1.34,1.26-2,1.91l-.53.37a3.69,3.69,0,0,1-.69.36c.27-.32.53-.66.78-1a6.55,6.55,0,0,1,.77-.94c.48-.43,1-.83,1.5-1.21s1-.79,1.5-1.22a.72.72,0,0,1,.32-.08Zm9-9.49-4.83,3.69c-1.59,1.22-3.18,2.45-4.74,3.69a1.4,1.4,0,0,0-.25-.32q2.36-1.87,4.75-3.69l4.82-3.69a.42.42,0,0,1,.12.16A.48.48,0,0,0,1562.66,524Zm0,2.11q-.57.5-1.14.93l-1.22.94-.24-.25,2.43-1.94A.46.46,0,0,1,1562.66,526.11Zm.56-2.84,1.1-.61c.35-.18.71-.36,1.09-.52,0,.05,0,.08,0,.08s0,0,0,.08c-.32.27-.65.51-1,.73l-1,.65A.91.91,0,0,1,1563.22,523.27Zm2.76.25,1.74-1.1,1.75-1.09a.83.83,0,0,1,.12.16.83.83,0,0,0,.12.16l-1.74,1.1-1.75,1.09a.83.83,0,0,1-.12-.16A.61.61,0,0,0,1566,523.52Zm10.87-6.9q-1.87.9-3.69,1.71c-1.22.54-2.45,1.11-3.69,1.7a.87.87,0,0,0,.08-.37.43.43,0,0,1,.08-.28l7-3.16a.6.6,0,0,1,.09.24A.19.19,0,0,0,1576.85,516.62Z" transform="translate(-208.8 -346.5)"/></svg>