<?xml version="1.0" encoding="utf-8"?>
<!-- Generator: Adobe Illustrator 22.0.1, SVG Export Plug-In . SVG Version: 6.00 Build 0)  -->
<svg version="1.1" id="Ebene_1" xmlns="http://www.w3.org/2000/svg" xmlns:xlink="http://www.w3.org/1999/xlink" x="0px" y="0px"
	 viewBox="0 0 1152.7 626.2" style="enable-background:new 0 0 1152.7 626.2;" xml:space="preserve">
<style type="text/css">
	.st0{fill:none;stroke:#000000;stroke-miterlimit:10;}
</style>
<title>Element 6</title>
<g>
	<g>
		<path d="M258.6,285.2c-1.9,0.9-4.1,1-6,0.2c-1.9-0.7-3.6-2.1-4.9-3.6c-2.7-3.1-4.7-6.8-6.3-10.5c-0.8-1.9-1.5-3.8-2.1-5.8
			l-0.2-0.7c0-0.1-0.1-0.3-0.1-0.4l0-0.1c-0.1,0,0.2-0.2,0.1-0.2c0,0,0.1-0.1,0.1-0.1c0.3-0.4,0.6-0.8,0.9-1.3
			c0.5-0.9,1-1.8,1.5-2.7c2-3.6,3.7-7.3,5.4-11c6.6-15,11.2-30.9,13.2-47.2c1-8.1,1.2-16.4,0.6-24.5c-0.7-8.2-2.2-16.3-4.7-24
			c-1.3-3.9-2.8-7.7-4.8-11.2c-1-1.8-2.2-3.4-3.6-4.9c-0.7-0.7-1.5-1.4-2.3-1.9c-0.8-0.5-1.8-0.9-2.7-1.1c-1.9-0.4-3.9,0.3-5.5,1.5
			c-1.5,1.3-2.8,2.9-3.9,4.6c-2.3,3.4-4.3,7-6.7,10.3c-2.4,3.4-5.1,6.5-8.5,8.9c-3.4,2.4-7.4,3.9-11.6,4.2c-2.1,0.2-4.2,0-6.2-0.3
			c-1-0.2-2-0.4-3-0.7l-1.5-0.4l-1.5-0.5c-3.9-1.4-7.5-3.4-11-5.6c-7-4.3-13.6-9.2-20.8-13.2c-3.6-2-7.3-3.7-11.3-4.6
			c-3.9-1-8.1-1-12.1,0c-4,1-7.6,3.2-10.6,5.9c-3,2.8-5.5,6.1-7.6,9.6c-4.2,7.1-6.8,14.9-9.3,22.7c-0.6,1.9-1.2,3.9-2.1,5.8
			c-0.1,0.2-0.3,0.5-0.4,0.7c-0.1,0.1-0.2,0.2-0.3,0.3c-0.1,0.1-0.3,0.1-0.5,0c-0.3-0.2-0.4-0.4-0.5-0.6c-0.1-0.2-0.2-0.5-0.3-0.7
			c-0.3-1-0.5-2-0.7-3c-0.7-4.1-0.9-8.2-0.9-12.3c-0.1-8.2,0.5-16.4,1.8-24.5l0.3,0.1c-4.5,7.7-8.4,15.7-11.3,24.1
			c-0.8,2.1-1.3,4.2-2,6.4l-1,3.2l-0.8,3.2c-0.5,2.2-1.1,4.3-1.6,6.5l-1.2,6.6c-1.5,8.8-2.5,17.6-2.7,26.5l-0.1,3.3l0,3.3
			c0,2.2,0,4.4,0,6.7l0.3,6.7c0,1.1,0.1,2.2,0.2,3.3l0.3,3.3c0.8,8.9,1.9,17.7,3.8,26.4l0.3,1.6l0.4,1.6l0.8,3.2
			c0.5,2.2,1.1,4.3,1.7,6.5c1.2,4.3,2.4,8.6,3.9,12.8c1.4,4.2,3.1,8.3,5,12.4c1.9,4,4.1,7.9,6.6,11.5l1.9,2.7
			c0.7,0.9,1.4,1.7,2.1,2.6l1.1,1.3l1.2,1.2l2.3,2.4l2.5,2.2c0.4,0.4,0.8,0.7,1.3,1.1l1.3,1l2.7,2l2.8,1.7c7.6,4.5,16.3,7.2,25,8.4
			c8.8,1.1,17.8,0.8,26.5-0.7c8.7-1.6,17.3-4.3,25.1-8.6c3.9-2.1,7.6-4.7,10.8-7.6c1.6-1.5,3.1-3.1,4.5-4.9c0.6-0.9,1.3-1.8,1.9-2.7
			l0.8-1.4l0.7-1.5c1.9-4,2.5-8.4,3-12.8c0.2-2.2,0.4-4.4,0.8-6.6c0.4-2.2,1-4.4,2.2-6.4c1.2-1.9,3.1-3.5,5.2-4.3
			c2.1-0.9,4.5-1,6.7-0.6c4.5,0.6,8.6,2.4,13.1,2.5c4.4,0.1,8.8-1.9,11.6-5.2c1.4-1.7,2.7-3.5,3.6-5.5c0.5-1,0.9-2,1.4-3
			c0.4-1,0.8-2.1,1.2-3.1c1.4-4.2,2.5-8.5,3.5-12.9c1-4.3,1.9-8.7,2.9-13.1l0.2,0.1c-2.2,2.8-3.9,5.9-5.4,9.1
			c-1.5,3.2-2.9,6.5-4.4,9.7c-1.4,3.2-2.9,6.5-4.7,9.5c-0.9,1.5-1.9,3-3.1,4.4C261.6,283.3,260.2,284.5,258.6,285.2z M258.6,285.2
			c1.6-0.8,3-1.9,4.1-3.3c1.1-1.3,2.1-2.8,3-4.4c1.8-3.1,3.3-6.3,4.7-9.5c1.4-3.2,2.8-6.5,4.3-9.7c1.5-3.2,3.2-6.4,5.4-9.2l0.3-0.4
			l-0.1,0.5c-0.9,4.4-1.8,8.7-2.8,13.1c-1,4.3-2.1,8.7-3.5,12.9c-0.4,1.1-0.8,2.1-1.2,3.1c-0.5,1-0.8,2.1-1.4,3.1
			c-1,2-2.2,3.9-3.7,5.6c-2.9,3.5-7.4,5.5-11.9,5.4c-4.5,0-8.8-1.8-13.1-2.4c-2.2-0.3-4.4-0.2-6.4,0.6c-2,0.8-3.8,2.3-4.9,4.1
			c-1.2,1.9-1.7,4-2.1,6.2c-0.4,2.2-0.6,4.4-0.8,6.6c-0.5,4.4-1.1,8.9-3,13.1l-0.7,1.5l-0.9,1.5c-0.5,1-1.3,1.9-1.9,2.8
			c-1.4,1.8-2.9,3.4-4.6,5c-3.3,3-7,5.6-10.9,7.8c-7.9,4.3-16.5,7.1-25.3,8.7c-8.8,1.6-17.8,1.9-26.7,0.7
			c-8.9-1.2-17.6-3.9-25.3-8.5l-2.9-1.7l-2.7-2l-1.4-1c-0.4-0.4-0.8-0.7-1.3-1.1l-2.5-2.2l-2.3-2.4l-1.2-1.2l-1.1-1.3
			c-0.7-0.9-1.4-1.7-2.1-2.6l-2-2.7c-2.5-3.7-4.8-7.6-6.6-11.6c-1.9-4-3.6-8.2-5-12.4c-1.4-4.2-2.7-8.5-3.9-12.8
			c-0.6-2.2-1.2-4.3-1.7-6.5l-0.8-3.3l-0.4-1.6l-0.3-1.6c-1.9-8.7-3-17.6-3.8-26.5l-0.3-3.3c-0.1-1.1-0.2-2.2-0.2-3.3l-0.2-6.7
			c-0.1-2.2,0-4.5,0-6.7l0-3.3l0.2-3.3c0.3-8.9,1.3-17.8,2.8-26.6l1.3-6.6c0.5-2.2,1.1-4.3,1.6-6.5l0.8-3.2l1-3.2
			c0.7-2.1,1.3-4.3,2-6.4c3-8.4,6.9-16.5,11.4-24.2l0.4-0.7l-0.1,0.8c-1.3,8.1-1.9,16.3-1.8,24.5c0.1,4.1,0.3,8.2,0.9,12.2
			c0.2,1,0.4,2,0.7,3c0.2,0.5,0.4,1,0.7,1.2c0.2,0.1,0.4,0,0.5-0.2c0.1-0.2,0.3-0.4,0.4-0.6c0.9-1.8,1.4-3.8,2-5.8
			c2.4-7.8,5.1-15.7,9.2-22.8c2.1-3.5,4.6-6.9,7.6-9.7c3-2.8,6.7-5,10.7-6c4-1.1,8.3-1,12.3,0c4,1,7.8,2.7,11.4,4.6
			c7.2,4,13.8,8.9,20.8,13.1c3.5,2.1,7.1,4.1,10.9,5.5l1.4,0.5l1.5,0.4c1,0.3,2,0.5,3,0.7c2,0.3,4,0.5,6.1,0.3c4-0.3,8-1.8,11.3-4.1
			c3.3-2.3,6-5.5,8.4-8.8c2.4-3.3,4.3-6.9,6.6-10.4c1.2-1.7,2.4-3.4,4-4.7c0.8-0.7,1.8-1.2,2.8-1.5c1-0.3,2.1-0.4,3.2-0.1
			c1.1,0.2,2.1,0.6,3,1.2c0.9,0.6,1.7,1.3,2.4,2c1.4,1.5,2.6,3.2,3.7,5c2,3.6,3.5,7.5,4.8,11.4c2.5,7.9,4,16,4.6,24.2
			c0.6,8.2,0.3,16.5-0.6,24.6c-2,16.3-6.7,32.2-13.3,47.3c-1.7,3.8-3.5,7.5-5.4,11c-0.5,0.9-1,1.8-1.6,2.7c-0.3,0.4-0.5,0.9-0.9,1.3
			c-0.1,0.1-0.1,0.1-0.2,0.2c0-0.1,0,0,0,0.1c0,0.1,0,0.2,0.1,0.4l0.2,0.7c0.6,2,1.3,3.9,2.1,5.8c1.6,3.8,3.5,7.4,6.2,10.5
			c1.4,1.5,3,2.9,4.9,3.6C254.5,286.1,256.7,286,258.6,285.2z"/>
		<path d="M95.1,229.7c-1.4-2.2-2-4.7-2.1-7.3c-0.1-2.6,0.3-5.2,1.1-7.6c1.6-4.9,4.6-9.4,8.6-12.6c2-1.6,4.3-2.9,6.8-3.6
			c2.5-0.7,5.1-0.9,7.7-0.5c2.5,0.4,5,1.2,7.2,2.6c1.1,0.7,2.1,1.5,3,2.4c0.9,0.9,1.6,2,2.3,3.1c1.3,2.3,1.9,4.8,2.1,7.4
			c0.2,2.6,0,5.2-0.7,7.7c-0.7,2.5-1.7,4.9-3.1,7.1c-1.4,2.2-3.2,4.1-5.3,5.7c-4.2,3.2-9.7,4.2-14.8,3.4c-2.5-0.4-5-1.2-7.3-2.5
			C98.4,233.6,96.4,231.9,95.1,229.7z M95.1,229.7c1.4,2.1,3.4,3.8,5.6,5c2.2,1.2,4.7,1.9,7.2,2.2c5,0.6,10.3-0.5,14.3-3.5
			c2-1.5,3.7-3.4,5.1-5.5c1.3-2.1,2.4-4.4,3-6.9c0.7-2.4,0.9-5,0.8-7.5c-0.2-2.5-0.7-5-1.9-7.2c-2.3-4.5-7.2-7.4-12.2-8
			c-2.5-0.3-5.1-0.1-7.5,0.7c-2.4,0.8-4.6,2.1-6.5,3.7c-3.9,3.2-6.8,7.6-8.5,12.3c-0.8,2.4-1.4,4.9-1.3,7.4
			C93.1,225,93.8,227.5,95.1,229.7z"/>
		<path d="M123.6,300.2c-3.1-0.9-5.7-2.9-7.7-5.3c-2-2.5-3.3-5.5-3.8-8.7c-0.1-0.8-0.1-1.6,0-2.4c0.1-0.4,0.2-0.8,0.4-1.2
			c0.1-0.2,0.2-0.4,0.4-0.5c0.2-0.1,0.4-0.3,0.6-0.3c0.9-0.2,1.7,0.1,2.4,0.4c0.7,0.3,1.5,0.6,2.2,1c2.8,1.3,5.8,2.5,8.8,3.4
			c3,0.9,6.1,1.7,9.1,2.3c1.5,0.3,3.1,0.5,4.7,1.1c0.4,0.2,0.8,0.4,1.1,0.9c0.3,0.5,0.2,1,0.1,1.4c-0.2,0.9-0.7,1.6-1.2,2.2
			c-2.1,2.5-4.9,4.3-7.8,5.4C130,300.8,126.7,301.1,123.6,300.2z M123.6,300.2c3.1,0.8,6.3,0.3,9.2-0.9c2.8-1.2,5.5-3,7.4-5.4
			c0.9-1.1,1.7-2.9,0.2-3.3c-1.4-0.5-3-0.7-4.5-1.1c-3.1-0.7-6.1-1.6-9.1-2.6c-3-1-5.9-2.3-8.8-3.6c-0.7-0.3-1.4-0.6-2.2-0.9
			c-0.7-0.2-1.5-0.5-2.2-0.3c-0.7,0.2-0.9,1-1,1.7c-0.1,0.7,0,1.5,0.1,2.3c0.5,3,1.8,6,3.5,8.5c0.9,1.3,1.9,2.4,3.2,3.4
			C120.7,299,122.1,299.7,123.6,300.2z"/>
		<path d="M183.6,253.7c-3.6,0.2-7.1,0.1-10.7-0.4c-3.5-0.5-7.1-1.3-10.3-2.8c-3.3-1.5-6.2-3.8-8.2-6.9c-2-3-3-6.7-3-10.3
			c0-3.6,0.9-7.2,2.4-10.5c1.5-3.3,3.7-6.2,6.4-8.6c1.4-1.2,2.8-2.3,4.3-3.2c0.7-0.5,1.6-0.9,2.4-1.3c0.8-0.3,1.6-0.8,2.5-1
			c1.7-0.6,3.5-1,5.2-1.1c1.8-0.2,3.6,0,5.4,0.6c1.7,0.5,3.4,1.5,4.5,2.9c1.2,1.4,2,3,2.8,4.6c0.8,1.6,1.5,3.2,2.4,4.8
			c0.9,1.5,1.9,3,3.1,4.3c2.4,2.6,5.2,4.8,8.4,6.3c1.6,0.8,3.2,1.4,4.9,1.8c1.7,0.5,3.4,0.8,5.2,1.2c0.9,0.2,1.8,0.4,2.6,0.9
			c0.4,0.2,0.9,0.5,1.2,0.9c0.3,0.4,0.5,0.9,0.6,1.4c0.1,1-0.3,2-0.7,2.8c-0.5,0.8-1.1,1.5-1.7,2.2c-2.6,2.6-5.7,4.5-8.9,6.1
			c-3.2,1.6-6.6,2.8-10.1,3.7C190.7,253,187.2,253.6,183.6,253.7z M183.6,253.7c7.1-0.3,14.1-2.4,20.4-5.7c3.1-1.7,6.2-3.6,8.6-6.2
			c0.6-0.6,1.1-1.3,1.6-2.1c0.4-0.7,0.7-1.5,0.6-2.3c0-0.8-0.6-1.4-1.3-1.7c-0.7-0.4-1.6-0.6-2.5-0.8c-3.5-0.7-7-1.5-10.3-3.1
			c-3.3-1.6-6.2-3.8-8.6-6.5c-1.2-1.4-2.2-2.9-3.1-4.4c-0.9-1.6-1.6-3.2-2.3-4.9c-0.7-1.6-1.5-3.2-2.6-4.6c-1.1-1.3-2.6-2.3-4.3-2.8
			c-1.7-0.5-3.4-0.7-5.2-0.6c-1.8,0.1-3.5,0.5-5.2,1.1c-3.4,1.1-6.4,3-9.1,5.4c-2.6,2.4-4.8,5.3-6.2,8.5c-1.4,3.3-2.2,6.8-2.1,10.3
			c0,3.5,1,7,2.9,9.9c1.9,3,4.7,5.2,7.9,6.8C169.2,253.2,176.5,254,183.6,253.7z"/>
	</g>
</g>
<g>
	<path d="M116.1,100.7c-0.2-0.8,0-1.7,0.3-2.5c0.3-0.8,0.8-1.5,1.3-2.2c1-1.3,2.3-2.5,3.6-3.6c2.6-2.2,5.4-4,8.3-5.7
		c5.8-3.4,12-6.2,18.2-8.7c12.5-5,25.6-8.6,39-10.6c13.4-1.9,27-2,40.4-0.3c3.4,0.4,6.7,1,10,1.6c3.3,0.7,6.6,1.5,9.9,2.4
		c6.5,1.9,12.9,4.2,18.9,7.3c3,1.6,5.9,3.3,8.5,5.6c1.3,1.1,2.5,2.4,3.3,3.9c0.2,0.4,0.3,0.8,0.5,1.2c0,0.4,0.2,0.9,0.1,1.3
		c-0.1,0.9-0.1,1.7-0.1,2.5c0,1.6,0.4,3.3,1.6,4.5c1.2,1.1,2.9,1.5,4.5,1.6c0.8,0,1.7,0,2.5-0.1c0.4-0.1,0.9,0,1.3,0
		c0.4,0.1,0.9,0.1,1.3,0.2c1.7,0.4,3.2,1.1,4.7,2c2.9,1.7,5.6,3.9,8,6.2c2.5,2.3,4.7,4.8,6.8,7.5c4.2,5.3,7.8,11,10.8,17.1
		c5.9,12.1,9.1,25.7,8.4,39.2c-0.6,13.5-4.7,26.8-11.1,38.7c-3.2,5.9-7,11.6-11.6,16.6c-1.2,1.2-2.4,2.4-3.7,3.4
		c-0.7,0.5-1.4,1-2.2,1.4c-0.4,0.2-0.8,0.3-1.3,0.4c-0.5,0.1-1-0.2-1.3-0.6c-0.6-0.8-0.7-1.6-0.9-2.5c-0.1-0.9-0.2-1.7-0.2-2.6
		c0-1.7,0.1-3.4,0.3-5.1c0.4-3.4,1.1-6.7,2-10c0.9-3.3,2.2-6.4,3.8-9.4c1.6-3,3.7-5.7,5.8-8.3c2.1-2.6,4.5-5.1,5.8-8.1
		c1.4-3,1.7-6.4,1.3-9.7c-0.3-3.3-1.4-6.5-2.6-9.6c-2.6-6.2-6.2-11.9-10.3-17.2c-4.1-5.3-8.6-10.3-13.5-15
		c-4.9-4.6-10.1-8.8-15.8-12.5c-11.3-7.3-24-12.3-37-15.5c-13.1-3.2-26.5-4.7-40-5c-13.5-0.3-27,0.4-40.4,1.6
		c-6.7,0.6-13.4,1.3-20.2,1.7c-3.4,0.2-6.7,0.4-10.1,0.3c-1.7-0.1-3.4-0.2-5-0.5c-0.8-0.2-1.6-0.5-2.4-0.9
		C116.9,102.2,116.3,101.6,116.1,100.7z M116.1,100.7c0.2,0.8,0.8,1.5,1.5,1.9c0.7,0.4,1.5,0.7,2.3,0.9c1.6,0.4,3.3,0.5,5,0.5
		c3.4,0.1,6.7-0.1,10.1-0.4c6.7-0.5,13.4-1.2,20.1-1.8c13.4-1.2,26.9-2.1,40.4-1.8c13.5,0.3,27,1.6,40.2,4.8
		c13.1,3.1,25.9,8.2,37.3,15.6c5.7,3.7,11,7.9,15.9,12.6c4.9,4.7,9.5,9.7,13.6,15.1c4.1,5.4,7.8,11.1,10.4,17.4
		c1.3,3.1,2.3,6.4,2.6,9.8c0.4,3.4,0,6.9-1.4,10.1c-1.4,3.2-3.8,5.7-5.9,8.3c-2.2,2.6-4.2,5.3-5.8,8.2c-3.3,5.9-5,12.5-5.9,19.1
		c-0.2,1.7-0.3,3.3-0.3,5c0,0.8,0,1.7,0.2,2.5c0.1,0.8,0.3,1.6,0.8,2.2c0.4,0.6,1.3,0.4,2,0.1c0.7-0.3,1.4-0.8,2.1-1.3
		c1.3-1,2.5-2.2,3.7-3.4c4.6-4.9,8.4-10.5,11.6-16.4c6.4-11.8,10.5-25,11.1-38.5c0.7-13.5-2.4-27-8.3-39.1
		c-2.9-6.1-6.6-11.8-10.8-17c-2.1-2.6-4.4-5.1-6.8-7.4c-2.4-2.3-5.1-4.4-8-6.1c-1.4-0.8-3-1.5-4.6-1.9c-0.4-0.1-0.8-0.1-1.2-0.2
		c-0.4,0-0.8,0-1.2,0c-0.8,0.1-1.7,0.2-2.6,0.1c-1.7-0.1-3.5-0.4-4.8-1.7c-1.3-1.3-1.7-3.1-1.7-4.8c0-0.9,0.1-1.7,0.1-2.5
		c0-0.4-0.1-0.8-0.1-1.2c-0.1-0.4-0.3-0.8-0.4-1.1c-0.7-1.4-1.9-2.7-3.2-3.8c-2.5-2.2-5.4-3.9-8.4-5.5c-6-3.1-12.3-5.4-18.8-7.2
		c-6.5-1.8-13.1-3.1-19.8-4c-13.3-1.8-26.9-1.7-40.3,0.1c-13.3,1.9-26.4,5.5-39,10.4c-6.3,2.5-12.4,5.3-18.3,8.7
		c-2.9,1.7-5.8,3.5-8.4,5.7c-1.3,1.1-2.5,2.2-3.6,3.5c-0.5,0.7-1,1.4-1.3,2.1C116.1,99,116,99.9,116.1,100.7z"/>
</g>
<circle class="st0" cx="207.5" cy="207.5" r="207"/>
<polygon points="289.7,153.7 289.9,196.5 290,239.2 290.2,324.7 290,410.2 289.9,453 289.7,495.7 289.4,453 289.4,410.2 
	289.2,324.7 289.4,239.2 289.4,196.5 "/>
<polygon points="460.7,324.7 417.9,325 375.2,325.1 289.7,325.2 204.2,325.1 161.4,325 118.7,324.7 161.4,324.5 204.2,324.4 
	289.7,324.2 375.2,324.4 417.9,324.5 "/>
<g>
	<g>
		<path d="M967.3,436.7c-1,0-1.7-0.7-2.1-1.5c-0.5-0.8-0.8-1.6-1.1-2.4c-0.6-1.7-1-3.4-1.4-5.2c-0.7-3.5-1.3-7.1-1.8-10.6
			c-1-7.1-1.8-14.2-2.8-21.4c-1-7.1-2.1-14.2-3.8-21.2c-0.8-3.5-1.8-7-2.9-10.3c-1.2-3.4-2.6-6.7-4.5-9.7c-1.9-3-4.5-5.8-7.8-7
			c-1.7-0.6-3.5-0.9-5.2-0.5c-1.8,0.3-3.3,1.2-4.9,2.2c-3,1.9-6.1,3.9-9.5,5.1c-3.4,1.3-6.9,2.1-10.5,2.4c-3.6,0.3-7.2,0.1-10.7-0.7
			c-3.5-0.8-6.9-2-10.2-3.6c-6.5-3-12.6-6.9-19.3-9.6c-6.6-2.7-13.9-3.9-21-2.9c-7.1,0.9-13.9,3.4-20.2,6.9
			c-6.2,3.5-11.9,8.1-16.8,13.2c-4.9,5.2-9.2,11-12.4,17.4c-3.2,6.4-5.1,13.4-5.7,20.5c-0.6,7.1,0,14.3,1.4,21.4
			c1.4,7,3.4,13.9,5.7,20.7c1.1,3.4,2.3,6.8,3.3,10.3c0.5,1.7,0.9,3.5,1.2,5.3c0.1,0.9,0.1,1.8,0,2.8c-0.1,0.9-0.6,1.9-1.4,2.5
			c-0.8,0.6-1.8,0.8-2.8,0.7c-0.9,0-1.8-0.3-2.7-0.5c-1.7-0.6-3.4-1.4-4.9-2.4c-3.1-1.9-5.9-4.2-8.6-6.6c-5.3-4.9-10-10.4-14.1-16.3
			c-2-3-4-6-5.7-9.2c-0.9-1.6-1.6-3.2-2.4-4.9l-1.1-2.5l-1-2.5c-2.6-6.7-4.5-13.7-5.5-20.8c-2-14.2-1.3-28.9,2.6-42.8
			c1.9-6.9,4.5-13.7,8-20c0.8-1.6,1.8-3.1,2.7-4.7c0.9-1.5,1.9-3.1,2.9-4.5c2-3,4.3-5.8,6.7-8.5c9.6-10.8,21.8-19,35.1-24.6
			c6.6-2.8,13.5-5,20.5-6.7c7-1.7,14.1-2.8,21.2-3.7c14.3-1.7,28.7-1.8,43-0.5c7.2,0.7,14.3,1.8,21.3,3.4c7,1.6,13.9,3.8,20.5,6.5
			l-0.1,0.2c-11-9.1-23.6-16.5-37.1-21.2c-13.5-4.7-28-6.6-42.3-5.8c-14.3,0.8-28.4,4.2-41.7,9.7c-13.2,5.5-25.6,13.2-36.2,22.7
			c-10.6,9.6-19.7,21.1-25.7,34.1c-3,6.5-5.3,13.3-6.8,20.3c-1.5,7-2.3,14.1-2.5,21.3c-0.4,14.3,1.7,28.6,5.4,42.5
			c3.7,13.8,9,27.3,15.9,39.8c1.7,3.1,3.6,6.2,5.5,9.2l6,8.9c4,6,7.5,12.3,10.3,18.9c1.4,3.3,2.6,6.7,3.6,10.2l0.8,2.6l0.6,2.6
			c0.5,1.7,0.8,3.5,1.1,5.3c1.4,7.1,1.5,14.3,1.7,21.5c0.2,3.6,0.4,7.1,1.4,10.6c0.9,3.4,2.5,6.6,4.6,9.5
			c4.2,5.8,9.9,10.3,16.1,13.7c3.1,1.7,6.4,3.1,9.8,4.2c3.4,1.1,6.9,1.8,10.4,2.2c1.8,0.2,3.6,0.2,5.3,0.1c1.8-0.1,3.5-0.3,5.3-0.6
			c3.5-0.7,6.8-2,9.9-3.8c6-3.8,10.4-9.8,12.8-16.5c1.3-3.3,2-6.8,2.4-10.4c0.4-3.5,0.3-7.1-0.2-10.6c-0.4-3.5-1.5-7-2.9-10.2
			c-0.7-1.6-1.7-3.1-2.6-4.6c-0.5-0.7-1-1.4-1.7-2.1l-0.9-1l-1-0.9c-2.6-2.4-5.7-4.3-8.9-5.7c-3.3-1.4-6.7-2.3-10.2-3
			c-3.5-0.7-7.1-1.1-10.6-1.5c-3.6-0.4-7.1-0.6-10.7-1.4c-0.9-0.2-1.8-0.5-2.6-0.9c-0.8-0.4-1.7-0.9-2.2-1.7
			c-0.6-0.8-0.7-1.9-0.5-2.8c0.2-1,0.6-1.8,1-2.6c1.9-3.2,4.6-5.7,7.3-8c5.5-4.6,11.6-8.5,17.9-12c6.3-3.5,12.8-6.6,19.4-9.3l0,0.7
			c-4.5-1.4-8.9-3.1-13.1-5.3c-2.1-1.1-4.1-2.3-6-3.7c-1-0.7-1.9-1.5-2.7-2.3c-0.8-0.8-1.6-1.8-2.2-2.9c-0.3-0.6-0.5-1.1-0.6-1.8
			c-0.1-0.6,0-1.3,0.2-1.9c0.4-1.2,1.2-2.2,1.9-3.1c1.6-1.8,3.6-3.1,5.6-4.4c4.1-2.4,8.5-4.2,13-5.6c4.5-1.3,9.2-2.2,13.9-2.5
			c4.7-0.3,9.5,0.1,14,1.6c2.2,0.8,4.4,1.9,6.3,3.3c0.5,0.4,0.9,0.7,1.4,1.1l1.3,1.3c0.8,0.9,1.5,1.9,2.1,2.9
			c2.5,4,3.8,8.8,3.8,13.5l-0.4-0.4c6.7-0.2,13.5,0.6,19.6,3.5c1.5,0.7,3,1.6,4.3,2.6c0.7,0.5,1.3,1.1,1.9,1.6
			c0.7,0.5,1.2,1.2,1.7,1.8c2.2,2.6,3.8,5.6,4.9,8.8c1,3.2,1.7,6.5,2,9.8c0.3,3.3,0.4,6.7,0.3,10c-0.2,6.7-1.2,13.3-2.4,19.9
			l-0.1-0.3c1.5,0.8,2.9,2,4,3.3c0.6,0.7,1.1,1.4,1.5,2.1c0.2,0.4,0.4,0.8,0.5,1.2c0.2,0.4,0.3,0.8,0.4,1.2c0.5,1.7,0.6,3.4,0.5,5.1
			c-0.1,1.7-0.5,3.4-1,5.1c-1.1,3.3-2.8,6.3-5.2,8.8c-1.2,1.2-2.5,2.4-4,3.2c-1.5,0.9-3.1,1.5-4.8,1.8l0.2-0.2
			c-2.5,8.1-5.2,16.1-7.7,24.2c-0.6,2-1.3,4.1-1.5,6.1c-0.2,1.5,1,0.2,1.7-0.4c0.7-0.8,1.4-1.6,2.1-2.4c2.6-3.3,4.9-6.9,7.2-10.5
			c9-14.4,16.7-29.5,23.6-45c6.9-15.5,12.9-31.4,17.8-47.6c4.9-16.2,8.6-32.8,10.7-49.6l0.1,0c-1.6,3.8-3.5,7.5-5.7,10.9
			c-1.2,1.7-2.4,3.3-3.9,4.7C971.2,435.4,969.4,436.6,967.3,436.7z M967.3,436.7c2.1-0.1,3.8-1.4,5.3-2.8c1.5-1.4,2.8-3,3.9-4.7
			c2.3-3.4,4.1-7.1,5.7-10.9l0.2-0.4l0,0.4c-2,16.8-5.7,33.4-10.6,49.7c-4.9,16.2-10.9,32.1-17.7,47.6
			c-6.9,15.5-14.6,30.6-23.6,45.1c-2.3,3.6-4.6,7.1-7.2,10.5c-0.7,0.8-1.3,1.7-2.1,2.4c-0.4,0.4-0.8,0.8-1.2,1.1
			c-0.1,0.1-0.3,0.1-0.4,0.2c-0.2,0.1-0.5,0-0.5-0.2c-0.2-0.3-0.2-0.6-0.1-0.9c0.1-1.1,0.3-2.1,0.6-3.2c0.3-1,0.6-2,0.9-3.1
			c2.5-8.1,5.2-16.1,7.7-24.2l0-0.1l0.1,0c1.6-0.3,3.2-0.9,4.7-1.8c1.4-0.8,2.7-2,3.9-3.2c2.3-2.5,4-5.5,5-8.7
			c0.5-1.6,0.9-3.3,1-4.9c0.1-1.7,0-3.4-0.5-5c-0.1-0.4-0.3-0.8-0.4-1.2c-0.2-0.4-0.3-0.8-0.5-1.1c-0.4-0.7-0.9-1.4-1.4-2
			c-1.1-1.3-2.4-2.3-3.9-3.1l-0.2-0.1l0-0.2c1.2-6.5,2.1-13.1,2.3-19.8c0.1-3.3,0-6.6-0.3-9.9c-0.4-3.3-1-6.6-2-9.7
			c-1.1-3.1-2.6-6.1-4.8-8.6c-0.5-0.6-1.1-1.3-1.7-1.8c-0.6-0.5-1.2-1.1-1.9-1.6c-1.3-1-2.7-1.8-4.2-2.5c-6-2.9-12.7-3.6-19.3-3.4
			l-0.4,0l0-0.4c0.1-4.6-1.2-9.2-3.7-13.1c-2.3-4-6.3-6.8-10.6-8.3c-4.4-1.5-9.1-1.8-13.7-1.6c-4.6,0.3-9.2,1.1-13.7,2.4
			c-4.5,1.3-8.8,3.1-12.8,5.5c-2,1.2-3.9,2.6-5.4,4.2c-0.7,0.9-1.5,1.8-1.8,2.8c-0.1,0.5-0.2,1-0.2,1.6c0.1,0.5,0.2,1.1,0.5,1.5
			c1,2,2.8,3.5,4.7,4.9c1.9,1.4,3.9,2.6,5.9,3.6c4.1,2.1,8.5,3.8,13,5.2l1,0.3l-0.9,0.4c-6.6,2.7-13.1,5.8-19.3,9.3
			c-6.2,3.5-12.3,7.4-17.8,12c-2.7,2.3-5.3,4.8-7.1,7.8c-0.4,0.8-0.8,1.6-0.9,2.4c-0.2,0.8,0,1.7,0.4,2.3c0.4,0.7,1.2,1.2,1.9,1.5
			c0.8,0.4,1.6,0.6,2.5,0.8c3.5,0.8,7,1,10.6,1.4c3.6,0.4,7.1,0.8,10.7,1.5c3.5,0.7,7,1.6,10.4,3.1c3.3,1.4,6.5,3.3,9.1,5.8l1,0.9
			l0.9,1c0.6,0.7,1.1,1.4,1.7,2.1c1,1.5,2,3,2.7,4.7c1.5,3.3,2.5,6.8,3,10.4c0.5,3.6,0.6,7.2,0.2,10.8c-0.4,3.6-1.1,7.2-2.4,10.5
			c-2.4,6.8-6.9,13-13.1,16.9c-3.1,1.9-6.5,3.2-10.1,3.9c-1.8,0.4-3.6,0.5-5.4,0.6c-1.8,0-3.6,0-5.4-0.2c-3.6-0.3-7.2-1.1-10.6-2.2
			c-3.4-1.1-6.8-2.5-9.9-4.3c-6.3-3.5-12.1-8.1-16.4-13.9c-2.1-3-3.8-6.2-4.7-9.7c-1-3.5-1.2-7.1-1.4-10.7
			c-0.2-7.2-0.4-14.3-1.7-21.4c-0.3-1.8-0.6-3.5-1.1-5.2l-0.6-2.6l-0.8-2.6c-0.9-3.4-2.2-6.8-3.6-10.1c-2.7-6.6-6.2-12.9-10.2-18.8
			l-6-8.9c-2-3-3.8-6.1-5.5-9.2c-6.9-12.6-12.1-26.1-15.8-40c-3.6-13.9-5.7-28.2-5.3-42.6c0.2-7.2,1-14.3,2.5-21.4
			c1.6-7,3.9-13.9,6.9-20.4c6.1-13.1,15.1-24.6,25.8-34.1c10.7-9.6,23.1-17.3,36.3-22.8c13.3-5.5,27.4-8.9,41.8-9.7
			c14.3-0.8,28.8,1.1,42.4,5.9c13.6,4.7,26.1,12.1,37.2,21.2l0.7,0.6l-0.8-0.3c-6.7-2.7-13.5-4.9-20.5-6.4c-7-1.5-14.1-2.7-21.2-3.4
			c-14.3-1.3-28.7-1.2-43,0.5c-7.1,0.9-14.2,2-21.2,3.7c-7,1.7-13.8,3.9-20.4,6.7c-13.2,5.6-25.3,13.8-34.9,24.5
			c-2.4,2.7-4.6,5.5-6.7,8.4c-1.1,1.4-2,3-2.9,4.5c-0.9,1.5-1.9,3-2.7,4.6c-3.5,6.3-6,13-8,19.9c-3.9,13.8-4.6,28.4-2.6,42.6
			c1,7.1,2.9,14,5.5,20.7l1,2.5l1.1,2.4c0.8,1.6,1.5,3.3,2.4,4.8c1.7,3.2,3.6,6.2,5.6,9.1c4.1,5.9,8.8,11.3,14.1,16.2
			c2.6,2.4,5.4,4.7,8.5,6.5c1.5,0.9,3.1,1.7,4.8,2.3c0.8,0.2,1.7,0.5,2.5,0.5c0.8,0,1.7-0.1,2.4-0.6c0.7-0.5,1-1.2,1.2-2.1
			c0.1-0.8,0.1-1.7,0-2.6c-0.2-1.8-0.6-3.5-1.1-5.2c-1-3.4-2.2-6.8-3.3-10.2c-2.3-6.8-4.3-13.7-5.7-20.8c-1.3-7.1-2-14.3-1.3-21.5
			c0.6-7.2,2.6-14.3,5.8-20.7c3.3-6.4,7.6-12.3,12.5-17.5c5-5.2,10.7-9.7,16.9-13.3c6.3-3.5,13.2-6.1,20.3-7
			c7.2-1,14.5,0.2,21.2,2.9c6.7,2.7,12.8,6.6,19.3,9.6c3.2,1.5,6.6,2.8,10.1,3.6c3.5,0.8,7.1,1,10.7,0.7c3.6-0.3,7.1-1.1,10.4-2.3
			c3.4-1.2,6.4-3.2,9.4-5.1c1.5-0.9,3.1-1.8,4.9-2.2c1.8-0.3,3.7-0.1,5.3,0.6c3.4,1.3,6,4.1,7.9,7.1c1.9,3.1,3.3,6.4,4.5,9.8
			c1.2,3.4,2.1,6.9,2.9,10.4c1.6,7,2.7,14.1,3.7,21.2c1,7.1,1.8,14.2,2.8,21.4c0.5,3.6,1,7.1,1.7,10.6c0.4,1.8,0.8,3.5,1.4,5.2
			c0.3,0.8,0.6,1.7,1.1,2.4C965.7,436,966.4,436.7,967.3,436.7z"/>
		<path d="M959.8,465.2c-0.8,0.5-1.7,0.8-2.7,0.8c-0.9,0.1-1.9,0-2.8-0.2c-1.9-0.3-3.7-0.9-5.4-1.6c-3.5-1.5-6.7-3.7-9.3-6.5
			c-1.3-1.4-2.4-3-3.1-4.8c-0.8-1.8-1.1-3.7-0.9-5.6c0.2-1.9,1-3.7,2-5.3c1-1.6,2.3-3,3.8-4.2c1.5-1.2,3.2-2.1,5-2.7
			c1.8-0.5,3.9-0.7,5.7,0c1.9,0.7,3.4,2,4.6,3.5c1.2,1.5,2.2,3.2,3,4.9c1.6,3.5,2.5,7.2,2.7,11c0.1,1.9,0.1,3.8-0.2,5.7
			c-0.2,0.9-0.4,1.9-0.8,2.7C961.1,463.9,960.6,464.7,959.8,465.2z M959.8,465.2c0.8-0.5,1.3-1.4,1.6-2.2c0.3-0.9,0.6-1.8,0.7-2.7
			c0.2-1.9,0.2-3.7,0-5.6c-0.5-3.7-1.4-7.3-2.9-10.7c-0.8-1.7-1.7-3.3-2.9-4.7c-1.2-1.4-2.6-2.7-4.3-3.3c-1.7-0.7-3.6-0.6-5.3-0.1
			c-1.8,0.5-3.4,1.3-4.9,2.5c-1.5,1.1-2.8,2.5-3.8,4c-1,1.5-1.8,3.3-1.9,5.2c-0.2,1.8,0.2,3.7,1,5.4c0.8,1.7,1.9,3.2,3.2,4.5
			c2.5,2.7,5.6,4.9,9,6.5c1.7,0.8,3.4,1.5,5.3,1.9C956.1,466,958.2,466.2,959.8,465.2z"/>
	</g>
</g>
<circle class="st0" cx="864.1" cy="418.7" r="207"/>
<polygon points="991.7,154.7 991.9,197.5 992,240.2 992.2,325.7 992,411.2 991.9,454 991.7,496.7 991.4,454 991.3,411.2 
	991.2,325.7 991.3,240.2 991.4,197.5 "/>
<polygon points="1162.7,325.7 1119.9,326 1077.2,326.1 991.7,326.2 906.2,326.1 863.4,326 820.7,325.7 863.4,325.5 906.2,325.4 
	991.7,325.2 1077.2,325.4 1119.9,325.5 "/>
</svg>
