<svg xmlns="http://www.w3.org/2000/svg" viewBox="0 0 1019.08 1634.77"><title>Element 17</title><g id="Ebene_2" data-name="Ebene 2"><g id="Ebene_1-2" data-name="Ebene 1"><path d="M896.45,1108.23l64.17-10.73c5.33-1,10.75-1.57,15.87-3.37a57.81,57.81,0,0,0,14.49-7.19,55.81,55.81,0,0,0,19.86-25.08,56.56,56.56,0,0,0,3.59-15.76l.18-4.06,0-4.06,0-8.14.14-32.53.29-65.06L1016.26,672l1.12-260.25.54-130.12.27-65.07.14-32.53q.09-8.13-.33-16.23c-.22-2.7-.39-5.4-.65-8.09l-1-8.05A175.7,175.7,0,0,0,994.8,90.82a179.13,179.13,0,0,0-41.89-49.11,181.36,181.36,0,0,0-56.57-31.09,183.21,183.21,0,0,0-31.51-7.54l-8.05-1-8.09-.61c-5.4-.25-10.8-.35-16.23-.32L572.21,1.2,312,1.26l-130.12,0a184.88,184.88,0,0,0-63.5,11.29A179.88,179.88,0,0,0,22.52,95.66,172.14,172.14,0,0,0,3,157.07c-.15,1.34-.38,2.67-.47,4l-.32,4-.31,4-.1,4.05c-.22,5.39-.08,10.83-.08,16.24L1.92,222l.31,65.06L3.49,547.29,4.77,807.54,5.4,937.66l.32,65.06.16,32.54c0,2.7,0,5.44.1,8.1.08,1.33.08,2.67.22,4l.54,4a55.7,55.7,0,0,0,5.1,15.08c.66,1.16,1.22,2.38,1.94,3.5l2.19,3.34,2.47,3.14a14.45,14.45,0,0,0,1.32,1.5l1.36,1.46a57.06,57.06,0,0,0,12.6,9.75,56.43,56.43,0,0,0,14.89,5.66c1.31.26,2.59.59,3.93.8l4,.67,8,1.34,32.08,5.35,16,2.68,8,1.34c1.35.25,2.63.37,4.11.78a10.79,10.79,0,0,1,3.92,2.09,10.27,10.27,0,0,1,2.66,3.6,11.05,11.05,0,0,1,0,8.69,10.14,10.14,0,0,1-6.54,5.75,41.14,41.14,0,0,1-4.11.8l-8,1.34-32.09,5.36-16,2.68-8,1.34-4,.67c-1.35.21-2.62.54-3.93.8a55.6,55.6,0,0,0-14.89,5.65,56.65,56.65,0,0,0-12.6,9.71c-.89,1-1.87,1.91-2.69,3l-2.47,3.14-2.18,3.34a15.56,15.56,0,0,0-1,1.73l-.95,1.76a55.19,55.19,0,0,0-5.11,15.05l-.55,4c-.15,1.32-.14,2.66-.22,4-.13,2.66-.15,5.41-.23,8.11l-.4,16.26-1.59,65-1.58,65L2,1354.7l-.05,2,.09,2,.17,4c.15,1.33.34,2.65.51,4l.26,2c.11.66.29,1.3.42,2l.87,3.91c.37,1.28.8,2.55,1.19,3.83l.6,1.91c.24.62.51,1.24.76,1.86l1.52,3.7,1.83,3.57c.31.59.61,1.19.93,1.78l1.06,1.7c.72,1.13,1.4,2.28,2.14,3.39l2.41,3.21c.41.52.77,1.09,1.22,1.58l1.33,1.5c.9,1,1.75,2,2.69,3a71.46,71.46,0,0,0,26.77,17.18c1.27.43,2.51,1,3.8,1.3l3.88,1c1.28.36,2.6.65,3.93.93l4,.87,15.89,3.47,63.57,13.89L270.92,1472l63.56,13.9,7.95,1.74c2.65.59,5.29,1.14,7.95,1.81a102.63,102.63,0,0,1,15.55,5.24,100,100,0,0,1,27.51,17.65,99,99,0,0,1,20.3,25.62,97,97,0,0,1,10.75,30.85,98.35,98.35,0,0,1,1.35,16.34v16.26l0,32.53-.84-.83,169.79.12-.72.71,0-28.63V1591c0-4.75-.06-9.57.37-14.36a97.69,97.69,0,0,1,6.7-27.93,98.7,98.7,0,0,1,14.57-24.76,99.45,99.45,0,0,1,46.84-32.16,132.72,132.72,0,0,1,13.92-3.56l14-3,28-6.09,223.83-48.69,14-3,3.5-.76c1.17-.25,2.33-.5,3.48-.82a65.08,65.08,0,0,0,6.83-2,71.49,71.49,0,0,0,41.54-36.84,14.86,14.86,0,0,0,.74-1.62l.68-1.65c.44-1.1.93-2.18,1.33-3.3l1.08-3.4.53-1.7c.19-.57.28-1.16.42-1.73a60,60,0,0,0,1.34-7l.47-3.54.16-3.56c.17-2.37.06-4.76,0-7.14l-.17-7.16-.35-14.31-.68-28.63-1.37-57.25-.69-28.62-.34-14.32c-.14-4.77-.14-9.55-.54-14.28l-.49-3.53c-.18-1.18-.51-2.33-.76-3.49l-.4-1.74-.55-1.69c-.39-1.13-.7-2.28-1.16-3.38a57.38,57.38,0,0,0-6.84-12.48,59.49,59.49,0,0,0-9.81-10.31,55.76,55.76,0,0,0-25.73-11.67L954.37,1137l-28.24-4.74-28.24-4.73a18.75,18.75,0,0,1-3.51-.8,9.32,9.32,0,0,1-3.07-1.87,9.57,9.57,0,0,1-3-6.39,9.91,9.91,0,0,1,2-6.78A9.81,9.81,0,0,1,896.45,1108.23Zm0,.2a9.57,9.57,0,0,0-6,3.43,9.7,9.7,0,0,0-2,6.64,9.11,9.11,0,0,0,6,8.06,17.63,17.63,0,0,0,3.47.78l28.24,4.71,28.24,4.71,14.12,2.37a61.78,61.78,0,0,1,13.69,4.2,59.46,59.46,0,0,1,12.19,7.52,55.44,55.44,0,0,1,16.78,22.91c.46,1.1.77,2.26,1.16,3.39l.56,1.71.41,1.75c.25,1.17.58,2.32.76,3.5l.49,3.56c.42,4.77.42,9.55.56,14.32l.36,14.31.71,28.63,1.42,57.25.71,28.62.36,14.32.18,7.15a71.45,71.45,0,0,1,0,7.17l-.15,3.59-.47,3.56a60.41,60.41,0,0,1-1.34,7.05c-.14.59-.23,1.18-.42,1.75l-.53,1.71-1.08,3.43c-.4,1.13-.89,2.22-1.34,3.34l-.68,1.66a13.38,13.38,0,0,1-.75,1.63,72,72,0,0,1-41.82,37.23,65.76,65.76,0,0,1-6.9,2c-1.15.32-2.32.57-3.48.82l-3.5.77-14,3.07-223.76,49.08-28,6.13-14,3.07a128.63,128.63,0,0,0-13.8,3.55,97.57,97.57,0,0,0-60.56,56.27,96.22,96.22,0,0,0-6.57,27.55c-.42,4.72-.33,9.47-.34,14.25v14.32l0,28.63v.72h-.72l-169.79.12h-.83v-.84l0-32.53v-16.26a96.93,96.93,0,0,0-1.34-16.05,95.61,95.61,0,0,0-10.6-30.27,97.63,97.63,0,0,0-47-42.38,98.64,98.64,0,0,0-15.25-5.12c-2.6-.65-5.26-1.21-7.91-1.79l-7.94-1.73-63.57-13.86-127.13-27.77-63.56-13.89-15.89-3.47-4-.87c-1.32-.28-2.64-.57-4-.94l-4-1c-1.32-.37-2.59-.9-3.9-1.34A73.65,73.65,0,0,1,20.57,1407c-1-1-1.84-2-2.77-3.06l-1.36-1.54c-.46-.51-.84-1.09-1.26-1.63l-2.47-3.3c-.77-1.14-1.47-2.33-2.21-3.49l-1.09-1.74c-.33-.61-.63-1.22-.95-1.83l-1.89-3.67L5,1382.89c-.25-.64-.53-1.27-.77-1.91l-.62-2c-.41-1.31-.84-2.62-1.22-3.94l-.9-4c-.14-.67-.31-1.33-.43-2l-.27-2c-.17-1.36-.37-2.72-.52-4.09l-.18-4.12L0,1356.7l.05-2,.2-8.13,1.59-65,1.59-65,.39-16.26c.08-2.72.11-5.39.23-8.15.09-1.37.08-2.75.24-4.12l.56-4.1a57.45,57.45,0,0,1,5.31-15.62l1-1.83c.33-.6.64-1.22,1-1.79l2.27-3.46,2.56-3.25c.85-1.09,1.86-2,2.78-3.07a58.93,58.93,0,0,1,13.07-10.06,57.32,57.32,0,0,1,15.41-5.85c1.35-.27,2.71-.62,4-.82l4-.67,8-1.34,16-2.68,32.08-5.37,8-1.34a38.18,38.18,0,0,0,3.87-.73,8.84,8.84,0,0,0,3.18-1.72,8.64,8.64,0,0,0,2.12-2.92,9.23,9.23,0,0,0,.71-3.56,8.56,8.56,0,0,0-2.88-6.46,8.82,8.82,0,0,0-3.2-1.7c-1.13-.32-2.56-.49-3.87-.73l-8-1.34-16-2.69-32.08-5.37-8-1.35-4-.67c-1.34-.21-2.7-.55-4-.82a58,58,0,0,1-15.4-5.87,58.54,58.54,0,0,1-13-10.09l-1.41-1.51a16.86,16.86,0,0,1-1.37-1.55l-2.55-3.26-2.26-3.46c-.75-1.16-1.33-2.41-2-3.61a57.82,57.82,0,0,1-5.27-15.62l-.56-4.1c-.14-1.37-.15-2.75-.23-4.13-.12-2.75,0-5.43-.09-8.15l-.14-32.53-.28-65.06L3,807.55,1.9,547.3.76,287.05.47,222,.33,189.46c0-5.43-.13-10.84.09-16.29l.11-4.08L.84,165,1.16,161c.09-1.36.33-2.7.48-4A173.2,173.2,0,0,1,21.31,95a181.12,181.12,0,0,1,96.58-83.67A186.22,186.22,0,0,1,181.84,0L312,0,572.21.09,832.46.15c5.42,0,10.86.08,16.29.34l8.13.62,8.09,1a185.18,185.18,0,0,1,31.67,7.62A182.11,182.11,0,0,1,953.46,41a180.13,180.13,0,0,1,42,49.37,176.48,176.48,0,0,1,21.55,61.15l1,8.08c.26,2.7.43,5.42.65,8.12.27,5.43.38,10.87.31,16.28l-.16,32.53-.33,65.07-.66,130.12L1016.63,672l-1.24,260.24-.31,65.06-.16,32.54,0,8.13,0,4.06-.19,4.08a54.88,54.88,0,0,1-23.56,41,58.43,58.43,0,0,1-14.55,7.21c-5.14,1.8-10.58,2.42-15.9,3.36Z"/><path d="M288.5,162.05H264.43l-24.08.16-24.07.22-6,.06c-2,0-4,.07-6.06-.06a35.93,35.93,0,0,1-33.22-43,36.31,36.31,0,0,1,35.43-29.14l48.15-.28L278.63,90h6c2,0,4,0,6.11.13a35.74,35.74,0,0,1,30,19.7,36,36,0,0,1-32.25,52.23Zm0-.3a36.25,36.25,0,0,0,11.72-2.14,34.05,34.05,0,0,0,10.28-5.93A34.27,34.27,0,0,0,318.55,111a34,34,0,0,0-28-17.8c-1.88-.13-3.92-.09-5.92-.09h-6L254.56,93l-48.15-.29A34.14,34.14,0,0,0,176,142.64a34.43,34.43,0,0,0,28.26,18.51c1.95.16,4,.14,6,.16l6,.06,24.07.21,24.08.17Z"/><path d="M848.64,126.72a36.49,36.49,0,0,1-10.23,25.1A35.71,35.71,0,0,1,827,159.74a36.07,36.07,0,0,1-50.06-33,36.29,36.29,0,0,1,22.32-33.94A36.88,36.88,0,0,1,813.31,90a35.21,35.21,0,0,1,25.44,11.24A37,37,0,0,1,848.64,126.72Zm-.3,0a33.8,33.8,0,0,0-2.87-13.32,34.32,34.32,0,0,0-7.85-11A35.28,35.28,0,0,0,813.31,93a34.5,34.5,0,0,0-23.83,9.86,33.81,33.81,0,0,0-7.67,36.87,34.31,34.31,0,0,0,31.5,21.39A35,35,0,0,0,838,151.37a34.62,34.62,0,0,0,7.71-11.25A34.24,34.24,0,0,0,848.34,126.72Z"/><path d="M83.76,321.73l426.1-1.05,106.52-.28,106.53,0c71,.27,142,.49,213.05,1.35a.15.15,0,1,1,0,.3c-71,.86-142,1.08-213.05,1.35H616.38l-106.52-.29L83.76,322a.15.15,0,0,1,0-.3Z"/></g></g></svg>